<svg width="64" height="60" viewBox="0 0 64 60" fill="none" xmlns="http://www.w3.org/2000/svg">
<path d="M25.09 26.7111H21.356L20.161 22.2951H24.492L25.09 26.7111ZM21.91 28.8451L23.105 33.2611H25.965L25.367 28.8451H21.91ZM27.244 26.7111H31.148V22.2951H26.647L27.244 26.7111ZM28.119 33.2611H31.149V28.8451H27.522L28.119 33.2611ZM33.282 33.2611H36.332L36.93 28.8451H33.282V33.2611ZM33.282 26.7111H37.208L37.805 22.2951H33.282V26.7111ZM38.488 33.2611H39.725C40.685 33.2611 41.538 32.6211 41.795 31.6821L42.541 28.8451H39.064L38.488 33.2611ZM43.821 22.2951H39.96L39.362 26.7111H43.117L44.163 22.7431C44.1779 22.6884 44.1799 22.6311 44.1688 22.5755C44.1576 22.52 44.1338 22.4678 44.099 22.4231C44.0643 22.3834 44.0216 22.3515 43.9737 22.3294C43.9258 22.3074 43.8737 22.2957 43.821 22.2951ZM28.695 42.9251C28.695 43.3741 27.885 43.3741 27.885 42.9251C27.8887 42.8188 27.9326 42.718 28.0078 42.6428C28.0829 42.5677 28.1838 42.5238 28.29 42.5201C28.3964 42.5238 28.4974 42.5678 28.5726 42.6432C28.6478 42.7186 28.6915 42.8187 28.695 42.9251ZM38.21 42.9251C38.21 43.3741 37.42 43.3741 37.42 42.9251C37.42 42.7121 37.592 42.5201 37.826 42.5201C38.04 42.5201 38.21 42.7111 38.21 42.9251ZM38.21 42.9251C38.21 43.3741 37.42 43.3741 37.42 42.9251C37.42 42.7121 37.592 42.5201 37.826 42.5201C38.04 42.5201 38.21 42.7111 38.21 42.9251ZM28.695 42.9251C28.695 43.3741 27.885 43.3741 27.885 42.9251C27.8887 42.8188 27.9326 42.718 28.0078 42.6428C28.0829 42.5677 28.1838 42.5238 28.29 42.5201C28.3964 42.5238 28.4974 42.5678 28.5726 42.6432C28.6478 42.7186 28.6915 42.8187 28.695 42.9251ZM28.695 42.9251C28.695 43.3741 27.885 43.3741 27.885 42.9251C27.8887 42.8188 27.9326 42.718 28.0078 42.6428C28.0829 42.5677 28.1838 42.5238 28.29 42.5201C28.3964 42.5238 28.4974 42.5678 28.5726 42.6432C28.6478 42.7186 28.6915 42.8187 28.695 42.9251ZM38.21 42.9251C38.21 43.3741 37.42 43.3741 37.42 42.9251C37.42 42.7121 37.592 42.5201 37.826 42.5201C38.04 42.5201 38.21 42.7111 38.21 42.9251ZM38.21 42.9251C38.21 43.3741 37.42 43.3741 37.42 42.9251C37.42 42.7121 37.592 42.5201 37.826 42.5201C38.04 42.5201 38.21 42.7111 38.21 42.9251ZM28.695 42.9251C28.695 43.3741 27.885 43.3741 27.885 42.9251C27.8887 42.8188 27.9326 42.718 28.0078 42.6428C28.0829 42.5677 28.1838 42.5238 28.29 42.5201C28.3964 42.5238 28.4974 42.5678 28.5726 42.6432C28.6478 42.7186 28.6915 42.8187 28.695 42.9251ZM28.695 42.9251C28.695 43.3741 27.885 43.3741 27.885 42.9251C27.8887 42.8188 27.9326 42.718 28.0078 42.6428C28.0829 42.5677 28.1838 42.5238 28.29 42.5201C28.3964 42.5238 28.4974 42.5678 28.5726 42.6432C28.6478 42.7186 28.6915 42.8187 28.695 42.9251ZM38.21 42.9251C38.21 43.3741 37.42 43.3741 37.42 42.9251C37.42 42.7121 37.592 42.5201 37.826 42.5201C38.04 42.5201 38.21 42.7111 38.21 42.9251ZM38.21 42.9251C38.21 43.3741 37.42 43.3741 37.42 42.9251C37.42 42.7121 37.592 42.5201 37.826 42.5201C38.04 42.5201 38.21 42.7111 38.21 42.9251ZM28.695 42.9251C28.695 43.3741 27.885 43.3741 27.885 42.9251C27.8887 42.8188 27.9326 42.718 28.0078 42.6428C28.0829 42.5677 28.1838 42.5238 28.29 42.5201C28.3964 42.5238 28.4974 42.5678 28.5726 42.6432C28.6478 42.7186 28.6915 42.8187 28.695 42.9251ZM28.695 42.9251C28.695 43.3741 27.885 43.3741 27.885 42.9251C27.8887 42.8188 27.9326 42.718 28.0078 42.6428C28.0829 42.5677 28.1838 42.5238 28.29 42.5201C28.3964 42.5238 28.4974 42.5678 28.5726 42.6432C28.6478 42.7186 28.6915 42.8187 28.695 42.9251ZM38.21 42.9251C38.21 43.3741 37.42 43.3741 37.42 42.9251C37.42 42.7121 37.592 42.5201 37.826 42.5201C38.04 42.5201 38.21 42.7111 38.21 42.9251ZM38.21 42.9251C38.21 43.3741 37.42 43.3741 37.42 42.9251C37.42 42.7121 37.592 42.5201 37.826 42.5201C38.04 42.5201 38.21 42.7111 38.21 42.9251ZM28.695 42.9251C28.695 43.3741 27.885 43.3741 27.885 42.9251C27.8887 42.8188 27.9326 42.718 28.0078 42.6428C28.0829 42.5677 28.1838 42.5238 28.29 42.5201C28.3964 42.5238 28.4974 42.5678 28.5726 42.6432C28.6478 42.7186 28.6915 42.8187 28.695 42.9251ZM59.972 9.04607V44.6541L53.827 39.4701C53.2394 38.9811 52.5014 38.7095 51.737 38.7011C51.3082 38.7009 50.8836 38.7853 50.4874 38.9493C50.0912 39.1134 49.7312 39.3539 49.428 39.6571C49.1248 39.9603 48.8843 40.3203 48.7203 40.7165C48.5562 41.1126 48.4719 41.5373 48.472 41.9661V51.4811H4.758C3.49642 51.48 2.28682 50.9784 1.39476 50.0863C0.502687 49.1942 0.00105926 47.9846 0 46.7231L0 9.04607H59.972ZM30.829 42.9261C30.8274 42.253 30.5593 41.608 30.0832 41.1321C29.6072 40.6563 28.9621 40.3884 28.289 40.3871C27.6163 40.3889 26.9716 40.657 26.4961 41.1328C26.0205 41.6086 25.7526 42.2533 25.751 42.9261C25.7499 43.2598 25.8149 43.5904 25.9421 43.8989C26.0693 44.2075 26.2563 44.4878 26.4923 44.7238C26.7283 44.9597 27.0086 45.1467 27.3171 45.274C27.6256 45.4012 27.9563 45.4661 28.29 45.4651C28.6238 45.4661 28.9545 45.4011 29.2631 45.2739C29.5717 45.1466 29.8521 44.9595 30.0881 44.7234C30.324 44.4873 30.511 44.2069 30.6382 43.8983C30.7653 43.5896 30.8302 43.2599 30.829 42.9261ZM40.344 42.9261C40.344 41.5391 39.213 40.3871 37.826 40.3871C37.1531 40.3887 36.5082 40.6567 36.0324 41.1325C35.5566 41.6083 35.2886 42.2532 35.287 42.9261C35.2859 43.2599 35.3509 43.5906 35.4782 43.8992C35.6055 44.2078 35.7926 44.4881 36.0287 44.7241C36.2647 44.9601 36.5452 45.1471 36.8538 45.2742C37.1624 45.4014 37.4932 45.4663 37.827 45.4651C38.1591 45.4638 38.4877 45.397 38.794 45.2686C39.1003 45.1402 39.3782 44.9527 39.612 44.7168C39.8458 44.4809 40.0307 44.2012 40.1563 43.8938C40.2819 43.5864 40.3457 43.2582 40.344 42.9261ZM45.805 21.1431C45.315 20.5241 44.611 20.1621 43.821 20.1621H19.585L18.966 17.7941C18.8073 17.2096 18.4598 16.6939 17.9776 16.3273C17.4955 15.9607 16.9057 15.7638 16.3 15.7671H14.72C14.123 15.7671 13.654 16.2371 13.654 16.8331C13.654 17.4311 14.124 17.9001 14.721 17.9001H16.3C16.4347 17.8998 16.5658 17.9433 16.6735 18.0242C16.7812 18.105 16.8596 18.2187 16.897 18.3481L21.996 37.4001C22.359 38.8081 23.639 39.7681 25.089 39.7681H42.179C42.776 39.7681 43.245 39.2981 43.245 38.7011C43.2439 38.4187 43.1313 38.1481 42.9316 37.9485C42.7319 37.7488 42.4614 37.6361 42.179 37.6351H25.089C24.599 37.6351 24.172 37.3151 24.044 36.8451L23.66 35.3951H39.725C40.663 35.394 41.5745 35.0842 42.3188 34.5134C43.0631 33.9426 43.5987 33.1427 43.843 32.2371L46.232 23.2771C46.3297 22.9125 46.3419 22.5303 46.2679 22.1602C46.1938 21.7901 46.0354 21.442 45.805 21.1431ZM38.21 42.9251C38.21 43.3741 37.42 43.3741 37.42 42.9251C37.42 42.7111 37.592 42.5201 37.826 42.5201C38.04 42.5201 38.21 42.7111 38.21 42.9251ZM28.695 42.9251C28.695 43.3741 27.885 43.3741 27.885 42.9251C27.8887 42.8188 27.9326 42.718 28.0078 42.6428C28.0829 42.5677 28.1838 42.5238 28.29 42.5201C28.3964 42.5238 28.4974 42.5678 28.5726 42.6432C28.6478 42.7186 28.6915 42.8187 28.695 42.9251ZM28.695 42.9251C28.695 43.3741 27.885 43.3741 27.885 42.9251C27.8887 42.8188 27.9326 42.718 28.0078 42.6428C28.0829 42.5677 28.1838 42.5238 28.29 42.5201C28.3964 42.5238 28.4974 42.5678 28.5726 42.6432C28.6478 42.7186 28.6915 42.8187 28.695 42.9251ZM38.21 42.9251C38.21 43.3741 37.42 43.3741 37.42 42.9251C37.42 42.7111 37.592 42.5201 37.826 42.5201C38.04 42.5201 38.21 42.7111 38.21 42.9251ZM38.21 42.9251C38.21 43.3741 37.42 43.3741 37.42 42.9251C37.42 42.7111 37.592 42.5201 37.826 42.5201C38.04 42.5201 38.21 42.7111 38.21 42.9251ZM28.695 42.9251C28.695 43.3741 27.885 43.3741 27.885 42.9251C27.8887 42.8188 27.9326 42.718 28.0078 42.6428C28.0829 42.5677 28.1838 42.5238 28.29 42.5201C28.3964 42.5238 28.4974 42.5678 28.5726 42.6432C28.6478 42.7186 28.6915 42.8187 28.695 42.9251ZM28.695 42.9251C28.695 43.3741 27.885 43.3741 27.885 42.9251C27.8887 42.8188 27.9326 42.718 28.0078 42.6428C28.0829 42.5677 28.1838 42.5238 28.29 42.5201C28.3964 42.5238 28.4974 42.5678 28.5726 42.6432C28.6478 42.7186 28.6915 42.8187 28.695 42.9251ZM38.21 42.9251C38.21 43.3741 37.42 43.3741 37.42 42.9251C37.42 42.7111 37.592 42.5201 37.826 42.5201C38.04 42.5201 38.21 42.7111 38.21 42.9251ZM38.21 42.9251C38.21 43.3741 37.42 43.3741 37.42 42.9251C37.42 42.7111 37.592 42.5201 37.826 42.5201C38.04 42.5201 38.21 42.7111 38.21 42.9251ZM28.695 42.9251C28.695 43.3741 27.885 43.3741 27.885 42.9251C27.8887 42.8188 27.9326 42.718 28.0078 42.6428C28.0829 42.5677 28.1838 42.5238 28.29 42.5201C28.3964 42.5238 28.4974 42.5678 28.5726 42.6432C28.6478 42.7186 28.6915 42.8187 28.695 42.9251ZM28.695 42.9251C28.695 43.3741 27.885 43.3741 27.885 42.9251C27.8887 42.8188 27.9326 42.718 28.0078 42.6428C28.0829 42.5677 28.1838 42.5238 28.29 42.5201C28.3964 42.5238 28.4974 42.5678 28.5726 42.6432C28.6478 42.7186 28.6915 42.8187 28.695 42.9251ZM38.21 42.9251C38.21 43.3741 37.42 43.3741 37.42 42.9251C37.42 42.7111 37.592 42.5201 37.826 42.5201C38.04 42.5201 38.21 42.7111 38.21 42.9251ZM59.972 5.05607V6.91307H0V5.05707C0 2.43307 2.133 0.320068 4.758 0.320068H55.214C57.838 0.320068 59.972 2.43207 59.972 5.05607ZM17.004 4.14007C17.004 3.58507 16.556 3.13707 16.001 3.13707H5.035C4.76912 3.13707 4.51413 3.24269 4.32613 3.43069C4.13812 3.6187 4.0325 3.87369 4.0325 4.13957C4.0325 4.40545 4.13812 4.66044 4.32613 4.84844C4.51413 5.03645 4.76912 5.14207 5.035 5.14207H16C16.555 5.14207 17.004 4.69407 17.004 4.14007ZM47.128 4.14007C47.1272 3.85733 47.0145 3.58639 46.8146 3.38646C46.6147 3.18653 46.3437 3.07386 46.061 3.07307C45.485 3.07307 44.995 3.56307 44.995 4.14007C44.995 4.73707 45.485 5.20607 46.061 5.20607C46.659 5.20607 47.128 4.73607 47.128 4.14007ZM51.544 4.14007C51.544 3.56307 51.054 3.07307 50.478 3.07307C50.1951 3.0736 49.9239 3.18615 49.7237 3.38611C49.5236 3.58607 49.4108 3.85715 49.41 4.14007C49.41 4.73707 49.88 5.20607 50.477 5.20607C50.7594 5.20501 51.0299 5.09237 51.2296 4.89268C51.4293 4.69299 51.5429 4.42246 51.544 4.14007ZM55.939 4.14007C55.9382 3.8575 55.8257 3.58671 55.626 3.38681C55.4262 3.18691 55.1556 3.07412 54.873 3.07307C54.5903 3.07386 54.3193 3.18653 54.1194 3.38646C53.9195 3.58639 53.8068 3.85733 53.806 4.14007C53.806 4.73707 54.276 5.20607 54.873 5.20607C55.47 5.20607 55.939 4.73607 55.939 4.14007ZM38.21 42.9251C38.21 43.3741 37.42 43.3741 37.42 42.9251C37.42 42.7111 37.592 42.5201 37.826 42.5201C38.04 42.5201 38.21 42.7111 38.21 42.9251ZM28.695 42.9251C28.695 43.3741 27.885 43.3741 27.885 42.9251C27.8887 42.8188 27.9326 42.718 28.0078 42.6428C28.0829 42.5677 28.1838 42.5238 28.29 42.5201C28.3964 42.5238 28.4974 42.5678 28.5726 42.6432C28.6478 42.7186 28.6915 42.8187 28.695 42.9251ZM28.695 42.9251C28.695 43.3741 27.885 43.3741 27.885 42.9251C27.8887 42.8188 27.9326 42.718 28.0078 42.6428C28.0829 42.5677 28.1838 42.5238 28.29 42.5201C28.3964 42.5238 28.4974 42.5678 28.5726 42.6432C28.6478 42.7186 28.6915 42.8187 28.695 42.9251ZM28.695 42.9251C28.695 43.3741 27.885 43.3741 27.885 42.9251C27.8887 42.8188 27.9326 42.718 28.0078 42.6428C28.0829 42.5677 28.1838 42.5238 28.29 42.5201C28.3964 42.5238 28.4974 42.5678 28.5726 42.6432C28.6478 42.7186 28.6915 42.8187 28.695 42.9251ZM63.599 50.5061L52.448 41.1041C51.717 40.4881 50.599 41.0081 50.599 41.9641L50.603 56.5501C50.603 57.5041 51.715 58.0251 52.449 57.4161L55.511 54.8701L57.207 58.5181C57.4315 59.0008 57.8386 59.3745 58.3386 59.5571C58.8387 59.7396 59.3908 59.7161 59.8735 59.4916C60.3562 59.2671 60.7299 58.86 60.9125 58.3599C61.0951 57.8599 61.0715 57.3078 60.847 56.8251L59.152 53.1781L63.072 52.4761C64.01 52.3081 64.328 51.1221 63.599 50.5061Z" fill="#120D02"/>
</svg>
