<svg width="48" height="48" viewBox="0 0 48 48" fill="none" xmlns="http://www.w3.org/2000/svg">
<path d="M0 8C0 3.58172 3.58172 0 8 0H40C44.4183 0 48 3.58172 48 8V40C48 44.4183 44.4183 48 40 48H8C3.58172 48 0 44.4183 0 40V8Z" fill="#FDF7EC"/>
<g clip-path="url(#clip0_135_161)">
<path d="M19.5 27C20.3284 27 21 26.3284 21 25.5C21 24.6716 20.3284 24 19.5 24C18.6716 24 18 24.6716 18 25.5C18 26.3284 18.6716 27 19.5 27Z" fill="#E7B144"/>
<path d="M34 22.0001C33.263 22.0001 32.625 22.4051 32.278 23.0001H27C26.7348 23.0001 26.4804 23.1054 26.2929 23.2929C26.1054 23.4805 26 23.7348 26 24.0001C26 24.2653 26.1054 24.5196 26.2929 24.7072C26.4804 24.8947 26.7348 25.0001 27 25.0001H32.278C32.625 25.5951 33.263 26.0001 34 26.0001C35.103 26.0001 36 25.1031 36 24.0001C36 22.8971 35.103 22.0001 34 22.0001ZM34 15.0001C33.263 15.0001 32.625 15.4051 32.278 16.0001H30C29.8687 15.9999 29.7386 16.0257 29.6172 16.0759C29.4959 16.1262 29.3857 16.2 29.293 16.2931L27.293 18.2931C27.1055 18.4806 27.0002 18.7349 27.0002 19.0001C27.0002 19.1314 27.026 19.2614 27.0763 19.3827C27.1265 19.504 27.2002 19.6142 27.293 19.7071C27.3858 19.7999 27.4961 19.8735 27.6174 19.9238C27.7387 19.974 27.8687 19.9999 28 19.9999C28.2652 19.9999 28.5195 19.8946 28.707 19.7071L30.414 18.0001H32.278C32.625 18.5951 33.263 19.0001 34 19.0001C35.103 19.0001 36 18.1031 36 17.0001C36 15.8971 35.103 15.0001 34 15.0001ZM34 29.0001C33.263 29.0001 32.625 29.4051 32.278 30.0001H30.414L28.707 28.2931C28.5195 28.1055 28.2652 28.0002 28 28.0002C27.7348 28.0002 27.4805 28.1055 27.293 28.2931C27.1055 28.4806 27.0002 28.7349 27.0002 29.0001C27.0002 29.2652 27.1055 29.5195 27.293 29.7071L29.293 31.7071C29.3857 31.8001 29.4959 31.8739 29.6172 31.9242C29.7386 31.9745 29.8687 32.0002 30 32.0001H32.278C32.625 32.5951 33.263 33.0001 34 33.0001C35.103 33.0001 36 32.1031 36 31.0001C36 29.8971 35.103 29.0001 34 29.0001ZM21.821 12.0071C17.755 12.3641 13.006 14.7091 13.006 20.1431L13.003 22.6221L13.001 23.5851C12.6918 23.8155 12.4404 24.1148 12.2667 24.4591C12.093 24.8034 12.0017 25.1834 12 25.5691C12 26.4981 12.519 27.3021 13.279 27.7361C14.121 31.3241 17.12 35.4131 21.765 35.9861C22.0437 36.0194 22.3262 35.9934 22.5941 35.9096C22.862 35.8259 23.109 35.6863 23.319 35.5001C23.752 35.1151 24 34.5641 24 33.9851V14.0121C24.0006 13.7336 23.9433 13.458 23.8316 13.2029C23.72 12.9478 23.5566 12.7187 23.3517 12.5301C23.1467 12.3416 22.9048 12.1977 22.6413 12.1076C22.3778 12.0176 22.0985 11.9833 21.821 12.0071ZM15.351 27.7601C15.4705 27.6739 15.5617 27.5542 15.613 27.4161L17.199 23.1051C17.933 22.8291 19.532 22.0791 20.305 20.5731C20.702 20.9481 21.253 21.3381 22.003 21.6991L22.007 29.3461C21.85 29.2427 21.7037 29.1241 21.57 28.9921C21.277 28.6981 20.802 28.6981 20.509 28.9921C20.216 29.2861 20.216 29.7631 20.509 30.0571C20.94 30.4891 21.455 30.8041 22.008 31.0151L22.009 33.9931C18.516 33.5611 16.176 30.5571 15.351 27.7601Z" fill="#E7B144"/>
</g>
<defs>
<clipPath id="clip0_135_161">
<rect width="24" height="24" fill="white" transform="translate(12 12)"/>
</clipPath>
</defs>
</svg>
