<svg width="48" height="48" viewBox="0 0 48 48" fill="none" xmlns="http://www.w3.org/2000/svg">
<path d="M0 8C0 3.58172 3.58172 0 8 0H40C44.4183 0 48 3.58172 48 8V40C48 44.4183 44.4183 48 40 48H8C3.58172 48 0 44.4183 0 40V8Z" fill="#FDF7EC"/>
<path d="M22.503 24.4725C22.5349 24.4965 22.5616 24.5266 22.5818 24.561C22.602 24.5955 22.6151 24.6335 22.6205 24.673C22.6259 24.7126 22.6234 24.7528 22.6132 24.7913C22.603 24.8299 22.5853 24.8661 22.5611 24.8977C22.5368 24.9294 22.5066 24.956 22.472 24.976C22.4375 24.9959 22.3993 25.0088 22.3598 25.014C22.3202 25.0191 22.28 25.0164 22.2415 25.006C22.203 24.9956 22.167 24.9776 22.1354 24.9532C21.6267 24.5637 21.2527 24.0246 21.066 23.4117C20.8792 22.7987 20.8891 22.1427 21.0943 21.5357C21.2994 20.9287 21.6895 20.4011 22.2097 20.0271C22.73 19.6531 23.3543 19.4514 23.9951 19.4504C24.6358 19.4493 25.2608 19.6489 25.7823 20.0212C26.3038 20.3935 26.6957 20.9197 26.9028 21.5261C27.11 22.1324 27.122 22.7884 26.9373 23.4019C26.7526 24.0155 26.3804 24.5558 25.8729 24.947C25.8415 24.9713 25.8055 24.9892 25.7671 24.9996C25.7287 25.01 25.6887 25.0127 25.6492 25.0076C25.6098 25.0025 25.5717 24.9897 25.5372 24.9699C25.5027 24.9501 25.4725 24.9238 25.4482 24.8923C25.4239 24.8608 25.406 24.8248 25.3956 24.7864C25.3852 24.7481 25.3825 24.708 25.3876 24.6686C25.3927 24.6291 25.4055 24.5911 25.4252 24.5566C25.445 24.5221 25.4714 24.4918 25.5029 24.4675C25.91 24.1535 26.2085 23.72 26.3566 23.2277C26.5047 22.7354 26.4949 22.2091 26.3287 21.7226C26.1624 21.2362 25.848 20.814 25.4296 20.5153C25.0111 20.2167 24.5097 20.0565 23.9956 20.0574C23.4815 20.0582 22.9806 20.22 22.5632 20.5201C22.1457 20.8201 21.8327 21.2433 21.6681 21.7303C21.5034 22.2174 21.4954 22.7437 21.6451 23.2355C21.7948 23.7273 22.0948 24.1599 22.5029 24.4725H22.503ZM27.0593 28.071H20.9404C20.2064 28.071 19.8179 28.9685 20.3491 29.5007C20.5059 29.6577 20.7185 29.7461 20.9404 29.7466H27.0594C27.7934 29.7466 28.1831 28.8504 27.6507 28.318C27.5733 28.2399 27.4812 28.1779 27.3797 28.1354C27.2782 28.093 27.1694 28.0711 27.0594 28.0709L27.0593 28.071ZM26.3523 27.4206V26.4801C26.3521 26.4282 26.3652 26.3771 26.3904 26.3316C26.4156 26.2862 26.452 26.248 26.4962 26.2207C27.2424 25.6912 27.8008 24.9381 28.0908 24.0702C28.3808 23.2024 28.3873 22.2648 28.1094 21.3931C27.8315 20.5213 27.2836 19.7605 26.5449 19.2206C25.8061 18.6807 24.9148 18.3898 23.9998 18.3898C23.0848 18.3898 22.1935 18.6807 21.4548 19.2206C20.716 19.7605 20.1681 20.5213 19.8902 21.3931C19.6123 22.2648 19.6188 23.2024 19.9088 24.0702C20.1988 24.9381 20.7572 25.6912 21.5034 26.2207C21.5476 26.248 21.5841 26.2862 21.6092 26.3316C21.6344 26.3771 21.6475 26.4282 21.6473 26.4801V27.4206C21.6472 27.4322 21.6516 27.4434 21.6597 27.4517C21.6677 27.46 21.6788 27.4647 21.6903 27.4649H23.6525C23.6583 27.465 23.6641 27.4638 23.6695 27.4616C23.6749 27.4594 23.6797 27.4561 23.6839 27.452C23.688 27.4479 23.6912 27.443 23.6934 27.4376C23.6957 27.4322 23.6968 27.4265 23.6968 27.4206V23.7828C23.6967 23.7731 23.6934 23.7637 23.6874 23.7561C23.6814 23.7486 23.673 23.7432 23.6636 23.741C22.7058 23.4878 22.3628 22.2755 23.0783 21.5599C23.2607 21.3777 23.493 21.2537 23.7459 21.2035C23.9987 21.1533 24.2608 21.1791 24.4989 21.2778C24.7371 21.3765 24.9406 21.5436 25.0839 21.7579C25.2271 21.9722 25.3036 22.2242 25.3036 22.482C25.3041 22.5222 25.2967 22.5621 25.2816 22.5994C25.2666 22.6366 25.2443 22.6706 25.216 22.6992C25.1878 22.7278 25.1541 22.7505 25.1171 22.766C25.08 22.7815 25.0402 22.7895 25 22.7895C24.9598 22.7895 24.92 22.7815 24.8829 22.766C24.8458 22.7505 24.8121 22.7278 24.7839 22.6992C24.7556 22.6706 24.7333 22.6366 24.7183 22.5994C24.7033 22.5621 24.6958 22.5222 24.6963 22.482C24.6963 21.8636 23.9451 21.5525 23.5074 21.989C23.0636 22.4328 23.3943 23.184 24.0004 23.1778C24.0402 23.1778 24.0797 23.1857 24.1164 23.201C24.1532 23.2163 24.1866 23.2387 24.2147 23.2669C24.2428 23.2951 24.2651 23.3286 24.2802 23.3654C24.2953 23.4023 24.303 23.4417 24.3029 23.4815V27.4206C24.3028 27.4265 24.304 27.4322 24.3062 27.4376C24.3084 27.443 24.3116 27.4479 24.3158 27.452C24.3199 27.4561 24.3248 27.4594 24.3301 27.4616C24.3355 27.4638 24.3413 27.465 24.3471 27.4649H26.3093C26.3209 27.4647 26.3319 27.46 26.3399 27.4517C26.348 27.4434 26.3524 27.4322 26.3523 27.4206ZM25.5618 30.466H22.4379C21.8219 30.466 21.4937 31.2196 21.941 31.6671C22.0061 31.7326 22.0836 31.7846 22.1688 31.82C22.2541 31.8555 22.3455 31.8737 22.4379 31.8737H25.5619C26.1779 31.8737 26.5061 31.1213 26.0588 30.6737C25.9937 30.6081 25.9163 30.5559 25.8311 30.5203C25.7458 30.4846 25.6543 30.4661 25.5619 30.4659L25.5618 30.466ZM24.1077 32.481C23.8348 32.481 23.6196 32.4626 23.3959 32.6876C22.9484 33.1351 23.2754 33.8887 23.8927 33.8887C24.1669 33.8887 24.3809 33.906 24.6046 33.681C25.0521 33.2335 24.7251 32.481 24.1077 32.481V32.481ZM23.6971 14.4144C23.6971 14.334 23.729 14.2569 23.7858 14.2001C23.8427 14.1433 23.9198 14.1113 24.0001 14.1113C24.0805 14.1113 24.1576 14.1433 24.2144 14.2001C24.2713 14.2569 24.3032 14.334 24.3032 14.4144V16.3655C24.3032 16.4459 24.2713 16.523 24.2144 16.5798C24.1576 16.6366 24.0805 16.6685 24.0001 16.6685C23.9198 16.6685 23.8427 16.6366 23.7858 16.5798C23.729 16.523 23.6971 16.4459 23.6971 16.3655V14.4144ZM17.6259 17.1807C17.5971 17.1526 17.5742 17.1191 17.5585 17.0822C17.5428 17.0452 17.5346 17.0055 17.5343 16.9653C17.5341 16.9252 17.5418 16.8854 17.5571 16.8482C17.5723 16.8111 17.5948 16.7773 17.6232 16.7489C17.6516 16.7205 17.6853 16.698 17.7225 16.6828C17.7596 16.6675 17.7995 16.6598 17.8396 16.66C17.8798 16.6603 17.9195 16.6685 17.9565 16.6842C17.9934 16.6999 18.0269 16.7228 18.0549 16.7516L19.4344 18.1297C19.4914 18.1866 19.5236 18.2638 19.5237 18.3444C19.5238 18.425 19.4919 18.5023 19.435 18.5594C19.3781 18.6165 19.3008 18.6486 19.2203 18.6487C19.1397 18.6488 19.0623 18.6169 19.0053 18.56L17.6259 17.1807ZM15.2887 23.4287C15.2088 23.4277 15.1325 23.3952 15.0764 23.3384C15.0203 23.2816 14.9888 23.2049 14.9888 23.125C14.9888 23.0451 15.0203 22.9684 15.0764 22.9116C15.1325 22.8547 15.2088 22.8223 15.2887 22.8213H17.2398C17.3197 22.8223 17.396 22.8547 17.4521 22.9116C17.5083 22.9684 17.5398 23.0451 17.5398 23.125C17.5398 23.2049 17.5083 23.2816 17.4521 23.3384C17.396 23.3952 17.3197 23.4277 17.2398 23.4287H15.2887ZM17.4033 28.8233C17.3724 28.8487 17.3367 28.8677 17.2984 28.8792C17.26 28.8907 17.2198 28.8945 17.18 28.8904C17.1402 28.8862 17.1016 28.8742 17.0665 28.855C17.0313 28.8359 17.0003 28.8099 16.9753 28.7787C16.9503 28.7475 16.9317 28.7116 16.9206 28.6731C16.9095 28.6347 16.9062 28.5944 16.9108 28.5546C16.9153 28.5149 16.9278 28.4764 16.9473 28.4415C16.9669 28.4066 16.9932 28.3759 17.0247 28.3512L18.5443 27.1278C18.607 27.0786 18.6865 27.0562 18.7657 27.0653C18.8448 27.0744 18.9172 27.1144 18.9671 27.1766C19.0169 27.2387 19.0402 27.3181 19.032 27.3973C19.0237 27.4766 18.9845 27.5494 18.9229 27.5999L17.4033 28.8233ZM30.9432 28.3942C30.9743 28.4192 31.0003 28.4501 31.0194 28.4852C31.0386 28.5203 31.0506 28.5588 31.0549 28.5985C31.0591 28.6382 31.0554 28.6784 31.044 28.7167C31.0326 28.755 31.0138 28.7907 30.9886 28.8217C30.9633 28.8527 30.9322 28.8783 30.897 28.8973C30.8618 28.9162 30.8232 28.9279 30.7835 28.9318C30.7437 28.9358 30.7036 28.9318 30.6654 28.9201C30.6271 28.9084 30.5916 28.8893 30.5608 28.8639L29.0486 27.6307C28.987 27.5798 28.9481 27.5066 28.9402 27.4271C28.9324 27.3475 28.9563 27.2681 29.0067 27.2062C29.0572 27.1442 29.1301 27.1047 29.2096 27.0962C29.289 27.0878 29.3686 27.1111 29.431 27.1611L30.9432 28.3942ZM32.7111 22.8212C32.791 22.8222 32.8673 22.8546 32.9234 22.9114C32.9796 22.9683 33.011 23.045 33.011 23.1249C33.011 23.2047 32.9796 23.2814 32.9234 23.3383C32.8673 23.3951 32.791 23.4275 32.7111 23.4285H30.76C30.6801 23.4275 30.6038 23.3951 30.5477 23.3383C30.4915 23.2814 30.4601 23.2047 30.4601 23.1249C30.4601 23.045 30.4915 22.9683 30.5477 22.9114C30.6038 22.8546 30.6801 22.8222 30.76 22.8212H32.7111ZM29.9449 16.7516C29.9729 16.7228 30.0064 16.6999 30.0434 16.6842C30.0803 16.6685 30.12 16.6603 30.1602 16.66C30.2004 16.6598 30.2402 16.6675 30.2773 16.6828C30.3145 16.698 30.3482 16.7205 30.3766 16.7489C30.405 16.7773 30.4275 16.8111 30.4427 16.8482C30.458 16.8854 30.4657 16.9252 30.4655 16.9653C30.4652 17.0055 30.457 17.0452 30.4413 17.0822C30.4256 17.1191 30.4027 17.1526 30.3739 17.1807L28.9945 18.5601C28.9375 18.617 28.8601 18.6489 28.7795 18.6488C28.699 18.6487 28.6217 18.6165 28.5648 18.5595C28.5079 18.5024 28.476 18.4251 28.4761 18.3445C28.4762 18.2639 28.5084 18.1867 28.5654 18.1298L29.9449 16.7516Z" fill="#E7B144"/>
</svg>
