<svg width="48" height="48" viewBox="0 0 48 48" fill="none" xmlns="http://www.w3.org/2000/svg">
<path d="M0 8C0 3.58172 3.58172 0 8 0H40C44.4183 0 48 3.58172 48 8V40C48 44.4183 44.4183 48 40 48H8C3.58172 48 0 44.4183 0 40V8Z" fill="#FDF7EC"/>
<path d="M33.1767 16.913V15.5012H31.7367C31.5495 15.5013 31.37 15.5757 31.2376 15.708L29.5153 17.4304C29.3273 17.1835 29.1208 16.9513 28.8976 16.7358C28.1375 15.9708 27.1059 15.5372 26.0275 15.5295C25.5753 15.5428 25.1287 15.6321 24.7061 15.7935V19.0278H25.412C25.5992 19.0278 25.7787 19.1022 25.9111 19.2346C26.0435 19.3669 26.1178 19.5465 26.1178 19.7337C26.1178 19.9209 26.0435 20.1004 25.9111 20.2328C25.7787 20.3652 25.5992 20.4396 25.412 20.4396H24.7061V32.1699C25.0529 32.2801 25.4144 32.337 25.7783 32.3386C26.7289 32.3376 27.6456 31.9857 28.3527 31.3504C28.7021 31.0396 29.023 30.698 29.3113 30.3297L31.2327 32.2899C31.2984 32.357 31.3768 32.4102 31.4633 32.4466C31.5499 32.4829 31.6428 32.5017 31.7367 32.5017H33.1767V31.0899H32.0331L30.0433 29.0598C30.2434 28.5742 30.3486 28.0547 30.3531 27.5295H28.9414C28.7542 27.5295 28.5746 27.6038 28.4422 27.7362C28.3099 27.8686 28.2355 28.0481 28.2355 28.2353C28.2355 28.4226 28.1611 28.6021 28.0287 28.7345C27.8964 28.8669 27.7168 28.9412 27.5296 28.9412C27.3424 28.9412 27.1629 28.8669 27.0305 28.7345C26.8981 28.6021 26.8237 28.4226 26.8237 28.2353C26.8237 27.6737 27.0468 27.1351 27.444 26.7379C27.8411 26.3408 28.3797 26.1177 28.9414 26.1177H30.6722C31.2094 25.5242 31.5656 24.7894 31.6986 24H33.1767V22.5883H31.6978C31.637 22.2246 31.5285 21.8705 31.3753 21.5351C31.0963 22.1445 30.6759 22.6786 30.1491 23.093C30.0021 23.2089 29.815 23.2616 29.6291 23.2395C29.4432 23.2175 29.2736 23.1225 29.1577 22.9755C29.0418 22.8284 28.9891 22.6413 29.0112 22.4554C29.0332 22.2695 29.1282 22.0999 29.2753 21.984C29.602 21.7269 29.8676 21.4004 30.0527 21.028C30.2377 20.6557 30.3377 20.2468 30.3454 19.8311C30.351 19.4642 30.3006 19.0985 30.1957 18.7469L32.031 16.9116L33.1767 16.913ZM19.1035 16.7358C18.8801 16.9513 18.6734 17.1835 18.4851 17.4304L16.7628 15.708C16.6304 15.5757 16.4509 15.5013 16.2637 15.5012H14.8237V16.913H15.9715L17.8068 18.7483C17.7019 19.1 17.6515 19.4656 17.6571 19.8325C17.6648 20.2483 17.7648 20.6571 17.9499 21.0294C18.1349 21.4018 18.4005 21.7283 18.7273 21.9855C18.8743 22.1013 18.9693 22.2709 18.9914 22.4568C19.0134 22.6427 18.9607 22.8298 18.8448 22.9769C18.7289 23.1239 18.5594 23.2189 18.3734 23.241C18.1875 23.263 18.0004 23.2103 17.8534 23.0944C17.3266 22.68 16.9062 22.1459 16.6273 21.5365C16.4746 21.8715 16.3666 22.2251 16.3061 22.5883H14.8237V24H16.3018C16.4348 24.7894 16.791 25.5242 17.3282 26.1177H19.059C19.6207 26.1177 20.1593 26.3408 20.5564 26.7379C20.9536 27.1351 21.1767 27.6737 21.1767 28.2353C21.1767 28.4226 21.1023 28.6021 20.9699 28.7345C20.8375 28.8669 20.658 28.9412 20.4708 28.9412C20.2836 28.9412 20.104 28.8669 19.9717 28.7345C19.8393 28.6021 19.7649 28.4226 19.7649 28.2353C19.7649 28.0481 19.6905 27.8686 19.5582 27.7362C19.4258 27.6038 19.2462 27.5295 19.059 27.5295H17.6473C17.6518 28.0536 17.7565 28.5721 17.9557 29.057L15.9673 31.0871H14.8237V32.4989H16.2637C16.3576 32.4989 16.4505 32.4801 16.5371 32.4438C16.6236 32.4074 16.702 32.3541 16.7677 32.2871L18.6898 30.3262C18.9777 30.695 19.2986 31.0369 19.6484 31.3476C20.3533 31.9828 21.2683 32.3348 22.2171 32.3358C22.5826 32.334 22.9458 32.2771 23.2943 32.1671V20.4396H22.5884C22.4012 20.4396 22.2217 20.3652 22.0893 20.2328C21.9569 20.1004 21.8826 19.9209 21.8826 19.7337C21.8826 19.5465 21.9569 19.3669 22.0893 19.2346C22.2217 19.1022 22.4012 19.0278 22.5884 19.0278H23.2943V15.7935C22.8717 15.6321 22.4251 15.5428 21.9729 15.5295C21.4383 15.5287 20.909 15.6351 20.4161 15.8423C19.9233 16.0495 19.477 16.3533 19.1035 16.7358Z" fill="#E7B144"/>
</svg>
