<svg width="48" height="48" viewBox="0 0 48 48" fill="none" xmlns="http://www.w3.org/2000/svg">
<path d="M0 8C0 3.58172 3.58172 0 8 0H40C44.4183 0 48 3.58172 48 8V40C48 44.4183 44.4183 48 40 48H8C3.58172 48 0 44.4183 0 40V8Z" fill="#FDF7EC"/>
<path d="M35 24C35 17.925 30.075 13 24 13C17.925 13 13 17.925 13 24C13 26.025 13.545 27.925 14.5 29.55V28.5C14.5 27.94 14.685 27.425 14.99 27.01C14.67 26.065 14.5 25.05 14.5 24C14.5 18.755 18.755 14.5 24 14.5C29.245 14.5 33.5 18.755 33.5 24C33.5 25.05 33.33 26.065 33.01 27.01C33.315 27.425 33.5 27.94 33.5 28.5V29.55C34.455 27.925 35 26.025 35 24Z" fill="#E7B144"/>
<path d="M31 23.9999C31 23.7249 31.225 23.4999 31.5 23.4999H32.475C32.405 22.3149 32.09 21.2049 31.585 20.1999L31.18 20.4349C30.94 20.5699 30.635 20.4899 30.495 20.2499C30.355 20.0099 30.44 19.7049 30.68 19.5649L31.085 19.3299C30.4507 18.3706 29.6293 17.5492 28.67 16.9149L28.435 17.3199C28.295 17.5599 27.99 17.6449 27.75 17.5049C27.51 17.3649 27.43 17.0599 27.565 16.8199L27.8 16.4149C26.7723 15.8959 25.6492 15.593 24.5 15.5249V16.4999C24.5 16.7749 24.275 16.9999 24 16.9999C23.725 16.9999 23.5 16.7749 23.5 16.4999V15.5249C22.315 15.5949 21.205 15.9099 20.2 16.4149L20.435 16.8199C20.57 17.0599 20.49 17.3649 20.25 17.5049C20.01 17.6449 19.705 17.5599 19.565 17.3199L19.33 16.9149C18.3707 17.5492 17.5493 18.3706 16.915 19.3299L17.32 19.5649C17.56 19.7049 17.645 20.0099 17.505 20.2499C17.365 20.4899 17.06 20.5699 16.82 20.4349L16.415 20.1999C15.896 21.2276 15.5931 22.3507 15.525 23.4999H16.5C16.775 23.4999 17 23.7249 17 23.9999C17 24.2749 16.775 24.4999 16.5 24.4999H15.525C15.56 25.1199 15.665 25.7149 15.825 26.2899C16.175 26.1049 16.575 25.9999 17 25.9999H31C31.425 25.9999 31.825 26.1049 32.175 26.2899C32.335 25.7149 32.44 25.1199 32.475 24.4999H31.5C31.225 24.4999 31 24.2749 31 23.9999ZM24 24.9999C23.63 24.9999 23.31 24.7999 23.14 24.4999H20C19.725 24.4999 19.5 24.2749 19.5 23.9999C19.5 23.7249 19.725 23.4999 20 23.4999H23.14C23.225 23.3499 23.35 23.2249 23.5 23.1399V18.9999C23.5 18.7249 23.725 18.4999 24 18.4999C24.275 18.4999 24.5 18.7249 24.5 18.9999V23.1399C24.8 23.3099 25 23.6299 25 23.9999C25 24.5499 24.55 24.9999 24 24.9999ZM31 26.9999H17C16.6022 26.9999 16.2206 27.1579 15.9393 27.4392C15.658 27.7205 15.5 28.1021 15.5 28.4999V33.4999C15.5 33.8977 15.658 34.2793 15.9393 34.5606C16.2206 34.8419 16.6022 34.9999 17 34.9999H31C31.3978 34.9999 31.7794 34.8419 32.0607 34.5606C32.342 34.2793 32.5 33.8977 32.5 33.4999V28.4999C32.5 28.1021 32.342 27.7205 32.0607 27.4392C31.7794 27.1579 31.3978 26.9999 31 26.9999ZM20 30.4999C20 31.0514 19.5515 31.4999 19 31.4999H18V32.4999H19.5C19.6326 32.4999 19.7598 32.5526 19.8536 32.6463C19.9473 32.7401 20 32.8673 20 32.9999C20 33.1325 19.9473 33.2597 19.8536 33.3535C19.7598 33.4472 19.6326 33.4999 19.5 33.4999H18C17.4485 33.4999 17 33.0514 17 32.4999V31.4999C17 30.9484 17.4485 30.4999 18 30.4999H19V29.4999H17.5C17.3674 29.4999 17.2402 29.4472 17.1464 29.3535C17.0527 29.2597 17 29.1325 17 28.9999C17 28.8673 17.0527 28.7401 17.1464 28.6463C17.2402 28.5526 17.3674 28.4999 17.5 28.4999H19C19.5515 28.4999 20 28.9484 20 29.4999V30.4999ZM24 32.9999C24 33.1325 23.9473 33.2597 23.8536 33.3535C23.7598 33.4472 23.6326 33.4999 23.5 33.4999C23.3674 33.4999 23.2402 33.4472 23.1464 33.3535C23.0527 33.2597 23 33.1325 23 32.9999V31.4999H22C21.4485 31.4999 21 31.0514 21 30.4999V28.9999C21 28.8673 21.0527 28.7401 21.1464 28.6463C21.2402 28.5526 21.3674 28.4999 21.5 28.4999C21.6326 28.4999 21.7598 28.5526 21.8536 28.6463C21.9473 28.7401 22 28.8673 22 28.9999V30.4999H23V28.9999C23 28.8673 23.0527 28.7401 23.1464 28.6463C23.2402 28.5526 23.3674 28.4999 23.5 28.4999C23.6326 28.4999 23.7598 28.5526 23.8536 28.6463C23.9473 28.7401 24 28.8673 24 28.9999V32.9999ZM25.99 33.5979C25.9639 33.7278 25.8874 33.8421 25.7771 33.9156C25.6669 33.9891 25.5319 34.0158 25.402 33.9899C25.3376 33.9771 25.2763 33.9516 25.2218 33.9151C25.1672 33.8786 25.1204 33.8316 25.0839 33.777C25.0475 33.7223 25.0223 33.661 25.0096 33.5965C24.9969 33.5321 24.997 33.4658 25.01 33.4014L26.01 28.4014C26.0228 28.337 26.0482 28.2757 26.0847 28.2211C26.1212 28.1665 26.1682 28.1196 26.2228 28.0832C26.2775 28.0468 26.3388 28.0215 26.4033 28.0088C26.4678 27.9962 26.5341 27.9964 26.5985 28.0094C26.6629 28.0222 26.7242 28.0477 26.7787 28.0842C26.8333 28.1207 26.8801 28.1677 26.9166 28.2224C26.953 28.277 26.9782 28.3383 26.9909 28.4028C27.0036 28.4672 27.0035 28.5335 26.9905 28.5979L25.9905 33.5979H25.99ZM30.7145 29.8509L29.468 33.1754C29.4212 33.2994 29.3271 33.3999 29.2064 33.4547C29.0857 33.5095 28.9482 33.5143 28.824 33.4679C28.7625 33.4448 28.7061 33.4099 28.6582 33.365C28.6102 33.3202 28.5715 33.2663 28.5443 33.2065C28.5172 33.1467 28.502 33.0821 28.4998 33.0165C28.4976 32.9508 28.5084 32.8854 28.5315 32.8239L29.778 29.4994H28.4995C28.3669 29.4994 28.2397 29.4467 28.1459 29.353C28.0522 29.2592 27.9995 29.132 27.9995 28.9994C27.9995 28.8668 28.0522 28.7396 28.1459 28.6458C28.2397 28.5521 28.3669 28.4994 28.4995 28.4994H29.778C29.9395 28.4995 30.0987 28.5387 30.2417 28.6137C30.3848 28.6887 30.5076 28.7972 30.5997 28.9299C30.6917 29.0627 30.7502 29.2157 30.7702 29.376C30.7902 29.5363 30.7711 29.6996 30.7145 29.8509Z" fill="#E7B144"/>
</svg>
