<svg width="48" height="48" viewBox="0 0 48 48" fill="none" xmlns="http://www.w3.org/2000/svg">
<path d="M0 8C0 3.58172 3.58172 0 8 0H40C44.4183 0 48 3.58172 48 8V40C48 44.4183 44.4183 48 40 48H8C3.58172 48 0 44.4183 0 40V8Z" fill="#FDF7EC"/>
<g clip-path="url(#clip0_135_181)">
<path d="M35.2645 12H33.1235C32.7176 12 32.3885 12.3291 32.3885 12.735C32.3885 13.1409 32.7176 13.47 33.1235 13.47H34.5296V14.876C34.5296 15.282 34.8586 15.611 35.2646 15.611C35.6705 15.611 35.9995 15.282 35.9995 14.876V12.735C35.9995 12.3291 35.6705 12 35.2645 12ZM35.2645 24.9415C34.8586 24.9415 34.5295 25.2706 34.5295 25.6765V27.0826H33.1235C32.7176 27.0826 32.3885 27.4117 32.3885 27.8176C32.3885 28.2235 32.7176 28.5526 33.1235 28.5526H35.2645C35.6705 28.5526 35.9995 28.2235 35.9995 27.8176V25.6765C35.9995 25.2706 35.6705 24.9415 35.2645 24.9415ZM20.182 15.611C20.5879 15.611 20.917 15.282 20.917 14.876V13.47H22.323C22.7289 13.47 23.058 13.1409 23.058 12.735C23.058 12.3291 22.7289 12 22.323 12H20.182C19.7761 12 19.447 12.3291 19.447 12.735V14.876C19.447 15.282 19.776 15.611 20.182 15.611ZM23.4861 22.7789L12.3582 33.9067C11.8799 34.385 11.8799 35.16 12.3582 35.6383C12.8365 36.1166 13.6116 36.1166 14.0899 35.6383L25.2177 24.5105L24.7479 23.2487L23.4861 22.7789ZM33.7309 21.8233L32.1043 19.3039C32.0488 19.2175 32.0119 19.1205 31.996 19.0191C31.9802 18.9177 31.9857 18.814 32.0122 18.7148L32.7829 15.8428C32.8854 15.4605 32.5356 15.1106 32.1532 15.2133L29.2816 15.9844C29.1824 16.0109 29.0788 16.0164 28.9774 16.0005C28.876 15.9847 28.779 15.9478 28.6927 15.8923L26.1732 14.2657C25.8397 14.0506 25.3985 14.2784 25.3811 14.675L25.25 17.638C25.2454 17.7423 25.2186 17.8445 25.1715 17.9377C25.1244 18.0309 25.0579 18.113 24.9766 18.1785L22.6343 20.0634C22.3237 20.3134 22.4036 20.8063 22.7771 20.9454L24.6292 21.6357C26.0906 22.1799 25.8172 21.9075 26.3609 23.3674L27.0512 25.2195C27.1903 25.593 27.6832 25.6728 27.9332 25.3623L29.818 23.02C29.8835 22.9387 29.9656 22.8722 30.0589 22.8251C30.1521 22.778 30.2542 22.7512 30.3586 22.7467L33.3216 22.6155C33.7182 22.598 33.946 22.1569 33.7308 21.8232L33.7309 21.8233Z" fill="#E7B144"/>
</g>
<defs>
<clipPath id="clip0_135_181">
<rect width="24" height="24" fill="white" transform="translate(12 12)"/>
</clipPath>
</defs>
</svg>
