<svg width="80" height="80" viewBox="0 0 80 80" fill="none" xmlns="http://www.w3.org/2000/svg">
<path d="M0 8C0 3.58172 3.58172 0 8 0H72C76.4183 0 80 3.58172 80 8V72C80 76.4183 76.4183 80 72 80H8C3.58172 80 0 76.4183 0 72V8Z" fill="#FDF7EC"/>
<g clip-path="url(#clip0_264_4264)">
<path d="M33.09 36.7111H29.356L28.161 32.2951H32.492L33.09 36.7111ZM29.91 38.8451L31.105 43.2611H33.965L33.367 38.8451H29.91ZM35.244 36.7111H39.148V32.2951H34.647L35.244 36.7111ZM36.119 43.2611H39.149V38.8451H35.522L36.119 43.2611ZM41.282 43.2611H44.332L44.93 38.8451H41.282V43.2611ZM41.282 36.7111H45.208L45.805 32.2951H41.282V36.7111ZM46.488 43.2611H47.725C48.685 43.2611 49.538 42.6211 49.795 41.6821L50.541 38.8451H47.064L46.488 43.2611ZM51.821 32.2951H47.96L47.362 36.7111H51.117L52.163 32.7431C52.1779 32.6884 52.1799 32.6311 52.1688 32.5755C52.1576 32.52 52.1338 32.4678 52.099 32.4231C52.0643 32.3834 52.0216 32.3515 51.9737 32.3294C51.9258 32.3074 51.8737 32.2957 51.821 32.2951ZM36.695 52.9251C36.695 53.3741 35.885 53.3741 35.885 52.9251C35.8887 52.8188 35.9326 52.718 36.0078 52.6428C36.0829 52.5677 36.1838 52.5238 36.29 52.5201C36.3964 52.5238 36.4974 52.5678 36.5726 52.6432C36.6478 52.7186 36.6915 52.8187 36.695 52.9251ZM46.21 52.9251C46.21 53.3741 45.42 53.3741 45.42 52.9251C45.42 52.7121 45.592 52.5201 45.826 52.5201C46.04 52.5201 46.21 52.7111 46.21 52.9251ZM46.21 52.9251C46.21 53.3741 45.42 53.3741 45.42 52.9251C45.42 52.7121 45.592 52.5201 45.826 52.5201C46.04 52.5201 46.21 52.7111 46.21 52.9251ZM36.695 52.9251C36.695 53.3741 35.885 53.3741 35.885 52.9251C35.8887 52.8188 35.9326 52.718 36.0078 52.6428C36.0829 52.5677 36.1838 52.5238 36.29 52.5201C36.3964 52.5238 36.4974 52.5678 36.5726 52.6432C36.6478 52.7186 36.6915 52.8187 36.695 52.9251ZM36.695 52.9251C36.695 53.3741 35.885 53.3741 35.885 52.9251C35.8887 52.8188 35.9326 52.718 36.0078 52.6428C36.0829 52.5677 36.1838 52.5238 36.29 52.5201C36.3964 52.5238 36.4974 52.5678 36.5726 52.6432C36.6478 52.7186 36.6915 52.8187 36.695 52.9251ZM46.21 52.9251C46.21 53.3741 45.42 53.3741 45.42 52.9251C45.42 52.7121 45.592 52.5201 45.826 52.5201C46.04 52.5201 46.21 52.7111 46.21 52.9251ZM46.21 52.9251C46.21 53.3741 45.42 53.3741 45.42 52.9251C45.42 52.7121 45.592 52.5201 45.826 52.5201C46.04 52.5201 46.21 52.7111 46.21 52.9251ZM36.695 52.9251C36.695 53.3741 35.885 53.3741 35.885 52.9251C35.8887 52.8188 35.9326 52.718 36.0078 52.6428C36.0829 52.5677 36.1838 52.5238 36.29 52.5201C36.3964 52.5238 36.4974 52.5678 36.5726 52.6432C36.6478 52.7186 36.6915 52.8187 36.695 52.9251ZM36.695 52.9251C36.695 53.3741 35.885 53.3741 35.885 52.9251C35.8887 52.8188 35.9326 52.718 36.0078 52.6428C36.0829 52.5677 36.1838 52.5238 36.29 52.5201C36.3964 52.5238 36.4974 52.5678 36.5726 52.6432C36.6478 52.7186 36.6915 52.8187 36.695 52.9251ZM46.21 52.9251C46.21 53.3741 45.42 53.3741 45.42 52.9251C45.42 52.7121 45.592 52.5201 45.826 52.5201C46.04 52.5201 46.21 52.7111 46.21 52.9251ZM46.21 52.9251C46.21 53.3741 45.42 53.3741 45.42 52.9251C45.42 52.7121 45.592 52.5201 45.826 52.5201C46.04 52.5201 46.21 52.7111 46.21 52.9251ZM36.695 52.9251C36.695 53.3741 35.885 53.3741 35.885 52.9251C35.8887 52.8188 35.9326 52.718 36.0078 52.6428C36.0829 52.5677 36.1838 52.5238 36.29 52.5201C36.3964 52.5238 36.4974 52.5678 36.5726 52.6432C36.6478 52.7186 36.6915 52.8187 36.695 52.9251ZM36.695 52.9251C36.695 53.3741 35.885 53.3741 35.885 52.9251C35.8887 52.8188 35.9326 52.718 36.0078 52.6428C36.0829 52.5677 36.1838 52.5238 36.29 52.5201C36.3964 52.5238 36.4974 52.5678 36.5726 52.6432C36.6478 52.7186 36.6915 52.8187 36.695 52.9251ZM46.21 52.9251C46.21 53.3741 45.42 53.3741 45.42 52.9251C45.42 52.7121 45.592 52.5201 45.826 52.5201C46.04 52.5201 46.21 52.7111 46.21 52.9251ZM46.21 52.9251C46.21 53.3741 45.42 53.3741 45.42 52.9251C45.42 52.7121 45.592 52.5201 45.826 52.5201C46.04 52.5201 46.21 52.7111 46.21 52.9251ZM36.695 52.9251C36.695 53.3741 35.885 53.3741 35.885 52.9251C35.8887 52.8188 35.9326 52.718 36.0078 52.6428C36.0829 52.5677 36.1838 52.5238 36.29 52.5201C36.3964 52.5238 36.4974 52.5678 36.5726 52.6432C36.6478 52.7186 36.6915 52.8187 36.695 52.9251ZM67.972 19.0461V54.6541L61.827 49.4701C61.2394 48.9811 60.5014 48.7095 59.737 48.7011C59.3082 48.7009 58.8836 48.7853 58.4874 48.9493C58.0912 49.1134 57.7312 49.3539 57.428 49.6571C57.1248 49.9603 56.8843 50.3203 56.7203 50.7165C56.5562 51.1126 56.4719 51.5373 56.472 51.9661V61.4811H12.758C11.4964 61.48 10.2868 60.9784 9.39476 60.0863C8.50269 59.1942 8.00106 57.9846 8 56.7231V19.0461H67.972ZM38.829 52.9261C38.8274 52.253 38.5593 51.608 38.0832 51.1321C37.6072 50.6563 36.9621 50.3884 36.289 50.3871C35.6163 50.3889 34.9716 50.657 34.4961 51.1328C34.0205 51.6086 33.7526 52.2533 33.751 52.9261C33.7499 53.2598 33.8149 53.5904 33.9421 53.8989C34.0693 54.2075 34.2563 54.4878 34.4923 54.7238C34.7283 54.9597 35.0086 55.1467 35.3171 55.274C35.6256 55.4012 35.9563 55.4661 36.29 55.4651C36.6238 55.4661 36.9545 55.4011 37.2631 55.2739C37.5717 55.1466 37.8521 54.9595 38.0881 54.7234C38.324 54.4873 38.511 54.2069 38.6382 53.8983C38.7653 53.5896 38.8302 53.2599 38.829 52.9261ZM48.344 52.9261C48.344 51.5391 47.213 50.3871 45.826 50.3871C45.1531 50.3887 44.5082 50.6567 44.0324 51.1325C43.5566 51.6083 43.2886 52.2532 43.287 52.9261C43.2859 53.2599 43.3509 53.5906 43.4782 53.8992C43.6055 54.2078 43.7926 54.4881 44.0287 54.7241C44.2647 54.9601 44.5452 55.1471 44.8538 55.2742C45.1624 55.4014 45.4932 55.4663 45.827 55.4651C46.1591 55.4638 46.4877 55.397 46.794 55.2686C47.1003 55.1402 47.3782 54.9527 47.612 54.7168C47.8458 54.4809 48.0307 54.2012 48.1563 53.8938C48.2819 53.5864 48.3457 53.2582 48.344 52.9261ZM53.805 31.1431C53.315 30.5241 52.611 30.1621 51.821 30.1621H27.585L26.966 27.7941C26.8073 27.2096 26.4598 26.6939 25.9776 26.3273C25.4955 25.9607 24.9057 25.7638 24.3 25.7671H22.72C22.123 25.7671 21.654 26.2371 21.654 26.8331C21.654 27.4311 22.124 27.9001 22.721 27.9001H24.3C24.4347 27.8998 24.5658 27.9433 24.6735 28.0242C24.7812 28.105 24.8596 28.2187 24.897 28.3481L29.996 47.4001C30.359 48.8081 31.639 49.7681 33.089 49.7681H50.179C50.776 49.7681 51.245 49.2981 51.245 48.7011C51.2439 48.4187 51.1313 48.1481 50.9316 47.9485C50.7319 47.7488 50.4614 47.6361 50.179 47.6351H33.089C32.599 47.6351 32.172 47.3151 32.044 46.8451L31.66 45.3951H47.725C48.663 45.394 49.5745 45.0842 50.3188 44.5134C51.0631 43.9426 51.5987 43.1427 51.843 42.2371L54.232 33.2771C54.3297 32.9125 54.3419 32.5303 54.2679 32.1602C54.1938 31.7901 54.0354 31.442 53.805 31.1431ZM46.21 52.9251C46.21 53.3741 45.42 53.3741 45.42 52.9251C45.42 52.7111 45.592 52.5201 45.826 52.5201C46.04 52.5201 46.21 52.7111 46.21 52.9251ZM36.695 52.9251C36.695 53.3741 35.885 53.3741 35.885 52.9251C35.8887 52.8188 35.9326 52.718 36.0078 52.6428C36.0829 52.5677 36.1838 52.5238 36.29 52.5201C36.3964 52.5238 36.4974 52.5678 36.5726 52.6432C36.6478 52.7186 36.6915 52.8187 36.695 52.9251ZM36.695 52.9251C36.695 53.3741 35.885 53.3741 35.885 52.9251C35.8887 52.8188 35.9326 52.718 36.0078 52.6428C36.0829 52.5677 36.1838 52.5238 36.29 52.5201C36.3964 52.5238 36.4974 52.5678 36.5726 52.6432C36.6478 52.7186 36.6915 52.8187 36.695 52.9251ZM46.21 52.9251C46.21 53.3741 45.42 53.3741 45.42 52.9251C45.42 52.7111 45.592 52.5201 45.826 52.5201C46.04 52.5201 46.21 52.7111 46.21 52.9251ZM46.21 52.9251C46.21 53.3741 45.42 53.3741 45.42 52.9251C45.42 52.7111 45.592 52.5201 45.826 52.5201C46.04 52.5201 46.21 52.7111 46.21 52.9251ZM36.695 52.9251C36.695 53.3741 35.885 53.3741 35.885 52.9251C35.8887 52.8188 35.9326 52.718 36.0078 52.6428C36.0829 52.5677 36.1838 52.5238 36.29 52.5201C36.3964 52.5238 36.4974 52.5678 36.5726 52.6432C36.6478 52.7186 36.6915 52.8187 36.695 52.9251ZM36.695 52.9251C36.695 53.3741 35.885 53.3741 35.885 52.9251C35.8887 52.8188 35.9326 52.718 36.0078 52.6428C36.0829 52.5677 36.1838 52.5238 36.29 52.5201C36.3964 52.5238 36.4974 52.5678 36.5726 52.6432C36.6478 52.7186 36.6915 52.8187 36.695 52.9251ZM46.21 52.9251C46.21 53.3741 45.42 53.3741 45.42 52.9251C45.42 52.7111 45.592 52.5201 45.826 52.5201C46.04 52.5201 46.21 52.7111 46.21 52.9251ZM46.21 52.9251C46.21 53.3741 45.42 53.3741 45.42 52.9251C45.42 52.7111 45.592 52.5201 45.826 52.5201C46.04 52.5201 46.21 52.7111 46.21 52.9251ZM36.695 52.9251C36.695 53.3741 35.885 53.3741 35.885 52.9251C35.8887 52.8188 35.9326 52.718 36.0078 52.6428C36.0829 52.5677 36.1838 52.5238 36.29 52.5201C36.3964 52.5238 36.4974 52.5678 36.5726 52.6432C36.6478 52.7186 36.6915 52.8187 36.695 52.9251ZM36.695 52.9251C36.695 53.3741 35.885 53.3741 35.885 52.9251C35.8887 52.8188 35.9326 52.718 36.0078 52.6428C36.0829 52.5677 36.1838 52.5238 36.29 52.5201C36.3964 52.5238 36.4974 52.5678 36.5726 52.6432C36.6478 52.7186 36.6915 52.8187 36.695 52.9251ZM46.21 52.9251C46.21 53.3741 45.42 53.3741 45.42 52.9251C45.42 52.7111 45.592 52.5201 45.826 52.5201C46.04 52.5201 46.21 52.7111 46.21 52.9251ZM67.972 15.0561V16.9131H8V15.0571C8 12.4331 10.133 10.3201 12.758 10.3201H63.214C65.838 10.3201 67.972 12.4321 67.972 15.0561ZM25.004 14.1401C25.004 13.5851 24.556 13.1371 24.001 13.1371H13.035C12.7691 13.1371 12.5141 13.2427 12.3261 13.4307C12.1381 13.6187 12.0325 13.8737 12.0325 14.1396C12.0325 14.4054 12.1381 14.6604 12.3261 14.8484C12.5141 15.0364 12.7691 15.1421 13.035 15.1421H24C24.555 15.1421 25.004 14.6941 25.004 14.1401ZM55.128 14.1401C55.1272 13.8573 55.0145 13.5864 54.8146 13.3865C54.6147 13.1865 54.3437 13.0739 54.061 13.0731C53.485 13.0731 52.995 13.5631 52.995 14.1401C52.995 14.7371 53.485 15.2061 54.061 15.2061C54.659 15.2061 55.128 14.7361 55.128 14.1401ZM59.544 14.1401C59.544 13.5631 59.054 13.0731 58.478 13.0731C58.1951 13.0736 57.9239 13.1861 57.7237 13.3861C57.5236 13.5861 57.4108 13.8572 57.41 14.1401C57.41 14.7371 57.88 15.2061 58.477 15.2061C58.7594 15.205 59.0299 15.0924 59.2296 14.8927C59.4293 14.693 59.5429 14.4225 59.544 14.1401ZM63.939 14.1401C63.9382 13.8575 63.8257 13.5867 63.626 13.3868C63.4262 13.1869 63.1556 13.0741 62.873 13.0731C62.5903 13.0739 62.3193 13.1865 62.1194 13.3865C61.9195 13.5864 61.8068 13.8573 61.806 14.1401C61.806 14.7371 62.276 15.2061 62.873 15.2061C63.47 15.2061 63.939 14.7361 63.939 14.1401ZM46.21 52.9251C46.21 53.3741 45.42 53.3741 45.42 52.9251C45.42 52.7111 45.592 52.5201 45.826 52.5201C46.04 52.5201 46.21 52.7111 46.21 52.9251ZM36.695 52.9251C36.695 53.3741 35.885 53.3741 35.885 52.9251C35.8887 52.8188 35.9326 52.718 36.0078 52.6428C36.0829 52.5677 36.1838 52.5238 36.29 52.5201C36.3964 52.5238 36.4974 52.5678 36.5726 52.6432C36.6478 52.7186 36.6915 52.8187 36.695 52.9251ZM36.695 52.9251C36.695 53.3741 35.885 53.3741 35.885 52.9251C35.8887 52.8188 35.9326 52.718 36.0078 52.6428C36.0829 52.5677 36.1838 52.5238 36.29 52.5201C36.3964 52.5238 36.4974 52.5678 36.5726 52.6432C36.6478 52.7186 36.6915 52.8187 36.695 52.9251ZM36.695 52.9251C36.695 53.3741 35.885 53.3741 35.885 52.9251C35.8887 52.8188 35.9326 52.718 36.0078 52.6428C36.0829 52.5677 36.1838 52.5238 36.29 52.5201C36.3964 52.5238 36.4974 52.5678 36.5726 52.6432C36.6478 52.7186 36.6915 52.8187 36.695 52.9251ZM71.599 60.5061L60.448 51.1041C59.717 50.4881 58.599 51.0081 58.599 51.9641L58.603 66.5501C58.603 67.5041 59.715 68.0251 60.449 67.4161L63.511 64.8701L65.207 68.5181C65.4315 69.0008 65.8386 69.3745 66.3386 69.5571C66.8387 69.7396 67.3908 69.7161 67.8735 69.4916C68.3562 69.2671 68.7299 68.86 68.9125 68.3599C69.0951 67.8599 69.0715 67.3078 68.847 66.8251L67.152 63.1781L71.072 62.4761C72.01 62.3081 72.328 61.1221 71.599 60.5061Z" fill="#120D02"/>
</g>
<defs>
<clipPath id="clip0_264_4264">
<rect width="64" height="64" fill="white" transform="translate(8 8)"/>
</clipPath>
</defs>
</svg>
