<svg width="40" height="40" viewBox="0 0 40 40" fill="none" xmlns="http://www.w3.org/2000/svg">
<path d="M20 0C8.954 0 0 8.954 0 20C0 31.046 8.954 40 20 40C31.046 40 40 31.046 40 20C40 8.954 31.046 0 20 0Z" fill="url(#paint0_linear_514_6360)"/>
<path d="M22.7056 25.2999H27.8816L28.6946 20.0419H22.7056V17.1679C22.7056 14.9839 23.4196 13.0469 25.4626 13.0469H28.7456V8.45894C28.1686 8.38094 26.9486 8.21094 24.6436 8.21094C19.8296 8.21094 17.0076 10.7529 17.0076 16.5449V20.0429H12.0586V25.3009H17.0066V39.7529C17.9866 39.8989 18.9796 39.9989 19.9986 39.9989C20.9196 39.9989 21.8186 39.9149 22.7056 39.7949V25.2999Z" fill="white"/>
<defs>
<linearGradient id="paint0_linear_514_6360" x1="5.993" y1="5.993" x2="36.615" y2="36.615" gradientUnits="userSpaceOnUse">
<stop stop-color="#2AA4F4"/>
<stop offset="1" stop-color="#007AD9"/>
</linearGradient>
</defs>
</svg>
