<svg width="42" height="42" viewBox="0 0 42 42" fill="none" xmlns="http://www.w3.org/2000/svg">
<g filter="url(#filter0_d_161_2560)">
<rect x="1" y="1" width="40" height="40" rx="20" fill="#120D02" fill-opacity="0.1" shape-rendering="crispEdges"/>
<path d="M23.07 22.2206C23.8838 22.6395 24.3746 23.289 24.3746 24C24.3746 24.1759 24.3431 24.3454 24.2888 24.5085L25.125 25.3447L28.4456 22.0238L28.2293 21.3754H23.8159L23.07 22.2206ZM21 18.7496C22.8608 18.7496 24.375 17.2358 24.375 15.375C24.375 13.5139 22.8611 12 21 12C19.1389 12 17.625 13.5139 17.625 15.375C17.625 17.2358 19.1389 18.7496 21 18.7496ZM19.6095 15.6405C19.5392 15.5702 19.4997 15.4748 19.4997 15.3754C19.4997 15.2759 19.5392 15.1806 19.6095 15.1102L20.0944 14.6254C20.1934 14.5264 20.25 14.3895 20.25 14.2504C20.25 13.908 20.3831 13.5862 20.625 13.3444L20.8448 13.125C21.3289 12.6416 22.1723 12.6424 22.6556 13.125L23.625 14.0944C23.8669 14.3366 24 14.658 24 14.9996C24 15.342 23.8669 15.6637 23.625 15.9056L23.4053 16.125C23.1634 16.3672 22.842 16.5 22.5 16.5C22.3583 16.5 22.2251 16.5551 22.125 16.6556L21.6405 17.1401C21.6057 17.175 21.5644 17.2027 21.5188 17.2216C21.4733 17.2405 21.4245 17.2503 21.3753 17.2503C21.326 17.2503 21.2772 17.2407 21.2316 17.2218C21.1861 17.203 21.1447 17.1753 21.1099 17.1405L20.625 16.6556L19.3905 17.8901L18.8599 17.3595L20.0944 16.125L19.6095 15.6405Z" fill="#120D02"/>
<path d="M21.0001 23.433L24.9368 18.9716C25.7832 18.0125 26.2501 16.7772 26.2497 15.498V15.375C26.2497 12.48 23.8947 10.125 21.0001 10.125C18.1051 10.125 15.7501 12.48 15.7501 15.375V15.498C15.7501 16.7783 16.2166 18.0116 17.0633 18.9716L21.0001 23.433ZM21.0001 11.25C23.2745 11.25 25.1251 13.1006 25.1251 15.375C25.1251 17.649 23.2745 19.4996 21.0001 19.4996C18.7257 19.4996 16.8751 17.649 16.8751 15.375C16.8751 13.1006 18.7257 11.25 21.0001 11.25ZM23.4695 26.9996L22.4922 26.0228C22.0441 26.1671 21.5397 26.2496 20.9997 26.2496C19.1071 26.2496 17.6247 25.2615 17.6247 23.9996C17.6247 23.289 18.1156 22.6391 18.9293 22.2206L18.1831 21.3746H13.7701L13.5537 22.0234L20.9993 29.4694L23.4695 26.9996Z" fill="#120D02"/>
<path d="M21.5944 16.1259C21.7129 16.0066 21.854 15.9119 22.0094 15.8475C22.1647 15.783 22.3314 15.7501 22.4996 15.7506C22.641 15.7506 22.7745 15.6958 22.8746 15.5949L23.0944 15.3756C23.1934 15.2769 23.25 15.1401 23.25 15.0009C23.25 14.8588 23.1949 14.7257 23.0944 14.6256L22.125 13.6562C21.9244 13.4556 21.5752 13.4559 21.375 13.6562L21.1553 13.8756C21.1059 13.9246 21.0668 13.983 21.0401 14.0473C21.0135 14.1116 20.9998 14.1806 21 14.2502C21 14.5926 20.8669 14.9143 20.625 15.1562L20.4056 15.3756L21.375 16.3453L21.5944 16.1259ZM21.2809 24.2484C21.2457 24.2883 21.2024 24.3203 21.1539 24.3422C21.1054 24.3641 21.0528 24.3754 20.9996 24.3754C20.9464 24.3754 20.8938 24.3641 20.8453 24.3422C20.7968 24.3203 20.7536 24.2883 20.7184 24.2484L19.4438 22.8039C18.7796 23.0904 18.375 23.5348 18.375 24.0002C18.375 24.8136 19.5773 25.5002 21 25.5002C22.4227 25.5002 23.625 24.8136 23.625 24.0002C23.625 23.5348 23.22 23.0901 22.5559 22.8039L21.2809 24.2484ZM31.7295 31.8756L30.7526 28.9449L30.7496 28.9468V30.3699C30.7496 30.4971 30.8273 30.6186 30.9574 30.6947C31.3069 30.8983 31.4996 31.1848 31.5 31.4994C31.5 31.6333 31.4576 31.7582 31.3924 31.8752L31.7295 31.8756ZM27.375 27.0006C27.3747 26.7826 27.407 26.5659 27.4706 26.3574C27.477 26.3368 27.4811 26.3147 27.4871 26.2937L24.9169 28.8639L27.7871 31.7338C27.7625 31.6584 27.75 31.5795 27.75 31.5002C27.7496 31.1852 27.9424 30.8987 28.293 30.6947C28.422 30.6186 28.5 30.4974 28.5 30.3696V28.9468C28.1582 28.7496 27.8743 28.466 27.6768 28.1244C27.4793 27.7827 27.3753 27.3952 27.375 27.0006Z" fill="#120D02"/>
<path d="M24.0121 28.8622C24.0121 28.7629 24.0515 28.6672 24.122 28.5971L27.7228 24.9967C27.7393 24.7927 27.7505 24.5865 27.7505 24.3746C27.7505 24.2752 27.79 24.1798 27.8603 24.1094C27.9307 24.0391 28.0261 23.9996 28.1255 23.9996H29.1058L28.712 22.8184L25.391 26.1394C25.3562 26.1742 25.3148 26.2019 25.2693 26.2208C25.2238 26.2396 25.175 26.2493 25.1257 26.2493C25.0764 26.2493 25.0276 26.2396 24.9821 26.2208C24.9366 26.2019 24.8952 26.1742 24.8604 26.1394L23.8918 25.1707C23.7001 25.3799 23.4769 25.5578 23.2303 25.698L24.2656 26.7334C24.4119 26.88 24.4119 27.1174 24.2656 27.264L21.2656 30.264C21.2308 30.2988 21.1894 30.3265 21.1438 30.3452C21.0983 30.364 21.0494 30.3736 21.0001 30.3735C20.9509 30.3736 20.9021 30.364 20.8566 30.3452C20.8111 30.3264 20.7698 30.2988 20.735 30.264L13.289 22.8184L12.992 23.7101L16.0156 26.7341C16.0682 26.7865 16.104 26.8534 16.1185 26.9262C16.1331 26.999 16.1257 27.0744 16.0973 27.143C16.0689 27.2116 16.0208 27.2702 15.9591 27.3115C15.8973 27.3527 15.8247 27.3747 15.7505 27.3746L11.7706 27.3739L11.5205 28.1242H17.2505C17.3503 28.1242 17.4455 28.1632 17.516 28.2337L20.141 30.8587C20.2873 31.0054 20.2873 31.2427 20.141 31.3894L19.6561 31.8742H20.8449L22.9854 29.7337C23.0558 29.6635 23.1512 29.6241 23.2507 29.6241C23.3502 29.6241 23.4456 29.6635 23.516 29.7337L25.6565 31.8742H26.8689L24.1224 29.1277C24.0874 29.0929 24.0597 29.0516 24.0407 29.006C24.0218 28.9604 24.0121 28.9116 24.0121 28.8622Z" fill="#120D02"/>
<path d="M30.579 31.341C30.216 31.1287 30 30.765 30 30.3682L30.0004 28.7156C30.0004 28.5671 30.0885 28.4321 30.225 28.3721C30.4923 28.2555 30.7197 28.0636 30.8796 27.8198C31.0395 27.5759 31.1249 27.2908 31.1254 26.9992C31.1254 26.8552 31.1036 26.712 31.062 26.5747C30.8844 25.9814 30.7825 25.3681 30.7586 24.7492H28.4925C28.464 25.3946 28.3624 26.007 28.1888 26.5751C28.1466 26.7123 28.1253 26.855 28.1254 26.9985C28.1256 27.2902 28.2109 27.5755 28.3709 27.8195C28.5308 28.0634 28.7584 28.2555 29.0258 28.3721C29.1623 28.4321 29.2504 28.5671 29.2504 28.716V30.3686C29.2504 30.7654 29.034 31.1284 28.6721 31.3406C28.5315 31.4224 28.5004 31.4899 28.5004 31.4985C28.5004 31.5922 28.8994 31.8739 29.6254 31.8739C30.3514 31.8739 30.7504 31.5922 30.7504 31.4989C30.7504 31.4906 30.7189 31.4224 30.579 31.341ZM11.2703 28.8742L10.2705 31.8742H18.5944L19.3448 31.1242L17.0948 28.8742H11.2703ZM12.7264 24.5059L12.0206 26.6239H14.8448L12.7264 24.5059ZM21.9056 31.8742H24.5948L23.2504 30.5295L21.9056 31.8742Z" fill="#120D02"/>
</g>
<defs>
<filter id="filter0_d_161_2560" x="0" y="0" width="42" height="42" filterUnits="userSpaceOnUse" color-interpolation-filters="sRGB">
<feFlood flood-opacity="0" result="BackgroundImageFix"/>
<feColorMatrix in="SourceAlpha" type="matrix" values="0 0 0 0 0 0 0 0 0 0 0 0 0 0 0 0 0 0 127 0" result="hardAlpha"/>
<feMorphology radius="1" operator="dilate" in="SourceAlpha" result="effect1_dropShadow_161_2560"/>
<feOffset/>
<feComposite in2="hardAlpha" operator="out"/>
<feColorMatrix type="matrix" values="0 0 0 0 0.760784 0 0 0 0 1 0 0 0 0 1 0 0 0 0.7 0"/>
<feBlend mode="normal" in2="BackgroundImageFix" result="effect1_dropShadow_161_2560"/>
<feBlend mode="normal" in="SourceGraphic" in2="effect1_dropShadow_161_2560" result="shape"/>
</filter>
</defs>
</svg>
