<svg width="48" height="48" viewBox="0 0 48 48" fill="none" xmlns="http://www.w3.org/2000/svg">
<g filter="url(#filter0_d_161_2570)">
<rect x="4" y="4" width="40" height="40" rx="20" fill="#E7B144" fill-opacity="0.1" shape-rendering="crispEdges"/>
<g clip-path="url(#clip0_161_2570)">
<path fill-rule="evenodd" clip-rule="evenodd" d="M20.1327 19.8233V16.3803C20.1327 16.2252 20.0066 16.0991 19.8514 16.0991H18.3641C18.23 15.3542 17.5794 14.787 16.7966 14.787C15.9163 14.787 15.2023 15.5019 15.2023 16.3803C15.2023 17.2592 15.9163 17.9741 16.7966 17.9741C17.5794 17.9741 18.23 17.4069 18.3641 16.662H19.5697V20.3867L20.1327 19.8233ZM23.3211 29.4959L23.2962 28.6606C23.2906 28.4928 23.1777 28.3527 23.015 28.3109C22.6236 28.2109 22.2485 28.0553 21.9012 27.8488C21.7578 27.763 21.5778 27.7831 21.4555 27.898L20.847 28.4713L19.7923 27.4156L20.3647 26.8072C20.4795 26.6848 20.4987 26.5058 20.4144 26.3614C20.2081 26.0138 20.0522 25.6386 19.9512 25.2472C19.9109 25.0845 19.7694 24.972 19.603 24.9669L18.7667 24.942V23.4491L19.603 23.4242C19.7694 23.4191 19.9109 23.3066 19.9512 23.1439C20.0522 22.7525 20.2081 22.3773 20.4144 22.0297C20.4987 21.8853 20.4795 21.7063 20.3647 21.5839L19.7923 20.9755L20.847 19.9198L21.4555 20.4931C21.5778 20.6084 21.7578 20.6281 21.9012 20.5423C22.2484 20.3358 22.6235 20.1803 23.015 20.0806C23.1758 20.0389 23.2887 19.8988 23.2944 19.7309L23.3211 18.8952H24.8141L24.8389 19.7314C24.8412 19.8123 24.8699 19.8903 24.9207 19.9534C24.9715 20.0165 25.0416 20.0611 25.1202 20.0806C25.5108 20.1806 25.8852 20.3357 26.232 20.5414C26.3755 20.6272 26.5555 20.6075 26.6778 20.4927L27.2863 19.9198L28.3428 20.9759L27.7705 21.5853C27.6556 21.7072 27.6345 21.8863 27.7208 22.0306C27.9275 22.378 28.0827 22.7525 28.182 23.143C28.2242 23.3056 28.3639 23.4181 28.5303 23.4233L29.3666 23.4491V24.9425L28.5303 24.9683C28.3639 24.9734 28.2242 25.0864 28.182 25.2486C28.0826 25.6396 27.9272 26.0143 27.7208 26.3609C27.6345 26.5048 27.6556 26.6839 27.7705 26.8058L28.3428 27.4156L27.2863 28.4717L26.6778 27.8989C26.5555 27.7841 26.3755 27.7644 26.232 27.8497C25.8849 28.0562 25.5098 28.2116 25.1183 28.3109C24.9556 28.3527 24.8445 28.4928 24.8389 28.6606L24.8141 29.4959H23.3211ZM24.0678 27.2455C25.7483 27.2455 27.1189 25.8772 27.1189 24.1948C27.1189 22.5125 25.7483 21.1442 24.0678 21.1442C22.3855 21.1442 21.0167 22.5125 21.0167 24.1948C21.0167 25.8772 22.3855 27.2455 24.0678 27.2455ZM18.193 23.9136H15.9312C15.7991 23.1687 15.1466 22.6016 14.3637 22.6016C13.4853 22.6016 12.7695 23.3164 12.7695 24.1948C12.7695 25.0738 13.4853 25.7886 14.3637 25.7886C15.1466 25.7886 15.7991 25.2214 15.9312 24.4766H18.193V23.9136ZM19.5697 28.0039V31.602H18.3641C18.23 30.8567 17.5794 30.2895 16.7966 30.2895C15.9163 30.2895 15.2023 31.0044 15.2023 31.8833C15.2023 32.7622 15.9163 33.477 16.7966 33.477C17.5794 33.477 18.23 32.9094 18.3641 32.165H19.8514C20.0066 32.165 20.1327 32.0389 20.1327 31.8838V28.5678L19.5697 28.0039ZM23.7861 30.0688V32.3305C23.0417 32.4636 22.4731 33.1161 22.4731 33.8984C22.4731 34.7773 23.1889 35.4917 24.0673 35.4917C24.9458 35.4917 25.6597 34.7769 25.6597 33.8984C25.6597 33.1156 25.093 32.4636 24.3486 32.3305V30.0688H23.7861ZM28.0123 28.5561V31.8828C28.0123 32.038 28.1384 32.1641 28.2936 32.1641H29.7711C29.9033 32.9089 30.5558 33.4761 31.3386 33.4761C32.217 33.4761 32.9309 32.7613 32.9309 31.8823C32.9309 31.0034 32.217 30.2886 31.3386 30.2886C30.5558 30.2886 29.9033 30.8558 29.7711 31.6011H28.5753V27.9931L28.0123 28.5561ZM29.9403 24.4761H32.202C32.3361 25.2209 32.9886 25.7881 33.7695 25.7881C34.6498 25.7881 35.3638 25.0733 35.3638 24.1944C35.3638 23.3159 34.6498 22.6011 33.7695 22.6011C32.9886 22.6011 32.3361 23.1683 32.202 23.9131H29.9403V24.4761ZM28.5753 20.3966V16.6616H29.7716C29.9037 17.4064 30.5562 17.9736 31.3391 17.9736C32.2175 17.9736 32.9314 17.2587 32.9314 16.3798C32.9314 15.5014 32.2175 14.7866 31.3391 14.7866C30.5562 14.7866 29.9037 15.3537 29.7716 16.0986H28.2941C28.1389 16.0986 28.0128 16.2247 28.0128 16.3798V19.8336L28.5753 20.3966ZM24.3491 18.3214V16.0597C25.0934 15.9266 25.6602 15.2745 25.6602 14.4917C25.6602 13.6128 24.9462 12.8984 24.0678 12.8984C23.1894 12.8984 22.4736 13.6133 22.4736 14.4917C22.4736 15.2745 23.0422 15.9266 23.7866 16.0597V18.3214H24.3491ZM24.8141 25.3236L23.9319 22.8758C23.9123 22.8213 23.8764 22.7743 23.8291 22.7411C23.7818 22.7078 23.7253 22.69 23.6675 22.6902C23.5489 22.6902 23.4434 22.7642 23.4036 22.8758L22.5214 25.3236C22.4698 25.4698 22.5444 25.6306 22.6897 25.6836C22.7601 25.7089 22.8377 25.7053 22.9055 25.6736C22.9733 25.6419 23.0258 25.5846 23.0516 25.5144L23.157 25.2209H24.1789L24.2844 25.5144C24.3266 25.6292 24.4334 25.7005 24.5483 25.7005C24.5806 25.7005 24.6134 25.6953 24.6439 25.6836C24.7911 25.6306 24.8656 25.4698 24.8141 25.3236ZM23.3595 24.658H23.9759L23.668 23.8011L23.3595 24.658ZM25.0667 22.9709V25.4188C25.0667 25.5744 25.1928 25.7 25.348 25.7C25.5031 25.7 25.6292 25.5744 25.6292 25.4188V22.9709C25.6292 22.8158 25.5031 22.6897 25.348 22.6897C25.1933 22.6902 25.0667 22.8158 25.0667 22.9709Z" fill="#E7B144"/>
</g>
</g>
<defs>
<filter id="filter0_d_161_2570" x="0" y="0" width="48" height="48" filterUnits="userSpaceOnUse" color-interpolation-filters="sRGB">
<feFlood flood-opacity="0" result="BackgroundImageFix"/>
<feColorMatrix in="SourceAlpha" type="matrix" values="0 0 0 0 0 0 0 0 0 0 0 0 0 0 0 0 0 0 127 0" result="hardAlpha"/>
<feMorphology radius="4" operator="dilate" in="SourceAlpha" result="effect1_dropShadow_161_2570"/>
<feOffset/>
<feComposite in2="hardAlpha" operator="out"/>
<feColorMatrix type="matrix" values="0 0 0 0 0.760784 0 0 0 0 1 0 0 0 0 1 0 0 0 0.3 0"/>
<feBlend mode="normal" in2="BackgroundImageFix" result="effect1_dropShadow_161_2570"/>
<feBlend mode="normal" in="SourceGraphic" in2="effect1_dropShadow_161_2570" result="shape"/>
</filter>
<clipPath id="clip0_161_2570">
<rect width="24" height="24" fill="white" transform="translate(12 12)"/>
</clipPath>
</defs>
</svg>
