<svg width="48" height="48" viewBox="0 0 48 48" fill="none" xmlns="http://www.w3.org/2000/svg">
<g filter="url(#filter0_d_161_2589)">
<rect x="4" y="4" width="40" height="40" rx="20" fill="#E7B144" fill-opacity="0.1" shape-rendering="crispEdges"/>
<path fill-rule="evenodd" clip-rule="evenodd" d="M22.6801 18.2784C22.7874 18.2784 22.8849 18.3384 22.9327 18.4336L24.3587 21.2859C24.4276 21.4247 24.3723 21.5939 24.2321 21.6633C24.1918 21.6834 24.1496 21.6928 24.1079 21.6928C24.0043 21.6928 23.9049 21.6361 23.8552 21.5372L23.363 20.5547H21.9962L21.5063 21.5372C21.4374 21.6764 21.2673 21.7327 21.1295 21.6633C20.9898 21.5939 20.934 21.4252 21.0029 21.2859L22.4288 18.4336C22.4523 18.3871 22.4882 18.348 22.5326 18.3206C22.5769 18.2932 22.628 18.2786 22.6801 18.2784ZM28.0576 33.3113C28.0576 32.8106 27.6976 32.34 27.0451 31.9861C26.9091 31.912 26.7371 31.9631 26.664 32.0995C26.5895 32.2359 26.641 32.4066 26.777 32.4806C27.2401 32.7314 27.4946 33.0267 27.4946 33.3113C27.4946 33.9806 26.0495 34.7264 23.9724 34.7264C21.8973 34.7264 20.4521 33.9806 20.4521 33.3113C20.4521 33.0272 20.7066 32.7323 21.1679 32.482C21.3038 32.408 21.3554 32.2373 21.2809 32.1009C21.2063 31.9641 21.0357 31.9139 20.8998 31.988C20.2468 32.3419 19.8891 32.8116 19.8891 33.3117C19.8891 33.8822 20.3429 34.3997 21.1698 34.7681C21.9221 35.1042 22.9196 35.2894 23.9724 35.2894C25.0271 35.2894 26.0246 35.1042 26.777 34.7681C27.6038 34.3992 28.0576 33.8817 28.0576 33.3113ZM19.4316 19.9856C19.4316 22.4897 21.4684 24.5273 23.9724 24.5273C26.4784 24.5273 28.5151 22.4902 28.5151 19.9856C28.5151 17.4816 26.4784 15.4444 23.9724 15.4444C21.4684 15.4444 19.4316 17.4816 19.4316 19.9856ZM25.6702 30.6595C27.414 27.3984 30.6568 21.3286 30.6568 19.9856C30.6568 16.2998 27.6591 13.3008 23.972 13.3008C20.2871 13.3008 17.2871 16.2994 17.2871 19.9856C17.2871 21.4369 20.4455 27.2845 22.1438 30.4266C22.636 31.3388 23.0607 32.1263 23.3152 32.6269C23.4455 32.8828 23.6846 33.03 23.972 33.03C24.2612 33.03 24.5002 32.8828 24.6305 32.6269C24.849 32.1952 25.2109 31.5178 25.6702 30.6595ZM23.0823 19.9922L22.6801 19.1883L22.2779 19.9922H23.0823ZM25.2723 18.8409H25.9787C26.2159 18.8409 26.4113 19.0345 26.4113 19.2727C26.4113 19.5108 26.2159 19.7044 25.9787 19.7044H25.2723V18.8409ZM23.9724 16.0069C21.7787 16.0069 19.9946 17.7919 19.9946 19.9856C19.9946 22.1798 21.7787 23.9648 23.9724 23.9648C26.168 23.9648 27.9521 22.1798 27.9521 19.9856C27.9521 17.7914 26.168 16.0069 23.9724 16.0069ZM24.9905 18.278H25.9782C26.5257 18.278 26.972 18.7242 26.972 19.2722C26.972 19.7067 26.6926 20.0761 26.304 20.2111L26.934 21.2672C27.0123 21.4008 26.9682 21.5733 26.8365 21.6525C26.7905 21.6797 26.7409 21.6923 26.693 21.6923C26.5974 21.6923 26.5037 21.6431 26.4498 21.555L25.682 20.2659H25.2723V21.4111C25.2723 21.5662 25.1457 21.6923 24.991 21.6923C24.8359 21.6923 24.7098 21.5662 24.7098 21.4111V18.5588C24.7093 18.4041 24.8359 18.278 24.9905 18.278Z" fill="#E7B144"/>
</g>
<defs>
<filter id="filter0_d_161_2589" x="0" y="0" width="48" height="48" filterUnits="userSpaceOnUse" color-interpolation-filters="sRGB">
<feFlood flood-opacity="0" result="BackgroundImageFix"/>
<feColorMatrix in="SourceAlpha" type="matrix" values="0 0 0 0 0 0 0 0 0 0 0 0 0 0 0 0 0 0 127 0" result="hardAlpha"/>
<feMorphology radius="4" operator="dilate" in="SourceAlpha" result="effect1_dropShadow_161_2589"/>
<feOffset/>
<feComposite in2="hardAlpha" operator="out"/>
<feColorMatrix type="matrix" values="0 0 0 0 0.760784 0 0 0 0 1 0 0 0 0 1 0 0 0 0.3 0"/>
<feBlend mode="normal" in2="BackgroundImageFix" result="effect1_dropShadow_161_2589"/>
<feBlend mode="normal" in="SourceGraphic" in2="effect1_dropShadow_161_2589" result="shape"/>
</filter>
</defs>
</svg>
