<svg width="48" height="48" viewBox="0 0 48 48" fill="none" xmlns="http://www.w3.org/2000/svg">
<g filter="url(#filter0_d_161_2625)">
<rect x="4" y="4" width="40" height="40" rx="20" fill="#E7B144" fill-opacity="0.1" shape-rendering="crispEdges"/>
<path d="M17.25 24C17.25 20.4039 20.0768 17.4559 23.625 17.2606V13.5H22.125V15.6722C22.125 15.7546 22.0978 15.8348 22.0477 15.9002C21.9976 15.9657 21.9272 16.0128 21.8476 16.0343C21.2066 16.2071 20.5889 16.4573 20.0081 16.7792C19.9369 16.8187 19.8548 16.8339 19.7741 16.8226C19.6935 16.8113 19.6187 16.774 19.5611 16.7165L18 15.1553L15.1553 18L16.7164 19.5611C16.774 19.6187 16.8112 19.6934 16.8226 19.7741C16.8339 19.8548 16.8186 19.9369 16.7791 20.0081C16.4573 20.5889 16.2071 21.2066 16.0342 21.8476C16.0127 21.9272 15.9657 21.9975 15.9002 22.0477C15.8348 22.0978 15.7546 22.125 15.6722 22.125H13.875V25.875H15.6722C15.7546 25.875 15.8348 25.9022 15.9002 25.9523C15.9657 26.0024 16.0128 26.0728 16.0343 26.1524C16.2072 26.7934 16.4573 27.4111 16.7792 27.9919C16.8187 28.0631 16.8339 28.1452 16.8226 28.2259C16.8113 28.3066 16.774 28.3813 16.7164 28.4389L15.1553 30L18 32.8447L19.5611 31.2835C19.6187 31.2259 19.6934 31.1886 19.7741 31.1773C19.8548 31.166 19.9369 31.1812 20.0081 31.2208C20.5889 31.5426 21.2066 31.7928 21.8476 31.9657C21.9272 31.9872 21.9976 32.0343 22.0477 32.0998C22.0978 32.1652 22.125 32.2454 22.125 32.3278V34.5H23.625V30.7394C20.0768 30.5441 17.25 27.5961 17.25 24Z" fill="#E7B144"/>
<path d="M24 18C20.6916 18 18 20.6916 18 24C18 27.3084 20.6916 30 24 30C27.3084 30 30 27.3084 30 24C30 20.6916 27.3084 18 24 18ZM24 29.25C21.1051 29.25 18.75 26.8949 18.75 24C18.75 21.1051 21.1051 18.75 24 18.75C26.8949 18.75 29.25 21.1051 29.25 24C29.25 26.8949 26.8949 29.25 24 29.25Z" fill="#E7B144"/>
<path d="M22.5918 24.3746H23.1588L22.8753 23.4297L22.5918 24.3746Z" fill="#E7B144"/>
<path d="M34.125 24.375C34.3321 24.375 34.5 24.2071 34.5 24C34.5 23.7929 34.3321 23.625 34.125 23.625C33.9179 23.625 33.75 23.7929 33.75 24C33.75 24.2071 33.9179 24.375 34.125 24.375Z" fill="#E7B144"/>
<path d="M26.25 34.5C26.4571 34.5 26.625 34.3321 26.625 34.125C26.625 33.9179 26.4571 33.75 26.25 33.75C26.0429 33.75 25.875 33.9179 25.875 34.125C25.875 34.3321 26.0429 34.5 26.25 34.5Z" fill="#E7B144"/>
<path d="M34.125 28.125C34.3321 28.125 34.5 27.9571 34.5 27.75C34.5 27.5429 34.3321 27.375 34.125 27.375C33.9179 27.375 33.75 27.5429 33.75 27.75C33.75 27.9571 33.9179 28.125 34.125 28.125Z" fill="#E7B144"/>
<path d="M24 19.5C21.5187 19.5 19.5 21.5187 19.5 24C19.5 26.4813 21.5187 28.5 24 28.5C26.4813 28.5 28.5 26.4813 28.5 24C28.5 21.5187 26.4813 19.5 24 19.5ZM24.1078 26.2342C24.0125 26.2627 23.9098 26.2523 23.8222 26.2051C23.7347 26.158 23.6694 26.078 23.6408 25.9828L23.3835 25.125H22.3665L22.1092 25.9828C22.0803 26.0777 22.015 26.1574 21.9276 26.2043C21.8401 26.2512 21.7376 26.2615 21.6426 26.233C21.5475 26.2045 21.4676 26.1394 21.4204 26.0521C21.3733 25.9648 21.3626 25.8624 21.3908 25.7672L22.5158 22.0172C22.539 21.94 22.5864 21.8722 22.6511 21.8241C22.7158 21.7759 22.7943 21.7499 22.875 21.7499C22.9557 21.7499 23.0342 21.7759 23.0989 21.8241C23.1636 21.8722 23.211 21.94 23.2342 22.0172L24.3592 25.7672C24.3734 25.8144 24.3781 25.8639 24.3731 25.9129C24.3681 25.9619 24.3536 26.0094 24.3302 26.0528C24.3069 26.0962 24.2752 26.1345 24.237 26.1656C24.1989 26.1968 24.1549 26.2201 24.1078 26.2342ZM25.875 25.875C25.875 25.9745 25.8355 26.0698 25.7652 26.1402C25.6948 26.2105 25.5995 26.25 25.5 26.25C25.4005 26.25 25.3052 26.2105 25.2348 26.1402C25.1645 26.0698 25.125 25.9745 25.125 25.875V22.125C25.125 22.0255 25.1645 21.9302 25.2348 21.8598C25.3052 21.7895 25.4005 21.75 25.5 21.75C25.5995 21.75 25.6948 21.7895 25.7652 21.8598C25.8355 21.9302 25.875 22.0255 25.875 22.125V25.875Z" fill="#E7B144"/>
<path d="M34.125 20.625C34.3321 20.625 34.5 20.4571 34.5 20.25C34.5 20.0429 34.3321 19.875 34.125 19.875C33.9179 19.875 33.75 20.0429 33.75 20.25C33.75 20.4571 33.9179 20.625 34.125 20.625Z" fill="#E7B144"/>
<path d="M30 14.25C30.2071 14.25 30.375 14.0821 30.375 13.875C30.375 13.6679 30.2071 13.5 30 13.5C29.7929 13.5 29.625 13.6679 29.625 13.875C29.625 14.0821 29.7929 14.25 30 14.25Z" fill="#E7B144"/>
<path d="M26.25 14.25C26.4571 14.25 26.625 14.0821 26.625 13.875C26.625 13.6679 26.4571 13.5 26.25 13.5C26.0429 13.5 25.875 13.6679 25.875 13.875C25.875 14.0821 26.0429 14.25 26.25 14.25Z" fill="#E7B144"/>
<path d="M30 34.5C30.2071 34.5 30.375 34.3321 30.375 34.125C30.375 33.9179 30.2071 33.75 30 33.75C29.7929 33.75 29.625 33.9179 29.625 34.125C29.625 34.3321 29.7929 34.5 30 34.5Z" fill="#E7B144"/>
<path d="M30.375 31.8752V33.0649C30.2578 33.0227 30.1312 33.0002 30 33.0002C29.8688 33.0002 29.7422 33.0227 29.625 33.0649V32.1068L28.3322 31.4609C28.2699 31.4296 28.2176 31.3817 28.181 31.3224C28.1444 31.2632 28.125 31.1949 28.125 31.1252V29.3398C28.3912 29.1335 28.642 28.9076 28.875 28.6648V30.8937L30.1678 31.5396C30.2301 31.5708 30.2824 31.6188 30.319 31.678C30.3556 31.7373 30.375 31.8056 30.375 31.8752ZM26.625 30.2191V33.0649C26.5078 33.0227 26.3813 33.0002 26.25 33.0002C26.1188 33.0002 25.9922 33.0227 25.875 33.0649V30.4854C26.1314 30.4109 26.3817 30.3218 26.625 30.2191ZM30.375 14.9355V16.1252C30.375 16.2673 30.2948 16.3971 30.1678 16.4609L28.875 17.1068V19.3357C28.642 19.0929 28.3912 18.867 28.125 18.6607V16.8752C28.125 16.7332 28.2052 16.6034 28.3322 16.5396L29.625 15.8937V14.9355C29.7422 14.9777 29.8688 15.0002 30 15.0002C30.1312 15.0002 30.2578 14.9777 30.375 14.9355ZM33 27.7502C33 27.8815 33.0225 28.008 33.0647 28.1252H31.875C31.8053 28.1252 31.7371 28.1059 31.6778 28.0693C31.6185 28.0327 31.5706 27.9803 31.5394 27.918L30.8934 26.6252H30.2189C30.3216 26.382 30.4106 26.1316 30.4852 25.8752H31.125C31.267 25.8752 31.3969 25.9554 31.4606 26.0824L32.1066 27.3752H33.0647C33.0225 27.4924 33 27.619 33 27.7502ZM33 20.2502C33 20.3815 33.0225 20.508 33.0647 20.6252H32.1066L31.4606 21.918C31.4294 21.9803 31.3815 22.0327 31.3222 22.0693C31.2629 22.1059 31.1947 22.1252 31.125 22.1252H30.4852C30.4106 21.8688 30.3216 21.6185 30.2189 21.3752H30.8934L31.5394 20.0824C31.5706 20.0202 31.6185 19.9678 31.6778 19.9312C31.7371 19.8946 31.8053 19.8752 31.875 19.8752H33.0647C33.0225 19.9924 33 20.119 33 20.2502ZM33 24.0002C33 24.1315 33.0225 24.258 33.0647 24.3752H30.7397C30.7467 24.251 30.75 24.1259 30.75 24.0002C30.75 23.8746 30.7467 23.7495 30.7397 23.6252H33.0647C33.0225 23.7424 33 23.869 33 24.0002ZM26.625 14.9355V17.7813C26.3817 17.6787 26.1314 17.5896 25.875 17.5151V14.9355C25.9922 14.9777 26.1188 15.0002 26.25 15.0002C26.3813 15.0002 26.5078 14.9777 26.625 14.9355Z" fill="#E7B144"/>
</g>
<defs>
<filter id="filter0_d_161_2625" x="0" y="0" width="48" height="48" filterUnits="userSpaceOnUse" color-interpolation-filters="sRGB">
<feFlood flood-opacity="0" result="BackgroundImageFix"/>
<feColorMatrix in="SourceAlpha" type="matrix" values="0 0 0 0 0 0 0 0 0 0 0 0 0 0 0 0 0 0 127 0" result="hardAlpha"/>
<feMorphology radius="4" operator="dilate" in="SourceAlpha" result="effect1_dropShadow_161_2625"/>
<feOffset/>
<feComposite in2="hardAlpha" operator="out"/>
<feColorMatrix type="matrix" values="0 0 0 0 0.760784 0 0 0 0 1 0 0 0 0 1 0 0 0 0.3 0"/>
<feBlend mode="normal" in2="BackgroundImageFix" result="effect1_dropShadow_161_2625"/>
<feBlend mode="normal" in="SourceGraphic" in2="effect1_dropShadow_161_2625" result="shape"/>
</filter>
</defs>
</svg>
