<svg width="48" height="48" viewBox="0 0 48 48" fill="none" xmlns="http://www.w3.org/2000/svg">
<g filter="url(#filter0_d_264_4140)">
<rect x="4" y="4" width="40" height="40" rx="20" fill="#E7B144" fill-opacity="0.1" shape-rendering="crispEdges"/>
<g clip-path="url(#clip0_264_4140)">
<path d="M26.475 21.675L24.6225 23.0625C24.4425 22.9425 24.2287 22.875 24 22.875C23.3813 22.875 22.875 23.3813 22.875 24C22.875 24.6188 23.3813 25.125 24 25.125C24.6187 25.125 25.125 24.6188 25.125 24C25.125 23.8838 25.1025 23.7713 25.0687 23.6663L26.925 22.275C27.09 22.1513 27.1238 21.915 27 21.75C26.8762 21.585 26.64 21.5513 26.475 21.675Z" fill="#E7B144"/>
<path d="M34.3611 20.8088L32.7748 20.52C32.6436 20.4975 32.5761 20.4075 32.5461 20.3588C32.5161 20.31 32.4786 20.205 32.5273 20.0775L33.2436 18.2175C33.3973 17.82 33.3036 17.3663 32.9998 17.0662L30.9298 14.9962C30.7823 14.8482 30.5949 14.7464 30.3905 14.7031C30.186 14.6598 29.9734 14.677 29.7786 14.7525L27.9186 15.4688C27.7911 15.5175 27.6898 15.4762 27.6373 15.45C27.5951 15.4264 27.5586 15.3935 27.5307 15.354C27.5028 15.3144 27.4841 15.269 27.4761 15.2213L27.1873 13.6387C27.1423 13.3899 27.0115 13.1646 26.8176 13.0023C26.6237 12.8399 26.379 12.7506 26.1261 12.75H21.8661C21.3448 12.75 20.8986 13.125 20.8048 13.6387L20.5161 15.2213C20.4936 15.3525 20.4036 15.42 20.3548 15.45C20.3061 15.48 20.2011 15.5175 20.0736 15.4688L18.2136 14.7525C18.0188 14.6767 17.8061 14.6594 17.6016 14.7027C17.3971 14.746 17.2097 14.848 17.0623 14.9962L14.9923 17.0662C14.6923 17.3663 14.5948 17.82 14.7486 18.2175L15.4648 20.0775C15.5136 20.205 15.4723 20.3063 15.4461 20.3588C15.4161 20.4075 15.3523 20.4975 15.2173 20.52L13.6348 20.8088C13.386 20.8538 13.1607 20.9846 12.9984 21.1785C12.836 21.3724 12.7467 21.6171 12.7461 21.87V26.13C12.7461 26.6512 13.1211 27.0975 13.6348 27.1912L15.2211 27.48C15.3523 27.5025 15.4198 27.5925 15.4498 27.6412C15.4798 27.69 15.5173 27.795 15.4686 27.9225L14.7523 29.7825C14.5986 30.18 14.6923 30.6338 14.9961 30.9338L17.0661 33.0037C17.2136 33.1518 17.401 33.2536 17.6055 33.2969C17.8099 33.3402 18.0225 33.323 18.2173 33.2475L20.0773 32.5312C20.2048 32.4825 20.3061 32.5238 20.3586 32.55C20.4073 32.58 20.4973 32.6437 20.5198 32.7787L20.8086 34.3612C20.8536 34.6101 20.9844 34.8354 21.1783 34.9977C21.3722 35.1601 21.6169 35.2494 21.8698 35.25H26.1298C26.6511 35.25 27.0973 34.875 27.1911 34.3612L27.4798 32.775C27.5023 32.6438 27.5923 32.5763 27.6411 32.5462C27.6898 32.5163 27.7948 32.4788 27.9223 32.5275L29.7823 33.2438C30.1798 33.3975 30.6336 33.3037 30.9336 33L33.0036 30.93C33.3036 30.63 33.4011 30.1763 33.2473 29.7787L32.5311 27.9188C32.5137 27.8733 32.5063 27.8246 32.5096 27.7761C32.5128 27.7275 32.5266 27.6802 32.5498 27.6375C32.5798 27.5887 32.6436 27.4987 32.7786 27.4762L34.3611 27.1875C34.61 27.1425 34.8352 27.0117 34.9976 26.8178C35.16 26.6239 35.2492 26.3792 35.2498 26.1262V21.8663C35.2498 21.345 34.8748 20.8988 34.3611 20.805V20.8088ZM31.4061 25.125C31.1456 26.8436 30.2943 28.4176 28.9986 29.5763C28.9573 29.6138 28.9161 29.655 28.8748 29.6887C28.7623 29.7862 28.6423 29.8762 28.5261 29.9662C28.4586 30.0187 28.3911 30.0675 28.3236 30.1163C28.2148 30.195 28.1023 30.2663 27.9898 30.3375C27.9036 30.39 27.8173 30.4462 27.7311 30.495C27.5262 30.6133 27.3159 30.7221 27.1011 30.8212C26.9961 30.87 26.8948 30.915 26.7861 30.9562C26.6698 31.0012 26.5536 31.0462 26.4336 31.0837C26.3323 31.1175 26.2311 31.155 26.1298 31.185C25.9986 31.2225 25.8636 31.2563 25.7323 31.2863C25.6386 31.3088 25.5411 31.335 25.4473 31.3538C25.2936 31.3838 25.1361 31.4062 24.9786 31.425C24.8961 31.4362 24.8173 31.4513 24.7348 31.4587C24.4948 31.4812 24.2511 31.4963 24.0036 31.4963C23.7561 31.4963 23.5123 31.4812 23.2723 31.4587C23.1898 31.4513 23.1111 31.4362 23.0286 31.425C22.8711 31.4062 22.7136 31.3838 22.5598 31.3538C22.4623 31.335 22.3686 31.3088 22.2748 31.2863C22.1398 31.2563 22.0086 31.2225 21.8773 31.185C21.7761 31.155 21.6748 31.1175 21.5736 31.0837C21.4536 31.0425 21.3373 31.0012 21.2211 30.9562C21.1161 30.915 21.0111 30.8662 20.9061 30.8212C20.8011 30.7725 20.6998 30.7238 20.5986 30.6712C20.4898 30.615 20.3811 30.5588 20.2761 30.495L20.0173 30.3375C19.9048 30.2663 19.7923 30.195 19.6836 30.1163C19.6161 30.0675 19.5486 30.015 19.4811 29.9662C19.3611 29.8762 19.2448 29.7862 19.1323 29.6887L19.0086 29.5763C17.7129 28.4176 16.8616 26.8436 16.6011 25.125C16.5448 24.7575 16.5073 24.3825 16.5073 24C16.5073 19.8637 19.8711 16.5 24.0073 16.5C28.1436 16.5 31.5073 19.8637 31.5073 24C31.5073 24.3825 31.4698 24.7575 31.4136 25.125H31.4061Z" fill="#E7B144"/>
<path d="M17.25 24.0005C17.25 24.383 17.2913 24.758 17.3513 25.1255H18.6112C18.84 25.1255 19.0275 24.923 19.0275 24.6755C19.0275 24.398 19.0537 24.1317 19.0912 23.8655L17.31 23.1792C17.2762 23.4492 17.2538 23.723 17.2538 24.0042L17.25 24.0005ZM17.4413 22.4255L19.2375 23.1192C19.365 22.6542 19.5563 22.2192 19.7888 21.8142L18.195 20.5842C17.8613 21.1505 17.6025 21.7692 17.445 22.4255H17.4413ZM18.6075 19.958L20.2087 21.1917C20.55 20.753 20.955 20.3742 21.4088 20.0705L20.5013 18.2367C19.7663 18.6867 19.1213 19.2717 18.6075 19.958ZM23.625 17.2617C22.7513 17.3105 21.9188 17.528 21.165 17.8805L22.0688 19.7105C22.5525 19.4855 23.0775 19.3467 23.625 19.298V17.2617ZM26.835 17.8842C26.0612 17.5257 25.2265 17.3171 24.375 17.2692V19.2942C24.9225 19.3392 25.4475 19.4855 25.9313 19.7105L26.835 17.8842ZM27.495 18.2405L26.5912 20.0742C27.045 20.3742 27.45 20.7567 27.795 21.1917L29.3962 19.9542C28.8787 19.268 28.2338 18.6867 27.4988 18.2367L27.495 18.2405ZM29.8125 20.5805L28.215 21.8142C28.4213 22.1667 28.5863 22.5492 28.7137 22.9542L30.5212 22.2567C30.3636 21.6685 30.1264 21.1046 29.8162 20.5805H29.8125ZM28.8862 23.6892C28.9425 24.008 28.9725 24.338 28.9725 24.6755C28.9725 24.923 29.1562 25.1255 29.3888 25.1255H30.6488C30.7125 24.758 30.75 24.383 30.75 24.0005C30.75 23.6592 30.7238 23.3255 30.6713 22.9992L28.8862 23.6892Z" fill="#E7B144"/>
</g>
</g>
<defs>
<filter id="filter0_d_264_4140" x="0" y="0" width="48" height="48" filterUnits="userSpaceOnUse" color-interpolation-filters="sRGB">
<feFlood flood-opacity="0" result="BackgroundImageFix"/>
<feColorMatrix in="SourceAlpha" type="matrix" values="0 0 0 0 0 0 0 0 0 0 0 0 0 0 0 0 0 0 127 0" result="hardAlpha"/>
<feMorphology radius="4" operator="dilate" in="SourceAlpha" result="effect1_dropShadow_264_4140"/>
<feOffset/>
<feComposite in2="hardAlpha" operator="out"/>
<feColorMatrix type="matrix" values="0 0 0 0 0.760784 0 0 0 0 1 0 0 0 0 1 0 0 0 0.3 0"/>
<feBlend mode="normal" in2="BackgroundImageFix" result="effect1_dropShadow_264_4140"/>
<feBlend mode="normal" in="SourceGraphic" in2="effect1_dropShadow_264_4140" result="shape"/>
</filter>
<clipPath id="clip0_264_4140">
<rect width="24" height="24" fill="white" transform="translate(12 12)"/>
</clipPath>
</defs>
</svg>
