<svg width="48" height="48" viewBox="0 0 48 48" fill="none" xmlns="http://www.w3.org/2000/svg">
<g filter="url(#filter0_d_264_4134)">
<rect x="4" y="4" width="40" height="40" rx="20" fill="#E7B144" fill-opacity="0.1" shape-rendering="crispEdges"/>
<path fill-rule="evenodd" clip-rule="evenodd" d="M33.3583 32.9469C33.3583 34.2191 32.3739 35.2508 31.1552 35.2508H16.8447C15.6283 35.2508 14.6416 34.2196 14.6416 32.9469C14.6416 31.6743 15.626 30.643 16.8447 30.643C17.1932 30.645 17.5362 30.731 17.8444 30.8936C18.1527 31.0562 18.4172 31.2907 18.6157 31.5772C19.0011 31.338 19.4641 31.257 19.9079 31.3512C20.3516 31.4454 20.7418 31.7074 20.9969 32.0826C21.1986 31.9863 21.4185 31.9344 21.642 31.9304C21.8654 31.9263 22.0871 31.9701 22.2921 32.059C22.4971 32.1478 22.6808 32.2796 22.8306 32.4454C22.9804 32.6111 23.093 32.8071 23.1607 33.0201V28.2116H24.8439V33.0046C24.9134 32.7939 25.0269 32.6005 25.1769 32.4371C25.3269 32.2737 25.51 32.144 25.7139 32.0568C25.9179 31.9696 26.1381 31.9268 26.3598 31.9312C26.5816 31.9357 26.7999 31.9873 27.0002 32.0826C27.2553 31.7074 27.6455 31.4454 28.0892 31.3512C28.533 31.257 28.996 31.338 29.3814 31.5772C29.5799 31.2907 29.8444 31.0562 30.1527 30.8936C30.461 30.731 30.8039 30.645 31.1524 30.643C32.3721 30.643 33.3583 31.6743 33.3583 32.9469ZM22.7289 26.7515L22.4271 27.4354C22.4122 27.4687 22.4059 27.5052 22.4088 27.5416C22.4116 27.5779 22.4236 27.613 22.4435 27.6436C22.4634 27.6742 22.4906 27.6993 22.5227 27.7166C22.5548 27.734 22.5907 27.743 22.6272 27.7429H25.3793C25.4157 27.7429 25.4517 27.7339 25.4838 27.7166C25.5159 27.6992 25.5431 27.6741 25.563 27.6436C25.583 27.613 25.595 27.578 25.5979 27.5416C25.6008 27.5053 25.5946 27.4687 25.5799 27.4354L25.2775 26.7515H22.7289ZM25.7561 14.6774C25.4103 14.0529 24.9848 13.4759 24.4905 12.9608C24.4277 12.8943 24.352 12.8412 24.2679 12.805C24.1839 12.7687 24.0934 12.75 24.0018 12.75C23.9103 12.75 23.8198 12.7687 23.7357 12.805C23.6517 12.8412 23.576 12.8943 23.5132 12.9608C23.019 13.476 22.5936 14.053 22.2475 14.6774C22.7775 14.9925 23.3837 15.1564 24.0002 15.1513C24.6129 15.1513 25.2344 15.0004 25.7561 14.6774ZM22.5939 26.2827C21.3555 21.9974 20.5568 18.2249 22.0371 15.0941C22.6328 15.4438 23.3122 15.6255 24.003 15.6201C24.6938 15.6255 25.3732 15.4438 25.9689 15.0941C27.4493 18.2249 26.6505 21.9974 25.4135 26.2827H22.5939ZM22.3258 19.6841C22.3259 20.0726 22.4606 20.449 22.707 20.7493C22.9535 21.0495 23.2964 21.2551 23.6774 21.3308C24.0584 21.4066 24.4539 21.3479 24.7965 21.1647C25.1391 20.9816 25.4075 20.6853 25.5562 20.3264C25.7048 19.9675 25.7244 19.5682 25.6116 19.1965C25.4988 18.8248 25.2606 18.5036 24.9376 18.2878C24.6146 18.072 24.2268 17.9749 23.8402 18.013C23.4536 18.0511 23.0922 18.2221 22.8175 18.4968C22.6612 18.6524 22.5371 18.8375 22.4525 19.0412C22.3678 19.245 22.3243 19.4635 22.3244 19.6841H22.3258ZM24.0049 20.8944C24.2848 20.8943 24.556 20.7972 24.7723 20.6196C24.9886 20.442 25.1366 20.1948 25.1911 19.9203C25.2456 19.6458 25.2033 19.3609 25.0713 19.114C24.9393 18.8672 24.7259 18.6738 24.4673 18.5668C24.2087 18.4597 23.9209 18.4456 23.6531 18.5269C23.3853 18.6082 23.1539 18.7798 22.9985 19.0125C22.843 19.2452 22.773 19.5247 22.8004 19.8032C22.8279 20.0817 22.951 20.3421 23.1489 20.5401C23.2611 20.6525 23.3942 20.7416 23.5409 20.8024C23.6875 20.8632 23.8447 20.8945 24.0035 20.8944H24.0049ZM20.5314 27.6412C20.9845 27.124 21.5238 26.6891 22.1252 26.3558C21.8632 25.4507 21.6096 24.5277 21.3897 23.5982C20.2521 24.8718 19.8639 26.0287 19.796 27.3421C19.7924 27.4289 19.8157 27.5146 19.8627 27.5877C19.9097 27.6607 19.9781 27.7174 20.0586 27.7501C20.139 27.7829 20.2276 27.7899 20.3123 27.7704C20.3969 27.7509 20.4734 27.7058 20.5314 27.6412ZM25.8799 26.3587C26.4795 26.6915 27.017 27.1254 27.4689 27.6412C27.5268 27.7067 27.6035 27.7527 27.6886 27.7727C27.7736 27.7928 27.8628 27.7859 27.9438 27.7531C28.0248 27.7203 28.0936 27.6631 28.1407 27.5895C28.1878 27.5158 28.2109 27.4294 28.2068 27.3421C28.1374 26.0296 27.7502 24.8751 26.6163 23.6038C26.3969 24.5324 26.1419 25.4535 25.8799 26.3587Z" fill="#E7B144"/>
</g>
<defs>
<filter id="filter0_d_264_4134" x="0" y="0" width="48" height="48" filterUnits="userSpaceOnUse" color-interpolation-filters="sRGB">
<feFlood flood-opacity="0" result="BackgroundImageFix"/>
<feColorMatrix in="SourceAlpha" type="matrix" values="0 0 0 0 0 0 0 0 0 0 0 0 0 0 0 0 0 0 127 0" result="hardAlpha"/>
<feMorphology radius="4" operator="dilate" in="SourceAlpha" result="effect1_dropShadow_264_4134"/>
<feOffset/>
<feComposite in2="hardAlpha" operator="out"/>
<feColorMatrix type="matrix" values="0 0 0 0 0.760784 0 0 0 0 1 0 0 0 0 1 0 0 0 0.3 0"/>
<feBlend mode="normal" in2="BackgroundImageFix" result="effect1_dropShadow_264_4134"/>
<feBlend mode="normal" in="SourceGraphic" in2="effect1_dropShadow_264_4134" result="shape"/>
</filter>
</defs>
</svg>
