<svg width="42" height="42" viewBox="0 0 42 42" fill="none" xmlns="http://www.w3.org/2000/svg">
<g filter="url(#filter0_d_264_4101)">
<rect x="1" y="1" width="40" height="40" rx="20" fill="#120D02" fill-opacity="0.1" shape-rendering="crispEdges"/>
<path d="M30.1894 28.5739C30.5867 28.0218 30.8296 27.3738 30.8932 26.6965C30.9568 26.0193 30.8389 25.3374 30.5514 24.7209L29.1814 21.7839C28.938 21.2618 28.594 20.7927 28.1693 20.4035C27.7445 20.0143 27.2473 19.7125 26.7059 19.5155C26.1646 19.3184 25.5897 19.23 25.0141 19.2551C24.4386 19.2802 23.8736 19.4185 23.3514 19.6619L22.3604 20.1239C21.8574 20.2369 21.4224 20.1549 21.2044 19.6879L19.7244 16.5129C19.5309 16.1326 19.1973 15.8423 18.7939 15.7032C18.3904 15.5641 17.9487 15.5871 17.562 15.7674C17.1752 15.9477 16.8735 16.2711 16.7206 16.6696C16.5678 17.068 16.5756 17.5102 16.7424 17.9029L20.2184 25.3579L17.8164 24.3659C17.5932 24.2739 17.3537 24.2279 17.1123 24.2307C16.8709 24.2334 16.6325 24.2849 16.4114 24.3819C16.1906 24.4795 15.9918 24.6207 15.8268 24.797C15.6619 24.9733 15.5342 25.1811 15.4514 25.4079L15.4504 25.4109C15.2913 25.8476 15.3108 26.3295 15.5048 26.7518C15.6988 27.1742 16.0515 27.5031 16.4864 27.6669L20.1174 29.0349C21.7874 29.6429 22.2224 29.8479 22.8514 31.0429C22.9803 31.2415 23.1765 31.3868 23.404 31.452C23.6315 31.5173 23.875 31.4981 24.0894 31.3979C25.9624 30.5459 30.1894 28.5739 30.1894 28.5739Z" fill="#120D02"/>
<path fill-rule="evenodd" clip-rule="evenodd" d="M17.2053 13.6423C17.2496 13.7319 17.2755 13.8294 17.2816 13.9292C17.2877 14.0289 17.2737 14.1289 17.2407 14.2231C17.2076 14.3174 17.156 14.4042 17.0889 14.4782C17.0218 14.5523 16.9406 14.6122 16.8501 14.6545C16.7595 14.6967 16.6614 14.7204 16.5616 14.7242C16.4617 14.728 16.3621 14.7119 16.2686 14.6766C16.1751 14.6414 16.0895 14.5878 16.017 14.5191C15.9445 14.4504 15.8864 14.3678 15.8463 14.2763L14.9793 12.4163C14.9005 12.2369 14.895 12.0338 14.9641 11.8504C15.0332 11.667 15.1713 11.5179 15.3489 11.4351C15.5265 11.3523 15.7294 11.3422 15.9143 11.4071C16.0992 11.472 16.2514 11.6067 16.3383 11.7823L17.2053 13.6423ZM20.6003 13.4453C20.5685 13.5403 20.518 13.6279 20.4518 13.7031C20.3856 13.7782 20.305 13.8394 20.2148 13.8829C20.1246 13.9264 20.0266 13.9514 19.9266 13.9564C19.8266 13.9614 19.7265 13.9463 19.6324 13.9121C19.5383 13.8778 19.452 13.825 19.3787 13.7569C19.3053 13.6887 19.2463 13.6066 19.2052 13.5153C19.164 13.4239 19.1416 13.3253 19.1392 13.2252C19.1369 13.1251 19.1545 13.0255 19.1913 12.9323L19.8933 11.0033C19.9649 10.8214 20.1048 10.6747 20.2831 10.5945C20.4613 10.5142 20.6639 10.5067 20.8476 10.5736C21.0313 10.6405 21.1817 10.7764 21.2666 10.9525C21.3515 11.1286 21.3643 11.3309 21.3023 11.5163L20.6003 13.4453ZM14.0263 15.3413C14.1212 15.3731 14.2089 15.4236 14.284 15.4898C14.3592 15.556 14.4203 15.6366 14.4638 15.7268C14.5073 15.817 14.5323 15.915 14.5373 16.015C14.5423 16.115 14.5273 16.215 14.493 16.3091C14.4587 16.4033 14.406 16.4895 14.3378 16.5629C14.2697 16.6363 14.1875 16.6953 14.0962 16.7364C14.0049 16.7775 13.9063 16.8 13.8061 16.8023C13.706 16.8047 13.6064 16.787 13.5133 16.7503L11.5843 16.0483C11.4893 16.0165 11.4016 15.9661 11.3265 15.8999C11.2514 15.8337 11.1902 15.7531 11.1467 15.6629C11.1032 15.5727 11.0782 15.4747 11.0732 15.3746C11.0682 15.2746 11.0833 15.1746 11.1175 15.0805C11.1518 14.9864 11.2045 14.9001 11.2727 14.8267C11.3408 14.7533 11.423 14.6943 11.5143 14.6532C11.6056 14.6121 11.7043 14.5897 11.8044 14.5873C11.9045 14.5849 12.0041 14.6026 12.0973 14.6393L14.0263 15.3413ZM14.0063 18.2703C14.1866 18.1863 14.393 18.1773 14.5799 18.2453C14.7669 18.3134 14.9192 18.453 15.0033 18.6333C15.0873 18.8137 15.0963 19.02 15.0282 19.207C14.9602 19.394 14.8206 19.5462 14.6403 19.6303L12.7803 20.4973C12.6008 20.5761 12.3977 20.5815 12.2143 20.5125C12.0309 20.4434 11.8819 20.3053 11.799 20.1277C11.7162 19.9501 11.7061 19.7472 11.771 19.5623C11.8359 19.3773 11.9706 19.2252 12.1463 19.1383L14.0063 18.2703ZM23.3083 13.9333C23.4877 13.8545 23.6908 13.8491 23.8742 13.9182C24.0576 13.9873 24.2066 14.1254 24.2895 14.303C24.3723 14.4805 24.3824 14.6835 24.3175 14.8684C24.2526 15.0533 24.1179 15.2055 23.9423 15.2923L22.0823 16.1603C21.9019 16.2444 21.6956 16.2534 21.5086 16.1853C21.3216 16.1172 21.1693 15.9777 21.0853 15.7973C21.0012 15.617 20.9922 15.4106 21.0603 15.2236C21.1284 15.0367 21.2679 14.8844 21.4483 14.8003L23.3083 13.9333Z" fill="#120D02"/>
</g>
<defs>
<filter id="filter0_d_264_4101" x="0" y="0" width="42" height="42" filterUnits="userSpaceOnUse" color-interpolation-filters="sRGB">
<feFlood flood-opacity="0" result="BackgroundImageFix"/>
<feColorMatrix in="SourceAlpha" type="matrix" values="0 0 0 0 0 0 0 0 0 0 0 0 0 0 0 0 0 0 127 0" result="hardAlpha"/>
<feMorphology radius="1" operator="dilate" in="SourceAlpha" result="effect1_dropShadow_264_4101"/>
<feOffset/>
<feComposite in2="hardAlpha" operator="out"/>
<feColorMatrix type="matrix" values="0 0 0 0 0.760784 0 0 0 0 1 0 0 0 0 1 0 0 0 0.7 0"/>
<feBlend mode="normal" in2="BackgroundImageFix" result="effect1_dropShadow_264_4101"/>
<feBlend mode="normal" in="SourceGraphic" in2="effect1_dropShadow_264_4101" result="shape"/>
</filter>
</defs>
</svg>
