<svg width="48" height="48" viewBox="0 0 48 48" fill="none" xmlns="http://www.w3.org/2000/svg">
<g filter="url(#filter0_d_264_4128)">
<rect x="4" y="4" width="40" height="40" rx="20" fill="#E7B144" fill-opacity="0.1" shape-rendering="crispEdges"/>
<g clip-path="url(#clip0_264_4128)">
<path d="M19.88 25.0208L24 27.3408L28.12 25.0208C28.0793 24.9862 28.0355 24.9554 27.9892 24.9288L24.3892 22.902C24.2691 22.8352 24.134 22.8001 23.9966 22.8001C23.8592 22.8001 23.7241 22.8352 23.604 22.902L20.006 24.9284C19.9612 24.9552 19.919 24.9861 19.88 25.0208ZM18.8 32.7764C18.8006 32.9181 18.8386 33.0571 18.9104 33.1793C18.9821 33.3015 19.0849 33.4025 19.2084 33.472L22.8 35.4952V30.434L18.8 28.1804V32.7764ZM29.2 28.1804L25.2 30.434V35.4952L28.7916 33.472C28.9151 33.4025 29.0179 33.3015 29.0896 33.1793C29.1614 33.0571 29.1994 32.9181 29.2 32.7764V28.1804ZM24 12.4004C23.8939 12.4004 23.7922 12.4425 23.7172 12.5175C23.6421 12.5926 23.6 12.6943 23.6 12.8004V19.8348L23.0828 19.3176C23.0074 19.2447 22.9063 19.2044 22.8014 19.2053C22.6966 19.2062 22.5962 19.2483 22.5221 19.3225C22.4479 19.3966 22.4058 19.497 22.4049 19.6018C22.404 19.7067 22.4443 19.8078 22.5172 19.8832L23.7172 21.0832C23.7923 21.158 23.894 21.2001 24 21.2004C24.106 21.2 24.208 21.1576 24.2832 21.0828L25.4832 19.8828C25.5561 19.8073 25.5964 19.7063 25.5955 19.6014C25.5946 19.4966 25.5525 19.3962 25.4783 19.3221C25.4042 19.2479 25.3038 19.2058 25.199 19.2049C25.0941 19.204 24.993 19.2443 24.9176 19.3172L24.4 19.8348V12.8004C24.4 12.6943 24.3579 12.5926 24.2828 12.5175C24.2078 12.4425 24.1061 12.4004 24 12.4004ZM12.4 31.2004H15.8344L15.3172 31.7176C15.279 31.7545 15.2485 31.7986 15.2276 31.8474C15.2066 31.8962 15.1956 31.9487 15.1951 32.0018C15.1946 32.0549 15.2048 32.1076 15.2249 32.1568C15.245 32.2059 15.2747 32.2506 15.3122 32.2881C15.3498 32.3257 15.3945 32.3554 15.4436 32.3755C15.4928 32.3956 15.5454 32.4058 15.5986 32.4053C15.6517 32.4048 15.7042 32.3938 15.753 32.3728C15.8018 32.3519 15.8459 32.3214 15.8828 32.2832L17.0828 31.0832C17.1201 31.046 17.1496 31.0019 17.1698 30.9533C17.1899 30.9047 17.2003 30.8526 17.2003 30.8C17.2003 30.7474 17.1899 30.6953 17.1698 30.6467C17.1496 30.5981 17.1201 30.5539 17.0828 30.5168L15.8828 29.3168C15.8074 29.2439 15.7063 29.2036 15.6014 29.2045C15.4966 29.2054 15.3962 29.2475 15.3221 29.3217C15.2479 29.3958 15.2058 29.4962 15.2049 29.601C15.204 29.7059 15.2443 29.807 15.3172 29.8824L15.8344 30.4004H12.4C12.2939 30.4004 12.1922 30.4425 12.1172 30.5175C12.0421 30.5926 12 30.6943 12 30.8004C12 30.9065 12.0421 31.0082 12.1172 31.0832C12.1922 31.1582 12.2939 31.2004 12.4 31.2004ZM35.6 30.4004H32.1656L32.6828 29.8832C32.7557 29.8078 32.796 29.7067 32.7951 29.6018C32.7942 29.497 32.7521 29.3966 32.6779 29.3225C32.6038 29.2483 32.5034 29.2062 32.3986 29.2053C32.2937 29.2044 32.1926 29.2447 32.1172 29.3176L30.9172 30.5176C30.8799 30.5547 30.8504 30.5989 30.8302 30.6475C30.8101 30.6961 30.7997 30.7482 30.7997 30.8008C30.7997 30.8534 30.8101 30.9055 30.8302 30.9541C30.8504 31.0027 30.8799 31.0468 30.9172 31.084L32.1172 32.284C32.1926 32.3569 32.2937 32.3972 32.3986 32.3963C32.5034 32.3953 32.6038 32.3533 32.6779 32.2791C32.7521 32.205 32.7942 32.1046 32.7951 31.9998C32.796 31.8949 32.7557 31.7938 32.6828 31.7184L32.1656 31.2004H35.6C35.7061 31.2004 35.8078 31.1582 35.8828 31.0832C35.9579 31.0082 36 30.9065 36 30.8004C36 30.6943 35.9579 30.5926 35.8828 30.5175C35.8078 30.4425 35.7061 30.4004 35.6 30.4004Z" fill="#E7B144"/>
</g>
</g>
<defs>
<filter id="filter0_d_264_4128" x="0" y="0" width="48" height="48" filterUnits="userSpaceOnUse" color-interpolation-filters="sRGB">
<feFlood flood-opacity="0" result="BackgroundImageFix"/>
<feColorMatrix in="SourceAlpha" type="matrix" values="0 0 0 0 0 0 0 0 0 0 0 0 0 0 0 0 0 0 127 0" result="hardAlpha"/>
<feMorphology radius="4" operator="dilate" in="SourceAlpha" result="effect1_dropShadow_264_4128"/>
<feOffset/>
<feComposite in2="hardAlpha" operator="out"/>
<feColorMatrix type="matrix" values="0 0 0 0 0.760784 0 0 0 0 1 0 0 0 0 1 0 0 0 0.3 0"/>
<feBlend mode="normal" in2="BackgroundImageFix" result="effect1_dropShadow_264_4128"/>
<feBlend mode="normal" in="SourceGraphic" in2="effect1_dropShadow_264_4128" result="shape"/>
</filter>
<clipPath id="clip0_264_4128">
<rect width="24" height="24" fill="white" transform="translate(12 12)"/>
</clipPath>
</defs>
</svg>
