<svg width="48" height="48" viewBox="0 0 48 48" fill="none" xmlns="http://www.w3.org/2000/svg">
<g filter="url(#filter0_d_135_205)">
<rect x="4" y="4" width="40" height="40" rx="20" fill="#E7B144" fill-opacity="0.1" shape-rendering="crispEdges"/>
<path d="M28.3637 24.509C28.1455 23.4181 26.8364 22.9818 26 23.6727C25.6 22.9818 24.7273 22.7272 24 23.1272V20.6545C24 19.8545 23.3455 19.2 22.5455 19.2C21.7455 19.2 21.0909 19.8545 21.0909 20.6545V27.2727C21.0546 27.2363 19.7091 25.1636 17.8182 26.6181C17.2728 27.0181 17.2 27.7818 17.6 28.2909L21.3455 33.1272C21.8182 33.7454 22.5455 34.0727 23.3091 34.0727H28.0728C29.4182 34.0727 30.5455 32.9818 30.5455 31.6V25.7454C30.5819 24.6181 29.3091 23.9272 28.3637 24.509ZM26.2909 31.8909C26.1091 31.8909 25.9273 31.709 25.9273 31.5272C25.9273 31.3454 26.1091 31.1636 26.2909 31.1636C27.2364 31.1636 28.0364 30.4 28.0364 29.4181C28.0364 29.2 28.2182 29.0545 28.4 29.0545C28.5819 29.0545 28.7637 29.2 28.7637 29.4181C28.7637 30.8 27.6728 31.8909 26.2909 31.8909Z" fill="#E7B144"/>
<path d="M35.2729 28.5454H34.1456V14.2909C34.1456 14.1091 33.9638 13.9272 33.782 13.9272H14.2183C14.0365 13.9272 13.8547 14.1091 13.8547 14.2909V28.5454H12.7274C12.5456 28.5454 12.3638 28.7272 12.3638 28.9091C12.3638 30.5818 13.7092 31.8909 15.3456 31.8909H19.5274C16.9092 28.5091 17.0547 28.6909 16.9456 28.5454H14.582V14.6545H33.4183V28.5454H31.3092V31.8909H32.6547C34.291 31.8909 35.6365 30.5454 35.6365 28.9091C35.6365 28.6909 35.491 28.5454 35.2729 28.5454Z" fill="#E7B144"/>
<path d="M22.4728 17.8909C22.2546 17.8909 22.1092 17.7455 22.1092 17.5273V16.3636C22.1092 16.1455 22.2546 16 22.4728 16C22.691 16 22.8364 16.1455 22.8364 16.3636V17.5273C22.8364 17.7455 22.6546 17.8909 22.4728 17.8909ZM20.691 17.9273L20.1092 16.8727C20.0001 16.6909 20.0728 16.4727 20.2546 16.3636C20.4364 16.2545 20.6546 16.3273 20.7637 16.5091L21.3455 17.5636C21.4546 17.7455 21.3819 17.9636 21.2001 18.0727C21.0183 18.1455 20.7637 18.1091 20.691 17.9273ZM23.7455 18.0727C23.5637 17.9636 23.491 17.7455 23.6001 17.5636L24.1819 16.5091C24.291 16.3273 24.5092 16.2545 24.691 16.3636C24.8728 16.4727 24.9455 16.6909 24.8364 16.8727L24.2546 17.9273C24.1455 18.1091 23.891 18.1455 23.7455 18.0727ZM32.0001 20.2182H27.5274C27.3092 20.2182 27.1637 20.0727 27.1637 19.8545C27.1637 19.6364 27.3092 19.4909 27.5274 19.4909H32.0001C32.2183 19.4909 32.3637 19.6364 32.3637 19.8545C32.3637 20.0727 32.2183 20.2182 32.0001 20.2182ZM32.0001 17.6727H26.8001C26.5819 17.6727 26.4364 17.5273 26.4364 17.3091C26.4364 17.0909 26.5819 16.9455 26.8001 16.9455H32.0001C32.2183 16.9455 32.3637 17.0909 32.3637 17.3091C32.3637 17.5273 32.2183 17.6727 32.0001 17.6727ZM32.0001 22.7636H28.9819C28.7637 22.7636 28.6183 22.6182 28.6183 22.4C28.6183 22.1818 28.7637 22.0364 28.9819 22.0364H32.0001C32.2183 22.0364 32.3637 22.1818 32.3637 22.4C32.3637 22.6182 32.2183 22.7636 32.0001 22.7636ZM19.1274 20.2182H16.5819C16.3637 20.2182 16.2183 20.0727 16.2183 19.8545C16.2183 19.6364 16.3637 19.4909 16.5819 19.4909H19.1274C19.3455 19.4909 19.491 19.6364 19.491 19.8545C19.491 20.0727 19.3455 20.2182 19.1274 20.2182ZM19.1274 22.7636H16.5819C16.3637 22.7636 16.2183 22.6182 16.2183 22.4C16.2183 22.1818 16.3637 22.0364 16.5819 22.0364H19.1274C19.3455 22.0364 19.491 22.1818 19.491 22.4C19.491 22.6182 19.3455 22.7636 19.1274 22.7636Z" fill="#E7B144"/>
</g>
<defs>
<filter id="filter0_d_135_205" x="0" y="0" width="48" height="48" filterUnits="userSpaceOnUse" color-interpolation-filters="sRGB">
<feFlood flood-opacity="0" result="BackgroundImageFix"/>
<feColorMatrix in="SourceAlpha" type="matrix" values="0 0 0 0 0 0 0 0 0 0 0 0 0 0 0 0 0 0 127 0" result="hardAlpha"/>
<feMorphology radius="4" operator="dilate" in="SourceAlpha" result="effect1_dropShadow_135_205"/>
<feOffset/>
<feComposite in2="hardAlpha" operator="out"/>
<feColorMatrix type="matrix" values="0 0 0 0 0.760784 0 0 0 0 1 0 0 0 0 1 0 0 0 0.3 0"/>
<feBlend mode="normal" in2="BackgroundImageFix" result="effect1_dropShadow_135_205"/>
<feBlend mode="normal" in="SourceGraphic" in2="effect1_dropShadow_135_205" result="shape"/>
</filter>
</defs>
</svg>
