<svg width="48" height="48" viewBox="0 0 48 48" fill="none" xmlns="http://www.w3.org/2000/svg">
<g filter="url(#filter0_d_135_262)">
<rect x="4" y="4" width="40" height="40" rx="20" fill="#E7B144" fill-opacity="0.1" shape-rendering="crispEdges"/>
<g clip-path="url(#clip0_135_262)">
<path d="M26.9715 13.4028C25.5929 12.7132 24.3144 12.0742 24.3144 12.0742C24.2168 12.0254 24.1091 12 24 12C23.8908 12 23.7832 12.0254 23.6856 12.0742L21.0289 13.4027C18.2538 14.7903 17.4864 17.2931 17.3149 18.7781H30.6944C30.384 15.569 27.9984 13.9162 26.9715 13.4028ZM17.2719 25.5062C17.2719 23.4571 18.9384 21.7906 20.9867 21.7906H27.0125C29.0613 21.7906 30.7281 23.4574 30.7281 25.5062V20.1844H17.2719V25.5062ZM19.4783 34.2637C18.9063 34.9371 18.2379 35.5222 17.4947 36H21.457C21.012 35.713 20.2455 35.166 19.4783 34.2637ZM18.6271 33.0821C17.8087 31.718 17.3719 30.1523 17.3719 28.5187C17.3719 28.3777 17.3861 28.2399 17.4126 28.1065C14.2905 29.0059 12 31.8884 12 35.2961V35.2969C12 35.6852 12.3148 36 12.7031 36C15.1117 36 17.2578 34.8555 18.6271 33.0821ZM33.8088 30.0068C32.3975 28.5955 30.5216 27.8175 28.526 27.8157C27.2053 28.7295 25.6409 29.2218 24.0004 29.2218C22.3598 29.2218 20.7954 28.7296 19.4748 27.8159C19.0895 27.8194 18.7781 28.1326 18.7781 28.5187C18.7781 32.6574 22.128 35.9999 26.2594 35.9999H35.2969C35.6852 35.9999 36 35.6851 36 35.2968C36 33.2985 35.2218 31.4198 33.8088 30.0068Z" fill="#E7B144"/>
<path d="M27.0128 23.1968H24.8126C25.1105 24.1273 25.9838 24.803 27.012 24.803H29.2126C28.9146 23.8723 28.0411 23.1968 27.0128 23.1968ZM28.3053 26.2092H27.0128C25.7745 26.2092 24.6758 25.6004 24.0002 24.6664C23.3247 25.6004 22.226 26.2092 20.9877 26.2092H19.6955C20.8899 27.2483 22.4015 27.8155 24.0002 27.8155C25.5994 27.8155 27.1109 27.2483 28.3053 26.2092ZM23.1879 23.1968H20.987C19.9588 23.1968 19.0855 23.8725 18.7876 24.803H20.9885C22.0167 24.803 22.89 24.1273 23.1879 23.1968Z" fill="#E7B144"/>
</g>
</g>
<defs>
<filter id="filter0_d_135_262" x="0" y="0" width="48" height="48" filterUnits="userSpaceOnUse" color-interpolation-filters="sRGB">
<feFlood flood-opacity="0" result="BackgroundImageFix"/>
<feColorMatrix in="SourceAlpha" type="matrix" values="0 0 0 0 0 0 0 0 0 0 0 0 0 0 0 0 0 0 127 0" result="hardAlpha"/>
<feMorphology radius="4" operator="dilate" in="SourceAlpha" result="effect1_dropShadow_135_262"/>
<feOffset/>
<feComposite in2="hardAlpha" operator="out"/>
<feColorMatrix type="matrix" values="0 0 0 0 0.760784 0 0 0 0 1 0 0 0 0 1 0 0 0 0.3 0"/>
<feBlend mode="normal" in2="BackgroundImageFix" result="effect1_dropShadow_135_262"/>
<feBlend mode="normal" in="SourceGraphic" in2="effect1_dropShadow_135_262" result="shape"/>
</filter>
<clipPath id="clip0_135_262">
<rect width="24" height="24" fill="white" transform="translate(12 12)"/>
</clipPath>
</defs>
</svg>
