<svg width="48" height="49" viewBox="0 0 48 49" fill="none" xmlns="http://www.w3.org/2000/svg">
<path d="M0 8.2002C0 3.78192 3.58172 0.200195 8 0.200195H40C44.4183 0.200195 48 3.78192 48 8.2002V40.2002C48 44.6185 44.4183 48.2002 40 48.2002H8C3.58172 48.2002 0 44.6185 0 40.2002V8.2002Z" fill="#FDF7EC"/>
<g clip-path="url(#clip0_264_4083)">
<path d="M29.6248 20.6845C26.1353 20.6845 23.2967 23.5231 23.2967 27.0126C23.2967 30.502 26.1353 33.3406 29.6247 33.3406C33.1142 33.3406 35.9996 30.502 35.9996 27.0126C35.9996 23.5231 33.1142 20.6845 29.6248 20.6845ZM30.3464 30.4011C30.3403 30.4034 30.3339 30.4023 30.3278 30.4045V31.2313C30.3278 31.6199 30.0133 31.9344 29.6247 31.9344C29.236 31.9344 28.9215 31.6199 28.9215 31.2313V30.3997C28.4585 30.2432 28.0148 29.9463 27.6354 29.4941C27.3855 29.1968 27.4239 28.7532 27.722 28.504C28.0193 28.254 28.4642 28.2925 28.7121 28.5905C29.0843 29.0334 29.5052 29.2091 29.865 29.08C30.1417 28.9791 30.3278 28.7134 30.3278 28.4188C30.3278 28.0309 30.0126 27.7157 29.6247 27.7157C28.4615 27.7157 27.5153 26.7695 27.5153 25.6064C27.5148 25.1917 27.6367 24.7861 27.8657 24.4404C28.0948 24.0948 28.4208 23.8244 28.8028 23.6632C28.8415 23.6468 28.8825 23.6478 28.9216 23.6338V22.7939C28.9216 22.4053 29.2361 22.0908 29.6247 22.0908C30.0134 22.0908 30.3278 22.4053 30.3278 22.7939V23.635C30.6919 23.758 31.047 23.9536 31.364 24.2606C31.6427 24.5305 31.6496 24.9754 31.3791 25.2549C31.1092 25.5336 30.6636 25.5398 30.3848 25.27C30.0428 24.9383 29.6645 24.8243 29.3514 24.9582C29.2239 25.012 29.1151 25.1021 29.0386 25.2174C28.9622 25.3328 28.9214 25.4681 28.9215 25.6064C28.9215 25.9944 29.2367 26.3095 29.6247 26.3095C30.7878 26.3095 31.734 27.2558 31.734 28.4189C31.7341 29.3025 31.1765 30.099 30.3464 30.4011ZM12.7031 27.7157C12.3145 27.7157 12 28.0302 12 28.4188V35.4969C12 35.8855 12.3145 36.2 12.7031 36.2H14.8125V27.7157H12.7031Z" fill="#E7B144"/>
<path d="M28.6759 16.5888L23.7541 12.3701C23.4918 12.1435 23.1018 12.1435 22.8394 12.3701L17.9177 16.5888C17.8084 16.6821 17.7305 16.8067 17.6944 16.9457C17.6583 17.0847 17.6657 17.2315 17.7158 17.3661C17.7654 17.5009 17.8553 17.6173 17.9732 17.6994C18.091 17.7816 18.2313 17.8256 18.375 17.8255H20.4843V36.2002H25.4061C25.7948 36.2002 26.1093 35.8858 26.1093 35.4971V33.8933C23.6089 32.6104 21.8906 30.0112 21.8906 27.0129C21.8906 24.0146 23.6089 21.4154 26.1093 20.1324V17.8255H28.2186C28.3623 17.8256 28.5025 17.7816 28.6204 17.6995C28.7383 17.6173 28.8281 17.501 28.8778 17.3661C28.9278 17.2315 28.9353 17.0847 28.8992 16.9457C28.8631 16.8067 28.7852 16.6821 28.6759 16.5888Z" fill="#E7B144"/>
<path d="M16.9688 22.0908C16.5801 22.0908 16.2656 22.4053 16.2656 22.7939V36.1999H19.0781V22.0908H16.9688Z" fill="#E7B144"/>
</g>
<defs>
<clipPath id="clip0_264_4083">
<rect width="24" height="24" fill="white" transform="translate(12 12.2002)"/>
</clipPath>
</defs>
</svg>
