<svg width="48" height="49" viewBox="0 0 48 49" fill="none" xmlns="http://www.w3.org/2000/svg">
<path d="M0 8.2002C0 3.78192 3.58172 0.200195 8 0.200195H40C44.4183 0.200195 48 3.78192 48 8.2002V40.2002C48 44.6185 44.4183 48.2002 40 48.2002H8C3.58172 48.2002 0 44.6185 0 40.2002V8.2002Z" fill="#FDF7EC"/>
<path d="M35 24.2002C35 18.1252 30.075 13.2002 24 13.2002C17.925 13.2002 13 18.1252 13 24.2002C13 26.2252 13.545 28.1252 14.5 29.7502V28.7002C14.5 28.1402 14.685 27.6252 14.99 27.2102C14.67 26.2652 14.5 25.2502 14.5 24.2002C14.5 18.9552 18.755 14.7002 24 14.7002C29.245 14.7002 33.5 18.9552 33.5 24.2002C33.5 25.2502 33.33 26.2652 33.01 27.2102C33.315 27.6252 33.5 28.1402 33.5 28.7002V29.7502C34.455 28.1252 35 26.2252 35 24.2002Z" fill="#E7B144"/>
<path d="M31 24.2006C31 23.9256 31.225 23.7006 31.5 23.7006H32.475C32.405 22.5156 32.09 21.4056 31.585 20.4006L31.18 20.6356C30.94 20.7706 30.635 20.6906 30.495 20.4506C30.355 20.2106 30.44 19.9056 30.68 19.7656L31.085 19.5306C30.4507 18.5713 29.6293 17.7499 28.67 17.1156L28.435 17.5206C28.295 17.7606 27.99 17.8456 27.75 17.7056C27.51 17.5656 27.43 17.2606 27.565 17.0206L27.8 16.6156C26.7723 16.0966 25.6492 15.7937 24.5 15.7256V16.7006C24.5 16.9756 24.275 17.2006 24 17.2006C23.725 17.2006 23.5 16.9756 23.5 16.7006V15.7256C22.315 15.7956 21.205 16.1106 20.2 16.6156L20.435 17.0206C20.57 17.2606 20.49 17.5656 20.25 17.7056C20.01 17.8456 19.705 17.7606 19.565 17.5206L19.33 17.1156C18.3707 17.7499 17.5493 18.5713 16.915 19.5306L17.32 19.7656C17.56 19.9056 17.645 20.2106 17.505 20.4506C17.365 20.6906 17.06 20.7706 16.82 20.6356L16.415 20.4006C15.896 21.4282 15.5931 22.5513 15.525 23.7006H16.5C16.775 23.7006 17 23.9256 17 24.2006C17 24.4756 16.775 24.7006 16.5 24.7006H15.525C15.56 25.3206 15.665 25.9156 15.825 26.4906C16.175 26.3056 16.575 26.2006 17 26.2006H31C31.425 26.2006 31.825 26.3056 32.175 26.4906C32.335 25.9156 32.44 25.3206 32.475 24.7006H31.5C31.225 24.7006 31 24.4756 31 24.2006ZM24 25.2006C23.63 25.2006 23.31 25.0006 23.14 24.7006H20C19.725 24.7006 19.5 24.4756 19.5 24.2006C19.5 23.9256 19.725 23.7006 20 23.7006H23.14C23.225 23.5506 23.35 23.4256 23.5 23.3406V19.2006C23.5 18.9256 23.725 18.7006 24 18.7006C24.275 18.7006 24.5 18.9256 24.5 19.2006V23.3406C24.8 23.5106 25 23.8306 25 24.2006C25 24.7506 24.55 25.2006 24 25.2006ZM31 27.2006H17C16.6022 27.2006 16.2206 27.3586 15.9393 27.6399C15.658 27.9212 15.5 28.3028 15.5 28.7006V33.7006C15.5 34.0984 15.658 34.4799 15.9393 34.7612C16.2206 35.0426 16.6022 35.2006 17 35.2006H31C31.3978 35.2006 31.7794 35.0426 32.0607 34.7612C32.342 34.4799 32.5 34.0984 32.5 33.7006V28.7006C32.5 28.3028 32.342 27.9212 32.0607 27.6399C31.7794 27.3586 31.3978 27.2006 31 27.2006ZM20 30.7006C20 31.2521 19.5515 31.7006 19 31.7006H18V32.7006H19.5C19.6326 32.7006 19.7598 32.7533 19.8536 32.847C19.9473 32.9408 20 33.068 20 33.2006C20 33.3332 19.9473 33.4604 19.8536 33.5541C19.7598 33.6479 19.6326 33.7006 19.5 33.7006H18C17.4485 33.7006 17 33.2521 17 32.7006V31.7006C17 31.1491 17.4485 30.7006 18 30.7006H19V29.7006H17.5C17.3674 29.7006 17.2402 29.6479 17.1464 29.5541C17.0527 29.4604 17 29.3332 17 29.2006C17 29.068 17.0527 28.9408 17.1464 28.847C17.2402 28.7533 17.3674 28.7006 17.5 28.7006H19C19.5515 28.7006 20 29.1491 20 29.7006V30.7006ZM24 33.2006C24 33.3332 23.9473 33.4604 23.8536 33.5541C23.7598 33.6479 23.6326 33.7006 23.5 33.7006C23.3674 33.7006 23.2402 33.6479 23.1464 33.5541C23.0527 33.4604 23 33.3332 23 33.2006V31.7006H22C21.4485 31.7006 21 31.2521 21 30.7006V29.2006C21 29.068 21.0527 28.9408 21.1464 28.847C21.2402 28.7533 21.3674 28.7006 21.5 28.7006C21.6326 28.7006 21.7598 28.7533 21.8536 28.847C21.9473 28.9408 22 29.068 22 29.2006V30.7006H23V29.2006C23 29.068 23.0527 28.9408 23.1464 28.847C23.2402 28.7533 23.3674 28.7006 23.5 28.7006C23.6326 28.7006 23.7598 28.7533 23.8536 28.847C23.9473 28.9408 24 29.068 24 29.2006V33.2006ZM25.99 33.7986C25.9639 33.9285 25.8874 34.0428 25.7771 34.1163C25.6669 34.1898 25.5319 34.2165 25.402 34.1906C25.3376 34.1777 25.2763 34.1523 25.2218 34.1158C25.1672 34.0792 25.1204 34.0323 25.0839 33.9776C25.0475 33.923 25.0223 33.8617 25.0096 33.7972C24.9969 33.7328 24.997 33.6665 25.01 33.6021L26.01 28.6021C26.0228 28.5376 26.0482 28.4764 26.0847 28.4217C26.1212 28.3671 26.1682 28.3203 26.2228 28.2839C26.2775 28.2474 26.3388 28.2222 26.4033 28.2095C26.4678 28.1969 26.5341 28.197 26.5985 28.2101C26.6629 28.2229 26.7242 28.2483 26.7787 28.2849C26.8333 28.3214 26.8801 28.3684 26.9166 28.423C26.953 28.4777 26.9782 28.539 26.9909 28.6034C27.0036 28.6679 27.0035 28.7342 26.9905 28.7986L25.9905 33.7986H25.99ZM30.7145 30.0516L29.468 33.3761C29.4212 33.5001 29.3271 33.6006 29.2064 33.6554C29.0857 33.7102 28.9482 33.715 28.824 33.6686C28.7625 33.6455 28.7061 33.6106 28.6582 33.5657C28.6102 33.5209 28.5715 33.467 28.5443 33.4072C28.5172 33.3474 28.502 33.2828 28.4998 33.2172C28.4976 33.1515 28.5084 33.0861 28.5315 33.0246L29.778 29.7001H28.4995C28.3669 29.7001 28.2397 29.6474 28.1459 29.5536C28.0522 29.4599 27.9995 29.3327 27.9995 29.2001C27.9995 29.0675 28.0522 28.9403 28.1459 28.8465C28.2397 28.7528 28.3669 28.7001 28.4995 28.7001H29.778C29.9395 28.7002 30.0987 28.7394 30.2417 28.8144C30.3848 28.8893 30.5076 28.9978 30.5997 29.1306C30.6917 29.2634 30.7502 29.4164 30.7702 29.5767C30.7902 29.737 30.7711 29.9003 30.7145 30.0516Z" fill="#E7B144"/>
</svg>
