<svg width="48" height="49" viewBox="0 0 48 49" fill="none" xmlns="http://www.w3.org/2000/svg">
<path d="M0 8.2002C0 3.78192 3.58172 0.200195 8 0.200195H40C44.4183 0.200195 48 3.78192 48 8.2002V40.2002C48 44.6185 44.4183 48.2002 40 48.2002H8C3.58172 48.2002 0 44.6185 0 40.2002V8.2002Z" fill="#FDF7EC"/>
<path d="M21.1889 23.8983C20.0105 22.4302 20.2453 20.2828 21.7139 19.1044C23.182 17.926 25.3294 18.1608 26.5078 19.6294C27.6862 21.0975 27.4514 23.2449 25.9828 24.4233C24.5147 25.6017 22.3678 25.3664 21.1889 23.8983ZM20.9231 21.443C20.7464 23.0588 21.9117 24.5124 23.5275 24.6891C25.1433 24.8658 26.5969 23.7005 26.7736 22.0847C26.9503 20.4689 25.785 19.0153 24.1692 18.8386C22.5534 18.6619 21.0998 19.8272 20.9231 21.443ZM32.3264 17.2997L31.8042 17.3344C31.6861 17.3424 31.5825 17.2585 31.5595 17.1446C31.4304 16.6197 31.1967 16.1262 30.8723 15.6938C30.1003 14.6611 28.8834 14.0607 27.5972 14.0714C28.9884 14.6414 30.0328 15.8677 30.3516 17.3616C30.3797 17.4957 30.2906 17.6246 30.143 17.6433L29.6967 17.7136L31.2394 19.2113L32.3264 17.2997ZM19.6556 22.3861C19.6584 22.3955 19.6594 22.4063 19.6608 22.4166C19.702 22.7447 19.8361 23.1675 19.9692 23.4703C20.0916 23.7478 20.0133 24.0685 19.7766 24.2597L19.5295 24.4575C19.4433 24.5264 19.4297 24.653 19.4977 24.7378L19.8258 25.1457C19.9894 25.1457 20.1858 25.26 20.3442 25.3608C20.5383 25.2052 20.6737 25.0646 20.9409 25.058C21.083 25.0552 21.2264 25.0992 21.3487 25.1883C21.6464 25.4063 21.9759 25.5882 22.32 25.7213C22.6031 25.8314 22.7742 26.1132 22.7423 26.415L22.7077 26.7314C22.6955 26.8402 22.7756 26.94 22.883 26.9522L23.6934 27.0399C23.8036 27.0521 23.902 26.9733 23.9142 26.8646C23.9433 26.603 23.9367 26.3611 24.1294 26.1591C24.2292 26.0555 24.3605 25.9852 24.5119 25.9613C24.8855 25.9041 25.2309 25.8033 25.5736 25.6519C25.8525 25.5296 26.1727 25.6078 26.363 25.8446L26.5622 26.093C26.6311 26.1778 26.7577 26.1914 26.8425 26.1235L27.4791 25.6121C27.5639 25.5432 27.5775 25.4166 27.5095 25.3317C27.3445 25.1269 27.1692 24.961 27.1627 24.6807C27.1575 24.3938 27.3183 24.2555 27.4748 24.0042C27.5189 23.9325 27.5625 23.8566 27.6052 23.7797C27.5944 23.595 27.6 23.4075 27.6239 23.2191C27.7087 22.5549 27.9773 22.0111 28.3669 21.5728C28.2061 21.4721 28.0959 21.3042 28.0655 21.1092C28.0083 20.7371 27.9075 20.3902 27.7561 20.0475C27.6337 19.7686 27.712 19.4485 27.9488 19.2582L28.2052 19.0524C28.2797 18.9924 28.2914 18.8611 28.2342 18.788L27.7158 18.1421C27.6469 18.0572 27.5203 18.0436 27.4355 18.1116C27.2306 18.2761 27.0633 18.4519 26.7844 18.4585C26.6423 18.4613 26.4989 18.4186 26.3766 18.3282C26.0771 18.1094 25.7507 17.9302 25.4053 17.7952C25.1222 17.685 24.9511 17.4033 24.983 17.1014L25.0177 16.7864C25.0298 16.6763 24.9497 16.5778 24.8423 16.5657L24.0319 16.4766C23.9217 16.4649 23.8233 16.5446 23.8111 16.6519C23.782 16.9135 23.7886 17.1567 23.5959 17.3588C23.3845 17.5782 23.1202 17.558 23.0803 17.5782C23.0152 17.6419 22.9195 17.6592 22.8384 17.6302C22.7827 17.6447 22.7269 17.6592 22.6725 17.6752C22.4947 17.7264 22.3207 17.7898 22.1517 17.865C21.8728 17.9888 21.5527 17.9091 21.3623 17.6724L21.1631 17.4253C21.0942 17.3391 20.9677 17.3269 20.8828 17.3949L20.2383 17.9133C20.1638 17.9733 20.1506 18.1032 20.2092 18.1763C20.3859 18.3994 20.5561 18.5536 20.5627 18.8367C20.5655 18.9867 20.5134 19.1489 20.415 19.2685C20.2237 19.5169 20.0137 19.921 19.8994 20.2158C19.7892 20.4989 19.5075 20.6714 19.2056 20.6382L18.8906 20.6035C18.7805 20.5913 18.682 20.6714 18.6698 20.7788L18.5794 21.6014C18.57 21.6957 18.6511 21.7992 18.7453 21.81C19.0284 21.8405 19.2581 21.8311 19.4616 22.0266C19.56 22.1203 19.6289 22.2441 19.6556 22.3861ZM15.4172 24.826C16.3036 24.826 16.7513 25.9036 16.1227 26.5322C15.4955 27.1608 14.4164 26.7127 14.4164 25.8253C14.4164 25.2736 14.8641 24.826 15.4172 24.826ZM14.3367 19.7142C15.2245 19.7142 15.6708 20.7919 15.0436 21.4205C14.415 22.0491 13.3359 21.6014 13.3359 20.7136C13.3359 20.1619 13.7841 19.7142 14.3367 19.7142ZM16.1995 16.3936C17.0873 16.3936 17.535 17.4727 16.9064 18.1013C16.2778 18.7285 15.2002 18.2808 15.2002 17.3944C15.2002 16.8413 15.6483 16.3936 16.1995 16.3936ZM18.4716 15.0132C19.358 15.0132 19.8056 16.0908 19.1784 16.7194C18.5498 17.348 17.4708 16.9003 17.4708 16.0125C17.4713 15.4594 17.9189 15.0132 18.4716 15.0132ZM25.5741 30.9844C25.5698 31.0069 25.5647 31.0285 25.5595 31.051L25.7391 30.9872C25.6842 30.9872 25.6284 30.9858 25.5741 30.9844ZM24.8339 29.8257C25.1208 29.9986 25.3828 30.2283 25.5075 30.5138C26.8922 30.5724 28.2141 30.1589 29.3316 29.4535C30.5888 28.6603 31.5853 27.4988 32.1244 26.2233C32.1392 26.1887 32.1622 26.1582 32.1913 26.1344C32.2204 26.1105 32.2549 26.0941 32.2917 26.0864V26.085C33.4186 25.8446 34.2942 24.9422 34.4123 23.7994C34.5347 22.621 34.0242 21.7186 33.037 21.2161V22.7082C33.037 22.7747 33.0089 22.8342 32.9653 22.8783L31.5806 24.3877C31.4878 24.4875 31.328 24.4875 31.2366 24.3877L29.8425 22.8675C29.7998 22.8225 29.7802 22.7653 29.7802 22.7082V21.1374C28.8741 21.5227 28.2188 22.2483 28.0875 23.2767C27.9558 24.3066 28.4503 25.3205 29.4244 25.7813C29.5148 25.8239 29.565 25.9167 29.557 26.011H29.5584C29.5027 26.6658 29.1291 27.2761 28.582 27.7927C27.9839 28.3575 27.172 28.816 26.3536 29.1014L24.8339 29.8257ZM21.3314 28.5103C21.5348 28.4916 21.7369 28.5183 21.9361 28.6008L24.2934 29.5655L25.5848 28.9514C23.9742 28.6074 21.9811 27.6478 20.8706 26.3592C20.7656 26.2355 20.2448 25.8328 19.9631 25.6777C19.9378 25.9847 20.0377 26.3808 20.2247 26.8097C20.4689 27.3675 20.8622 27.9708 21.3314 28.5103ZM17.2613 29.5285H16.1452C15.8606 29.5285 15.6281 29.7624 15.6281 30.0469H15.6267V34.1236H15.6281C15.6281 34.4082 15.8606 34.6407 16.1452 34.6407H17.2613C17.5444 34.6407 17.7783 34.4082 17.7783 34.1236V30.0469C17.7783 29.7619 17.5444 29.5285 17.2613 29.5285ZM18.2456 30.3253V33.7575L19.9636 33.0774C20.0062 33.06 20.0527 33.0563 20.0991 33.0666L23.7834 33.8639C23.9789 33.9066 24.157 33.8864 24.3347 33.8002L29.4384 31.3327C29.8983 31.1096 30.2597 30.7547 30.1359 30.473C30.112 30.4158 30.0642 30.3642 29.9977 30.323C29.7928 30.1969 29.437 30.173 28.9734 30.3361L24.8067 31.815C24.7589 31.831 24.7045 31.8324 24.6525 31.815L21.6098 30.7758C21.4875 30.7346 21.4209 30.6019 21.4622 30.4796C21.5048 30.3572 21.6375 30.2907 21.7598 30.3333L24.7097 31.3407C25.0898 31.1292 25.268 30.8555 24.945 30.5035C24.7711 30.3136 24.5452 30.1833 24.202 30.0333L21.7584 29.033C21.5114 28.9322 21.2653 28.9664 21.0314 29.0714L18.2456 30.3253ZM19.7461 19.2333C20.0545 19.2333 20.0545 19.7025 19.7461 19.7025H18.2447C18.1795 19.7025 18.12 19.6744 18.0773 19.6322L17.1061 18.8138C17.0825 18.7941 17.0631 18.7699 17.0489 18.7427C17.0346 18.7154 17.0259 18.6856 17.0232 18.655C17.0205 18.6244 17.0239 18.5936 17.0331 18.5643C17.0424 18.535 17.0573 18.5078 17.077 18.4842C17.117 18.4368 17.1742 18.4072 17.236 18.402C17.2978 18.3967 17.3591 18.4162 17.4066 18.4561L18.3286 19.2333H19.7461ZM18.3281 20.8383C18.6366 20.8383 18.6366 21.3075 18.3281 21.3075H15.817C15.5086 21.3075 15.5086 20.8383 15.817 20.8383H18.3281ZM19.313 22.5642C19.6214 22.5642 19.6214 23.0335 19.313 23.0335H17.1792L16.2319 24.676C16.0777 24.9417 15.6727 24.7078 15.8264 24.4407L16.8338 22.6974C16.8722 22.6191 16.9519 22.5647 17.0452 22.5647H19.313V22.5642ZM22.4873 17.131C22.7067 17.3461 22.3786 17.6799 22.1592 17.4642L21.3408 16.6575H19.7995C19.4902 16.6575 19.4902 16.1883 19.7995 16.1883H21.435V16.1897C21.495 16.1897 21.5531 16.2122 21.5995 16.2563L22.4873 17.131Z" fill="#E7B144"/>
</svg>
