<svg width="48" height="49" viewBox="0 0 48 49" fill="none" xmlns="http://www.w3.org/2000/svg">
<path d="M0 8.2002C0 3.78192 3.58172 0.200195 8 0.200195H40C44.4183 0.200195 48 3.78192 48 8.2002V40.2002C48 44.6185 44.4183 48.2002 40 48.2002H8C3.58172 48.2002 0 44.6185 0 40.2002V8.2002Z" fill="#FDF7EC"/>
<g clip-path="url(#clip0_264_4046)">
<path fill-rule="evenodd" clip-rule="evenodd" d="M26.7114 14.2398C26.6591 13.7039 26.4167 13.2044 26.0281 12.8316C25.6395 12.4588 25.1303 12.2374 24.5927 12.2073L24.5739 12.2066C24.1865 12.1945 23.7987 12.1973 23.4114 12.2148L23.4077 12.2152C22.8722 12.2447 22.365 12.4652 21.9783 12.8368C21.5916 13.2084 21.351 13.7063 21.3002 14.2402C21.2814 14.406 21.2627 14.5743 21.2477 14.7232C20.5531 14.9251 19.8829 15.2026 19.2489 15.5508L18.8739 15.2415C18.4582 14.8987 17.9335 14.7162 17.3948 14.7271C16.8561 14.738 16.3391 14.9417 15.9377 15.3011C15.9336 15.3065 15.9285 15.3111 15.9227 15.3146C15.6414 15.5808 15.3677 15.8546 15.1089 16.1415C15.1089 16.1422 15.1089 16.1433 15.1052 16.1445C14.7475 16.5442 14.5447 17.0588 14.5337 17.5951C14.5227 18.1314 14.7042 18.6539 15.0452 19.068C15.1502 19.1981 15.2589 19.3301 15.3527 19.446C15.004 20.08 14.7261 20.7504 14.5239 21.4451L14.0402 21.4912C13.504 21.5418 13.0038 21.7834 12.6307 22.1719C12.2577 22.5603 12.0366 23.0699 12.0077 23.6077V23.6283C11.9964 24.015 11.9964 24.4023 12.0152 24.7886V24.7931C12.0446 25.3288 12.2651 25.8362 12.6366 26.2232C13.0081 26.6102 13.5061 26.8512 14.0402 26.9025C14.2052 26.9208 14.3739 26.9385 14.5239 26.9538C14.7264 27.6487 15.0039 28.3188 15.3489 28.953L15.0414 29.3283C14.6986 29.7436 14.5162 30.268 14.5272 30.8063C14.5382 31.3446 14.742 31.8611 15.1014 32.262L15.1127 32.277C15.3791 32.5605 15.6568 32.8332 15.9452 33.0945C16.3443 33.4525 16.8587 33.6554 17.3947 33.6663C17.9308 33.6772 18.453 33.4955 18.8664 33.1541C18.9977 33.0498 19.1289 32.9433 19.2452 32.8488C19.8789 33.1976 20.5502 33.4751 21.2439 33.6772L21.2927 34.1613C21.3436 34.6972 21.585 35.197 21.9731 35.57C22.3612 35.9429 22.8702 36.1643 23.4077 36.1938L23.4264 36.1946C23.8164 36.2055 24.2027 36.2051 24.5889 36.1863L24.5927 36.186C25.1284 36.156 25.6357 35.9354 26.0229 35.564C26.4101 35.1926 26.6517 34.6949 26.7039 34.161C26.7189 33.9952 26.7377 33.8268 26.7527 33.678C27.4475 33.4768 28.1178 33.1992 28.7514 32.8503L29.1264 33.1597C29.5421 33.5025 30.0669 33.685 30.6056 33.6741C31.1443 33.6631 31.6612 33.4595 32.0627 33.1001C32.0668 33.0947 32.0719 33.0901 32.0777 33.0866C32.3589 32.8203 32.6327 32.5466 32.8914 32.2597C32.8914 32.259 32.8914 32.2578 32.8952 32.2567C33.2529 31.857 33.4556 31.3424 33.4666 30.8061C33.4776 30.2698 33.2962 29.7473 32.9552 29.3332C32.8502 29.2031 32.7414 29.0711 32.6477 28.9552C32.9964 28.3215 33.2739 27.651 33.4764 26.9561L33.9602 26.91C34.4964 26.8593 34.9966 26.6178 35.3696 26.2293C35.7427 25.8408 35.9638 25.3313 35.9927 24.7935V24.7728C36.0039 24.3862 36.0039 23.9988 35.9852 23.6126V23.6081C35.9558 23.0724 35.7353 22.565 35.3638 22.178C34.9922 21.7909 34.4942 21.5499 33.9602 21.4987C33.7952 21.4803 33.6264 21.4627 33.4764 21.4473C33.2755 20.7528 32.9988 20.0824 32.6514 19.4482L32.9589 19.0728C33.3017 18.6576 33.4842 18.1332 33.4732 17.5949C33.4622 17.0566 33.2584 16.5401 32.8989 16.1392L32.8877 16.1242C32.6214 15.843 32.3477 15.5696 32.0589 15.3097C32.0589 15.3086 32.0589 15.3078 32.0552 15.3067C31.656 14.9487 31.1417 14.7458 30.6056 14.7349C30.0696 14.7239 29.5474 14.9057 29.1339 15.2471C29.0027 15.3513 28.8714 15.4578 28.7552 15.5523C28.1214 15.2036 27.4502 14.9261 26.7564 14.724L26.7114 14.2398ZM25.2152 14.3827L25.3127 15.3885C25.3427 15.7095 25.5752 15.9746 25.8902 16.0477C26.7864 16.2558 27.6452 16.6113 28.4289 17.0992C28.7027 17.2698 29.0552 17.2466 29.3027 17.0415C29.3027 17.0415 29.6777 16.7328 30.0789 16.4111C30.0827 16.4088 30.0827 16.4066 30.0864 16.4043C30.2233 16.2913 30.3962 16.231 30.5737 16.2345C30.7511 16.2379 30.9215 16.3048 31.0539 16.4231C31.3089 16.6522 31.5489 16.8937 31.7852 17.1416C32.0289 17.4228 32.0364 17.8342 31.8039 18.1181L31.1589 18.8977C31.0585 19.0188 30.9989 19.1686 30.9888 19.3256C30.9787 19.4827 31.0186 19.6389 31.1027 19.7718C31.5908 20.5543 31.9456 21.4123 32.1527 22.311C32.2277 22.6248 32.4902 22.8573 32.8127 22.8881C32.8127 22.8881 33.2964 22.9342 33.8064 22.9908L33.8177 22.992C34.1814 23.0268 34.4664 23.3231 34.4889 23.6887C34.5039 24.0311 34.5039 24.3738 34.4964 24.7166C34.4848 24.8949 34.4101 25.0632 34.2858 25.1914C34.1614 25.3197 33.9955 25.3996 33.8177 25.4167L32.8127 25.5131C32.4902 25.5438 32.2277 25.7763 32.1527 26.0902C31.9456 26.9889 31.5908 27.8469 31.1027 28.6293C30.9302 28.9031 30.9527 29.2548 31.1589 29.5035C31.1589 29.5035 31.4664 29.8777 31.7889 30.2793C31.7927 30.282 31.7927 30.285 31.7964 30.288C32.0289 30.5707 32.0214 30.9813 31.7777 31.2547C31.5489 31.5075 31.3089 31.749 31.0577 31.9837C30.7764 32.2308 30.3677 32.2372 30.0827 32.0028L29.3027 31.3597C29.1815 31.2597 29.0319 31.2003 28.8751 31.1899C28.7183 31.1795 28.5622 31.2187 28.4289 31.302C27.6461 31.7894 26.7884 32.1446 25.8902 32.3535C25.5752 32.4266 25.3427 32.6917 25.3127 33.0127C25.3127 33.0127 25.2677 33.4953 25.2114 34.0068C25.2114 34.0106 25.2077 34.014 25.2077 34.0177C25.1913 34.194 25.1123 34.3585 24.985 34.4815C24.8578 34.6045 24.6906 34.6779 24.5139 34.6882C24.1689 34.7047 23.8277 34.7047 23.4827 34.6957C23.3049 34.6843 23.1369 34.6098 23.0091 34.4857C22.8812 34.3615 22.8019 34.1959 22.7852 34.0185L22.6877 33.0127C22.6729 32.8561 22.6091 32.7081 22.5054 32.5898C22.4018 32.4714 22.2635 32.3888 22.1102 32.3535C21.212 32.1446 20.3543 31.7894 19.5714 31.302C19.4381 31.2187 19.282 31.1795 19.1252 31.1899C18.9684 31.2003 18.8189 31.2597 18.6977 31.3597C18.6977 31.3597 18.3227 31.6683 17.9214 31.9901C17.9177 31.9923 17.9177 31.9946 17.9139 31.9968C17.7771 32.1099 17.6042 32.1702 17.4267 32.1667C17.2492 32.1633 17.0788 32.0964 16.9464 31.9781C16.6947 31.7481 16.452 31.5084 16.2189 31.2596C16.0997 31.1261 16.0319 30.9545 16.0278 30.7755C16.0236 30.5965 16.0834 30.4219 16.1964 30.2831L16.8414 29.5035C17.0477 29.2548 17.0702 28.9031 16.8977 28.6293C16.4095 27.8469 16.0547 26.9889 15.8477 26.0902C15.7727 25.7763 15.5102 25.5438 15.1877 25.5131C15.1877 25.5131 14.7039 25.467 14.1939 25.4103L14.1827 25.4092C14.0062 25.3919 13.8417 25.3122 13.7187 25.1845C13.5957 25.0568 13.5222 24.8895 13.5114 24.7125C13.4964 24.3701 13.4964 24.0273 13.5039 23.6846C13.5302 23.3148 13.8152 23.0193 14.1827 22.9845L15.1877 22.8881C15.3442 22.873 15.4921 22.8092 15.6105 22.7057C15.7289 22.6021 15.8118 22.4641 15.8477 22.311C16.0539 21.4125 16.4102 20.5545 16.8977 19.7718C17.0702 19.4981 17.0477 19.1463 16.8414 18.8977C16.8414 18.8977 16.5339 18.5235 16.2114 18.1218C16.2077 18.1192 16.2077 18.1162 16.2039 18.1132C15.9714 17.8305 15.9789 17.4198 16.2227 17.1465C16.4533 16.8944 16.6935 16.6512 16.9427 16.4175C17.0761 16.2983 17.2478 16.2308 17.4266 16.2273C17.6055 16.2238 17.7797 16.2845 17.9177 16.3983L18.6977 17.0415C18.9452 17.2466 19.2977 17.2698 19.5714 17.0992C20.3543 16.6118 21.212 16.2566 22.1102 16.0477C22.2635 16.0124 22.4018 15.9297 22.5054 15.8114C22.6091 15.6931 22.6729 15.5451 22.6877 15.3885C22.6877 15.3885 22.7327 14.9058 22.7889 14.3943C22.7927 14.3906 22.7927 14.3872 22.7927 14.3835C22.8264 14.0186 23.1227 13.734 23.4864 13.713C23.8314 13.6965 24.1727 13.6965 24.5177 13.7055C24.8852 13.7298 25.1814 14.0163 25.2152 14.3827ZM29.1564 23.2155C29.2202 23.5346 29.2502 23.8638 29.2502 24.2006C29.2502 26.8758 27.2439 29.0865 24.6564 29.4097C24.4594 29.4348 24.2804 29.5371 24.1587 29.6941C24.037 29.8511 23.9827 30.05 24.0077 30.2471C24.0195 30.3449 24.0506 30.4394 24.0991 30.5251C24.1476 30.6108 24.2126 30.6861 24.2903 30.7467C24.3681 30.8072 24.457 30.8518 24.552 30.8778C24.647 30.9039 24.7462 30.9109 24.8439 30.8985C28.1702 30.4826 30.7502 27.6405 30.7502 24.2006C30.7502 23.7682 30.7089 23.3452 30.6302 22.9357C30.6122 22.8391 30.5752 22.7469 30.5215 22.6646C30.4678 22.5822 30.3984 22.5113 30.3172 22.4558C30.2361 22.4003 30.1447 22.3615 30.0485 22.3414C29.9523 22.3213 29.853 22.3204 29.7564 22.3387C29.5608 22.3758 29.3878 22.4888 29.2753 22.6531C29.1629 22.8175 29.1201 23.0197 29.1564 23.2155ZM23.4002 20.9688C23.3516 20.818 23.2565 20.6865 23.1285 20.5932C23.0004 20.4999 22.8461 20.4497 22.6877 20.4497C22.5293 20.4497 22.3749 20.4999 22.2469 20.5932C22.1189 20.6865 22.0237 20.818 21.9752 20.9688L21.0339 23.8597L18.1427 24.7998C17.8352 24.9003 17.6252 25.1883 17.6252 25.5131C17.6252 25.8378 17.8352 26.1258 18.1427 26.2263L21.0339 27.1665L21.9752 30.0573C22.0237 30.2081 22.1189 30.3396 22.2469 30.4329C22.3749 30.5262 22.5293 30.5765 22.6877 30.5765C22.8461 30.5765 23.0004 30.5262 23.1285 30.4329C23.2565 30.3396 23.3516 30.2081 23.4002 30.0573L24.3414 27.1665L27.2327 26.2263C27.5402 26.1258 27.7502 25.8378 27.7502 25.5131C27.7502 25.1883 27.5402 24.9003 27.2327 24.7998L24.3414 23.8597L23.4002 20.9688ZM20.7264 28.3023C20.4872 28.1118 20.265 27.9006 20.0627 27.6712C20.0064 27.6093 19.9539 27.546 19.9014 27.4815C19.8398 27.4046 19.7637 27.3407 19.6774 27.2933C19.5911 27.2459 19.4962 27.216 19.3984 27.2052C19.3005 27.1944 19.2014 27.2031 19.1069 27.2306C19.0123 27.2581 18.9241 27.304 18.8473 27.3656C18.7705 27.4272 18.7065 27.5033 18.6591 27.5896C18.6117 27.676 18.5818 27.7708 18.571 27.8687C18.5603 27.9665 18.5689 28.0656 18.5964 28.1601C18.6239 28.2547 18.6698 28.3429 18.7314 28.4197C19.0437 28.8093 19.3983 29.1629 19.7889 29.4738C19.9443 29.5982 20.1427 29.6557 20.3404 29.6337C20.5382 29.6118 20.7191 29.5122 20.8434 29.3568C20.9677 29.2015 21.0253 29.0031 21.0033 28.8054C20.9814 28.6076 20.8818 28.4267 20.7264 28.3023ZM18.7914 23.5436C19.1139 20.9553 21.3264 18.9506 24.0002 18.9506C24.3377 18.9506 24.6677 18.9821 24.9864 19.0428C25.1818 19.0795 25.3838 19.0373 25.5482 18.9255C25.7126 18.8137 25.8261 18.6414 25.8639 18.4462C25.9389 18.0393 25.6727 17.6467 25.2639 17.5691C24.8552 17.4915 24.4314 17.4506 24.0002 17.4506C20.5614 17.4506 17.7189 20.0295 17.3027 23.3576C17.2904 23.4554 17.2975 23.5547 17.3237 23.6498C17.3499 23.7449 17.3946 23.8339 17.4552 23.9117C17.5158 23.9895 17.5911 24.0545 17.6769 24.1031C17.7627 24.1517 17.8573 24.183 17.9552 24.195C18.1524 24.2189 18.351 24.1639 18.5077 24.0418C18.6644 23.9198 18.7664 23.7406 18.7914 23.5436ZM27.7127 19.0938C27.6641 18.943 27.569 18.8115 27.441 18.7182C27.3129 18.6249 27.1586 18.5747 27.0002 18.5747C26.8418 18.5747 26.6874 18.6249 26.5594 18.7182C26.4314 18.8115 26.3362 18.943 26.2877 19.0938L25.9464 20.1453L24.8927 20.4873C24.5852 20.5878 24.3752 20.8758 24.3752 21.2006C24.3752 21.5253 24.5852 21.8133 24.8927 21.9138L25.9464 22.2558L26.2877 23.3073C26.3362 23.4581 26.4314 23.5896 26.5594 23.6829C26.6874 23.7762 26.8418 23.8265 27.0002 23.8265C27.1586 23.8265 27.3129 23.7762 27.441 23.6829C27.569 23.5896 27.6641 23.4581 27.7127 23.3073L28.0539 22.2558L29.1077 21.9138C29.4152 21.8133 29.6252 21.5253 29.6252 21.2006C29.6252 20.8758 29.4152 20.5878 29.1077 20.4873L28.0539 20.1453L27.7127 19.0938Z" fill="#E7B144"/>
</g>
<defs>
<clipPath id="clip0_264_4046">
<rect width="24" height="24" fill="white" transform="translate(12 12.2002)"/>
</clipPath>
</defs>
</svg>
