<svg width="48" height="49" viewBox="0 0 48 49" fill="none" xmlns="http://www.w3.org/2000/svg">
<path d="M0 8.2002C0 3.78192 3.58172 0.200195 8 0.200195H40C44.4183 0.200195 48 3.78192 48 8.2002V40.2002C48 44.6185 44.4183 48.2002 40 48.2002H8C3.58172 48.2002 0 44.6185 0 40.2002V8.2002Z" fill="#FDF7EC"/>
<g clip-path="url(#clip0_264_4072)">
<path d="M22.6093 20.4621C21.3407 20.4621 20.3086 21.4943 20.3086 22.7628C20.3086 24.0313 21.3408 25.0633 22.6093 25.0633C23.8778 25.0633 24.9098 24.0313 24.9098 22.7628C24.9098 21.4943 23.8778 20.4621 22.6093 20.4621Z" fill="#E7B144"/>
<path d="M24.6337 30.2204C23.9738 30.3995 23.2929 30.49 22.6091 30.4895C18.3488 30.4895 14.8828 27.023 14.8828 22.7624C14.8828 18.5021 18.3488 15.0361 22.6091 15.0361C26.8696 15.0361 30.3362 18.5021 30.3362 22.7624C30.3362 24.7482 29.5832 26.5608 28.3477 27.931L31.3275 28.7293C32.5261 26.9858 33.1721 24.9242 33.1721 22.7628C33.1721 19.9414 32.0733 17.2889 30.0784 15.2939C28.0832 13.2988 25.4308 12.2002 22.6095 12.2002C19.788 12.2002 17.1356 13.2988 15.1406 15.2939C13.1455 17.2889 12.0469 19.9414 12.0469 22.7628C12.0469 25.5841 13.1455 28.2366 15.1406 30.2317C17.1356 32.2266 19.788 33.3254 22.6095 33.3254C23.5543 33.3254 24.4799 33.2013 25.3686 32.9622L24.6337 30.2204Z" fill="#E7B144"/>
<path d="M28.9299 22.7624C28.9299 19.2778 26.0944 16.4424 22.6091 16.4424C19.1244 16.4424 16.2891 19.2778 16.2891 22.7624C16.2891 26.2477 19.1244 29.0833 22.6091 29.0833C23.1833 29.0833 23.7404 29.0064 24.2695 28.8619L23.6855 26.6818L26.7773 27.51C28.0964 26.3508 28.9299 24.6521 28.9299 22.7624ZM22.6095 26.4696C20.5655 26.4696 18.9025 24.8067 18.9025 22.7628C18.9025 20.7188 20.5655 19.0559 22.6095 19.0559C24.6535 19.0559 26.3163 20.7188 26.3163 22.7628C26.3163 24.8066 24.6533 26.4696 22.6095 26.4696ZM28.793 33.8241L31.1691 36.2002L33.204 34.1654L30.8279 31.7892L32.199 30.4186L25.6743 28.6707L27.4224 35.1948L28.793 33.8241Z" fill="#E7B144"/>
</g>
<defs>
<clipPath id="clip0_264_4072">
<rect width="24" height="24" fill="white" transform="translate(12 12.2002)"/>
</clipPath>
</defs>
</svg>
