<svg width="42" height="42" viewBox="0 0 42 42" fill="none" xmlns="http://www.w3.org/2000/svg">
<g filter="url(#filter0_d_198_381)">
<rect x="1" y="1" width="40" height="40" rx="20" fill="#120D02" fill-opacity="0.1" shape-rendering="crispEdges"/>
<path d="M25.8262 25.9913V20.6925C25.8262 19.3763 24.7612 18.3 23.4487 18.285L22.8449 18.8888C22.8187 18.915 22.7887 18.9263 22.7587 18.9338C22.7512 18.9338 22.7437 18.9338 22.7362 18.9375C22.7287 18.9375 22.7212 18.9413 22.7099 18.9413C22.6837 18.9413 22.6612 18.9375 22.6387 18.9263C22.6039 18.9119 22.5743 18.8874 22.5535 18.856C22.5328 18.8246 22.522 18.7876 22.5224 18.75V18.2813H15.5737C15.4762 18.2813 15.3824 18.2888 15.2887 18.3C15.2699 18.3 15.2512 18.3075 15.2324 18.3075C15.1424 18.3188 15.0562 18.3375 14.9662 18.36C13.9274 18.63 13.1587 19.5713 13.1587 20.6888V25.9875C13.1587 27.315 14.2387 28.395 15.5699 28.395H23.4187C24.7462 28.395 25.8262 27.315 25.8262 25.9875V25.9913ZM15.1874 21.6413C15.1874 20.805 15.8662 20.1263 16.7024 20.1263C17.5387 20.1263 18.2174 20.805 18.2174 21.6413C18.2174 22.4775 17.5387 23.1563 16.7024 23.1563C15.8662 23.1563 15.1874 22.4775 15.1874 21.6413ZM20.8649 26.7H18.1162C16.9949 26.7 16.0837 25.7888 16.0837 24.6675C16.0837 24.5625 16.1699 24.4763 16.2749 24.4763H22.7062C22.8112 24.4763 22.8974 24.5625 22.8974 24.6675C22.8974 25.7888 21.9862 26.7 20.8649 26.7ZM22.2824 23.1563C21.4462 23.1563 20.7674 22.4775 20.7674 21.6413C20.7674 20.805 21.4462 20.1263 22.2824 20.1263C23.1187 20.1263 23.7974 20.805 23.7974 21.6413C23.7974 22.4775 23.1187 23.1563 22.2824 23.1563ZM16.8449 14.3625C16.8369 14.0292 16.6988 13.7123 16.4602 13.4794C16.2216 13.2466 15.9015 13.1162 15.5681 13.1162C15.2347 13.1162 14.9145 13.2466 14.6759 13.4794C14.4373 13.7123 14.2993 14.0292 14.2912 14.3625C14.2912 14.8463 14.5612 15.285 14.9999 15.5063C15.0862 15.5513 15.1799 15.5813 15.2774 15.6038C15.5624 15.6713 15.8737 15.6375 16.1399 15.5025C16.3521 15.3972 16.5305 15.2346 16.6551 15.0331C16.7797 14.8317 16.8455 14.5994 16.8449 14.3625ZM15.1049 17.9438C15.2587 17.9175 15.4124 17.9025 15.5699 17.9025H16.0349V15.9563C15.7387 16.0463 15.4087 16.0463 15.1049 15.9563V17.9438Z" fill="#120D02"/>
<path d="M22.2863 22.7699C22.9118 22.7699 23.4188 22.2628 23.4188 21.6374C23.4188 21.0119 22.9118 20.5049 22.2863 20.5049C21.6608 20.5049 21.1538 21.0119 21.1538 21.6374C21.1538 22.2628 21.6608 22.7699 22.2863 22.7699Z" fill="#120D02"/>
<path d="M16.7062 22.7699C17.3317 22.7699 17.8387 22.2628 17.8387 21.6374C17.8387 21.0119 17.3317 20.5049 16.7062 20.5049C16.0808 20.5049 15.5737 21.0119 15.5737 21.6374C15.5737 22.2628 16.0808 22.7699 16.7062 22.7699Z" fill="#120D02"/>
<path d="M18.12 26.3137H20.8687C21.7162 26.3137 22.4137 25.6725 22.5075 24.855H16.4813C16.5284 25.2566 16.7212 25.627 17.0233 25.8959C17.3254 26.1648 17.7156 26.3135 18.12 26.3137ZM27.6825 20.9475H26.2087V25.7288H27.6825C28.0688 25.7288 28.4325 25.5187 28.6275 25.185C28.725 25.02 28.7738 24.8325 28.7738 24.6412V22.0387C28.7738 21.4388 28.2862 20.9475 27.6825 20.9475ZM10.2188 22.0387V24.6412C10.2188 24.8325 10.2675 25.02 10.365 25.185C10.56 25.5225 10.92 25.7325 11.31 25.7325H12.7838V20.9513H11.31C10.71 20.9513 10.2188 21.4387 10.2188 22.0425V22.0387ZM27.6675 26.1112V29.2537C27.6675 30.165 26.925 30.9075 26.0175 30.9075H21.5325C21.5325 30.9075 21.5362 30.93 21.54 30.9412C21.555 30.99 21.57 31.035 21.5812 31.0837C21.585 31.1062 21.5925 31.1287 21.5963 31.155C21.6075 31.2263 21.615 31.3013 21.615 31.3725C21.615 31.4438 21.6075 31.5188 21.5963 31.59C21.5925 31.6125 21.585 31.635 21.5812 31.6575C21.57 31.7062 21.5587 31.755 21.54 31.8038C21.54 31.815 21.5362 31.8263 21.5325 31.8337H26.0175C27.4388 31.8337 28.5975 30.675 28.5975 29.25V25.785C28.3387 25.9912 28.0163 26.1075 27.6788 26.1075H27.6675V26.1112ZM19.4963 30.1238C18.5363 30.1238 17.7563 30.6862 17.7563 31.3762C17.7563 32.0662 18.5363 32.6287 19.4963 32.6287C20.1675 32.6287 20.7675 32.3587 21.06 31.9275C21.1762 31.755 21.2362 31.5713 21.2362 31.38C21.2362 31.1887 21.1762 31.005 21.06 30.8325C20.7638 30.3975 20.1675 30.1312 19.4963 30.1312V30.1238ZM30.8475 9.375H22.0275C21.5138 9.375 21.0938 9.795 21.0938 10.3088V15.0525C21.0938 15.5662 21.5138 15.9862 22.0275 15.9862H22.71C22.815 15.9862 22.9012 16.0725 22.9012 16.1775V18.2925L25.1512 16.0425C25.1888 16.005 25.2338 15.9862 25.2863 15.9862H30.8475C31.3612 15.9862 31.7812 15.5662 31.7812 15.0525V10.3088C31.7812 9.795 31.3612 9.375 30.8475 9.375ZM29.3888 14.8088H23.4862C23.25 14.8088 23.025 14.7075 22.875 14.5275C22.7985 14.438 22.7425 14.333 22.7108 14.2196C22.679 14.1063 22.6724 13.9874 22.6912 13.8713C22.7512 13.4887 23.1075 13.1962 23.5162 13.1962H29.3888C29.8312 13.1962 30.195 13.5563 30.195 14.0025C30.195 14.4488 29.835 14.8088 29.3888 14.8088ZM29.3888 12.1575H23.4862C23.25 12.1575 23.025 12.0563 22.875 11.8763C22.7985 11.7868 22.7425 11.6817 22.7108 11.5684C22.679 11.4551 22.6724 11.3362 22.6912 11.22C22.7512 10.8375 23.1075 10.545 23.5162 10.545H29.3888C29.8312 10.545 30.195 10.905 30.195 11.3512C30.195 11.7975 29.835 12.1575 29.3888 12.1575Z" fill="#120D02"/>
<path d="M29.3927 10.9316H23.5202C23.2952 10.9316 23.1039 11.0816 23.0739 11.2841C23.0552 11.4116 23.0889 11.5354 23.1677 11.6329C23.2464 11.7266 23.3664 11.7829 23.4902 11.7829H29.3927C29.6252 11.7829 29.8164 11.5916 29.8164 11.3591C29.8164 11.1266 29.6252 10.9354 29.3927 10.9354V10.9316ZM29.3927 13.5829H23.5202C23.2952 13.5829 23.1039 13.7329 23.0739 13.9354C23.0552 14.0629 23.0889 14.1866 23.1677 14.2841C23.2464 14.3779 23.3664 14.4341 23.4902 14.4341H29.3927C29.6252 14.4341 29.8164 14.2429 29.8164 14.0104C29.8164 13.7779 29.6252 13.5866 29.3927 13.5866V13.5829Z" fill="#120D02"/>
</g>
<defs>
<filter id="filter0_d_198_381" x="0" y="0" width="42" height="42" filterUnits="userSpaceOnUse" color-interpolation-filters="sRGB">
<feFlood flood-opacity="0" result="BackgroundImageFix"/>
<feColorMatrix in="SourceAlpha" type="matrix" values="0 0 0 0 0 0 0 0 0 0 0 0 0 0 0 0 0 0 127 0" result="hardAlpha"/>
<feMorphology radius="1" operator="dilate" in="SourceAlpha" result="effect1_dropShadow_198_381"/>
<feOffset/>
<feComposite in2="hardAlpha" operator="out"/>
<feColorMatrix type="matrix" values="0 0 0 0 0.760784 0 0 0 0 1 0 0 0 0 1 0 0 0 0.7 0"/>
<feBlend mode="normal" in2="BackgroundImageFix" result="effect1_dropShadow_198_381"/>
<feBlend mode="normal" in="SourceGraphic" in2="effect1_dropShadow_198_381" result="shape"/>
</filter>
</defs>
</svg>
