<svg width="48" height="48" viewBox="0 0 48 48" fill="none" xmlns="http://www.w3.org/2000/svg">
<g filter="url(#filter0_d_198_391)">
<rect x="4" y="4" width="40" height="40" rx="20" fill="#E7B144" fill-opacity="0.1" shape-rendering="crispEdges"/>
<g clip-path="url(#clip0_198_391)">
<path fill-rule="evenodd" clip-rule="evenodd" d="M24 35V33.4848C28.185 33.2265 31.5 29.7505 31.5 25.5V24.5C31.5 24.224 31.275 24 31 24C30.725 24 30.5 24.224 30.5 24.5V25.5C30.5 29.366 27.365 32.5 23.5 32.5C19.635 32.5 16.5 29.366 16.5 25.5V24.5C16.5 24.224 16.275 24 16 24C15.725 24 15.5 24.224 15.5 24.5V25.5C15.5 29.7505 18.815 33.2265 23 33.4848V35H20.5C20.225 35 20 35.224 20 35.5C20 35.776 20.225 36 20.5 36H26.5C26.775 36 27 35.776 27 35.5C27 35.224 26.775 35 26.5 35H24ZM29.5 18.6157V25.5C29.5 28.8137 26.815 31.5 23.5 31.5C20.185 31.5 17.5 28.8137 17.5 25.5V18C17.5 14.6862 20.185 12 23.5 12C24.5425 12 25.525 12.2665 26.38 12.735L26.53 12.3265C26.6025 12.1302 26.79 12 27 12C27.21 12 27.3975 12.1302 27.47 12.3265L28.6725 15.578L31.9225 16.781C32.0187 16.8161 32.1017 16.8799 32.1604 16.9638C32.2191 17.0477 32.2506 17.1476 32.2506 17.25C32.2506 17.3524 32.2191 17.4523 32.1604 17.5362C32.1017 17.6201 32.0187 17.6839 31.9225 17.719L29.5 18.6157ZM22.5075 19.25L23.115 20.8923L24.7575 21.5L23.115 22.1077L22.5075 23.75L21.9 22.1077L20.2575 21.5L21.9 20.8923L22.5075 19.25ZM27 13.9408L27.815 16.1405C27.865 16.2775 27.9725 16.3853 28.11 16.436L30.31 17.25L28.11 18.064C27.9725 18.1147 27.865 18.2225 27.815 18.3595L27 20.5592L26.185 18.3595C26.135 18.2225 26.0275 18.1147 25.89 18.064L23.69 17.25L25.89 16.436C26.0275 16.3853 26.135 16.2775 26.185 16.1405L27 13.9408ZM30.5 13.5H30C29.725 13.5 29.5 13.724 29.5 14C29.5 14.276 29.725 14.5 30 14.5H30.5V15C30.5 15.276 30.725 15.5 31 15.5C31.275 15.5 31.5 15.276 31.5 15V14.5H32C32.275 14.5 32.5 14.276 32.5 14C32.5 13.724 32.275 13.5 32 13.5H31.5V13C31.5 12.724 31.275 12.5 31 12.5C30.725 12.5 30.5 12.724 30.5 13V13.5Z" fill="#E7B144"/>
</g>
</g>
<defs>
<filter id="filter0_d_198_391" x="0" y="0" width="48" height="48" filterUnits="userSpaceOnUse" color-interpolation-filters="sRGB">
<feFlood flood-opacity="0" result="BackgroundImageFix"/>
<feColorMatrix in="SourceAlpha" type="matrix" values="0 0 0 0 0 0 0 0 0 0 0 0 0 0 0 0 0 0 127 0" result="hardAlpha"/>
<feMorphology radius="4" operator="dilate" in="SourceAlpha" result="effect1_dropShadow_198_391"/>
<feOffset/>
<feComposite in2="hardAlpha" operator="out"/>
<feColorMatrix type="matrix" values="0 0 0 0 0.760784 0 0 0 0 1 0 0 0 0 1 0 0 0 0.3 0"/>
<feBlend mode="normal" in2="BackgroundImageFix" result="effect1_dropShadow_198_391"/>
<feBlend mode="normal" in="SourceGraphic" in2="effect1_dropShadow_198_391" result="shape"/>
</filter>
<clipPath id="clip0_198_391">
<rect width="24" height="24" fill="white" transform="translate(12 12)"/>
</clipPath>
</defs>
</svg>
