<svg width="48" height="48" viewBox="0 0 48 48" fill="none" xmlns="http://www.w3.org/2000/svg">
<g filter="url(#filter0_d_198_429)">
<rect x="4" y="4" width="40" height="40" rx="20" fill="#E7B144" fill-opacity="0.1" shape-rendering="crispEdges"/>
<path d="M18.7792 27C18.7612 26.796 18.75 15.4402 18.75 15.4402C18.9922 15.3427 19.2435 15.2625 19.5 15.1965V23.583C20.0186 22.4452 20.7878 21.4393 21.75 20.6407V15.0578C22.0029 15.0908 22.2534 15.1402 22.5 15.2055V20.094C23.194 19.6408 23.9526 19.2954 24.75 19.0695V16.3395C25.02 16.5577 25.2712 16.7955 25.5 17.0573V18.8925C25.9875 18.8025 26.487 18.7492 27 18.7492C27.201 18.7492 27.9893 18.8182 28.1827 18.8467C27.2572 15.756 24.3938 13.5 21 13.5C16.8578 13.5 13.5 16.8578 13.5 21C13.5 24.3938 15.7552 27.2572 18.8475 28.1827C18.819 27.9893 18.7935 27.189 18.7792 27ZM16.5 24.9495C16.2115 24.62 15.96 24.2598 15.75 23.8755V18.0975C15.9611 17.719 16.2126 17.3644 16.5 17.04V24.9495Z" fill="#E7B144"/>
<path d="M28.5 21C28.4983 20.5407 28.4544 20.0825 28.3688 19.6313C27.9175 19.5456 27.4593 19.5017 27 19.5C22.8645 19.5 19.5 22.8645 19.5 27C19.5 27.468 19.5488 27.9248 19.6313 28.3688C20.0825 28.4544 20.5407 28.4983 21 28.5C25.1355 28.5 28.5 25.1355 28.5 21Z" fill="#E7B144"/>
<path d="M29.1532 19.8262C29.2124 20.2259 29.2499 20.6152 29.2499 20.9999C29.2499 21.5129 29.1967 22.0124 29.1067 22.4999H30.9449C31.2082 22.7309 31.4557 22.9777 31.6747 23.2499H28.9297C28.704 24.0473 28.3588 24.8059 27.9059 25.4999H32.8034C32.8672 25.7452 32.9167 25.9949 32.9489 26.2499H27.3599C26.5614 27.2122 25.5555 27.9813 24.4177 28.4999H32.8027C32.7381 28.755 32.6567 29.0056 32.5589 29.2499H20.9999C20.6152 29.2499 20.2259 29.2124 19.8262 29.1532C20.7539 32.2409 23.6137 34.4999 26.9999 34.4999C31.1354 34.4999 34.4999 31.1354 34.4999 26.9999C34.4999 23.6137 32.2409 20.7539 29.1532 19.8262ZM29.8979 32.2499H24.1154C23.7344 32.0399 23.3804 31.7864 23.0542 31.4999H30.9554C30.6307 31.7849 30.2789 32.0392 29.8979 32.2499Z" fill="#E7B144"/>
</g>
<defs>
<filter id="filter0_d_198_429" x="0" y="0" width="48" height="48" filterUnits="userSpaceOnUse" color-interpolation-filters="sRGB">
<feFlood flood-opacity="0" result="BackgroundImageFix"/>
<feColorMatrix in="SourceAlpha" type="matrix" values="0 0 0 0 0 0 0 0 0 0 0 0 0 0 0 0 0 0 127 0" result="hardAlpha"/>
<feMorphology radius="4" operator="dilate" in="SourceAlpha" result="effect1_dropShadow_198_429"/>
<feOffset/>
<feComposite in2="hardAlpha" operator="out"/>
<feColorMatrix type="matrix" values="0 0 0 0 0.760784 0 0 0 0 1 0 0 0 0 1 0 0 0 0.3 0"/>
<feBlend mode="normal" in2="BackgroundImageFix" result="effect1_dropShadow_198_429"/>
<feBlend mode="normal" in="SourceGraphic" in2="effect1_dropShadow_198_429" result="shape"/>
</filter>
</defs>
</svg>
