<svg width="48" height="48" viewBox="0 0 48 48" fill="none" xmlns="http://www.w3.org/2000/svg">
<g filter="url(#filter0_d_198_464)">
<rect x="4" y="4" width="40" height="40" rx="20" fill="#E7B144" fill-opacity="0.1" shape-rendering="crispEdges"/>
<path d="M21.7905 31.5L21.291 33H29.25V31.5H21.7905ZM16.5 26.2095V18.75H15V26.709L16.5 26.2095ZM18.75 26.25L14.25 27.75L13.5 33.75L15.885 31.365C15.7967 31.172 15.7506 30.9623 15.75 30.75C15.75 30.4533 15.838 30.1633 16.0028 29.9166C16.1676 29.67 16.4019 29.4777 16.676 29.3642C16.9501 29.2506 17.2517 29.2209 17.5426 29.2788C17.8336 29.3367 18.1009 29.4796 18.3107 29.6893C18.5204 29.8991 18.6633 30.1664 18.7212 30.4574C18.7791 30.7483 18.7494 31.0499 18.6358 31.324C18.5223 31.5981 18.33 31.8324 18.0834 31.9972C17.8367 32.162 17.5467 32.25 17.25 32.25C17.0303 32.25 16.8225 32.1997 16.635 32.115L14.25 34.5L20.25 33.75L21.75 29.25L18.75 26.25ZM17.25 18H14.25C14.0511 18 13.8603 17.921 13.7197 17.7803C13.579 17.6397 13.5 17.4489 13.5 17.25V14.25C13.5 14.0511 13.579 13.8603 13.7197 13.7197C13.8603 13.579 14.0511 13.5 14.25 13.5H17.25C17.4489 13.5 17.6397 13.579 17.7803 13.7197C17.921 13.8603 18 14.0511 18 14.25V17.25C18 17.4489 17.921 17.6397 17.7803 17.7803C17.6397 17.921 17.4489 18 17.25 18ZM33.75 34.5H30.75C30.5511 34.5 30.3603 34.421 30.2197 34.2803C30.079 34.1397 30 33.9489 30 33.75V30.75C30 30.5511 30.079 30.3603 30.2197 30.2197C30.3603 30.079 30.5511 30 30.75 30H33.75C33.9489 30 34.1397 30.079 34.2803 30.2197C34.421 30.3603 34.5 30.5511 34.5 30.75V33.75C34.5 33.9489 34.421 34.1397 34.2803 34.2803C34.1397 34.421 33.9489 34.5 33.75 34.5ZM33.75 18H30.75C30.5511 18 30.3603 17.921 30.2197 17.7803C30.079 17.6397 30 17.4489 30 17.25V14.25C30 14.0511 30.079 13.8603 30.2197 13.7197C30.3603 13.579 30.5511 13.5 30.75 13.5H33.75C33.9489 13.5 34.1397 13.579 34.2803 13.7197C34.421 13.8603 34.5 14.0511 34.5 14.25V17.25C34.5 17.4489 34.421 17.6397 34.2803 17.7803C34.1397 17.921 33.9489 18 33.75 18ZM18.75 15H29.25V16.5H18.75V15ZM31.5 18.75H33V29.25H31.5V18.75ZM23.25 29.25C23.1515 29.2501 23.0539 29.2307 22.9629 29.193C22.872 29.1553 22.7893 29.1 22.7198 29.0303L18.9698 25.2803C18.8981 25.2111 18.841 25.1283 18.8017 25.0368C18.7624 24.9453 18.7417 24.8469 18.7408 24.7473C18.7399 24.6477 18.7589 24.549 18.7966 24.4568C18.8343 24.3646 18.89 24.2809 18.9605 24.2105C19.0309 24.14 19.1146 24.0843 19.2068 24.0466C19.299 24.0089 19.3977 23.9899 19.4973 23.9908C19.5969 23.9917 19.6953 24.0124 19.7868 24.0517C19.8783 24.091 19.9611 24.1481 20.0302 24.2197L23.7802 27.9697C23.8851 28.0746 23.9565 28.2083 23.9854 28.3537C24.0144 28.4992 23.9995 28.65 23.9428 28.787C23.886 28.924 23.7899 29.0411 23.6666 29.1236C23.5433 29.206 23.3983 29.25 23.25 29.25ZM30.7515 19.5L23.5627 26.6887L21.3127 24.4387L28.5015 17.25L30.7515 19.5Z" fill="#E7B144"/>
</g>
<defs>
<filter id="filter0_d_198_464" x="0" y="0" width="48" height="48" filterUnits="userSpaceOnUse" color-interpolation-filters="sRGB">
<feFlood flood-opacity="0" result="BackgroundImageFix"/>
<feColorMatrix in="SourceAlpha" type="matrix" values="0 0 0 0 0 0 0 0 0 0 0 0 0 0 0 0 0 0 127 0" result="hardAlpha"/>
<feMorphology radius="4" operator="dilate" in="SourceAlpha" result="effect1_dropShadow_198_464"/>
<feOffset/>
<feComposite in2="hardAlpha" operator="out"/>
<feColorMatrix type="matrix" values="0 0 0 0 0.760784 0 0 0 0 1 0 0 0 0 1 0 0 0 0.3 0"/>
<feBlend mode="normal" in2="BackgroundImageFix" result="effect1_dropShadow_198_464"/>
<feBlend mode="normal" in="SourceGraphic" in2="effect1_dropShadow_198_464" result="shape"/>
</filter>
</defs>
</svg>
