<svg width="48" height="48" viewBox="0 0 48 48" fill="none" xmlns="http://www.w3.org/2000/svg">
<g filter="url(#filter0_d_198_483)">
<rect x="4" y="4" width="40" height="40" rx="20" fill="#E7B144" fill-opacity="0.1" shape-rendering="crispEdges"/>
<g clip-path="url(#clip0_198_483)">
<path d="M33.6077 16.0542C33.5514 16.0017 33.4952 15.9454 33.4352 15.8929C28.6052 11.4942 21.0152 11.4979 16.1889 15.9042C10.7514 20.8654 10.6089 29.3029 15.7502 34.4442L15.7914 34.4892C17.6477 36.3342 20.8164 35.2242 21.1127 32.6254L21.1389 32.3817C21.3189 30.8367 22.5864 29.6442 24.1427 29.5692L28.5827 29.3554C35.3514 29.0254 38.5352 20.7079 33.6077 16.0542ZM17.3964 26.6254C16.8758 26.7573 16.3241 26.6775 15.8623 26.4033C15.4005 26.1292 15.0662 25.6831 14.9327 25.1629C14.8015 24.6418 14.8822 24.09 15.157 23.6282C15.4318 23.1665 15.8783 22.8324 16.3989 22.6992C17.4827 22.4254 18.5852 23.0779 18.8589 24.1617C18.9916 24.6823 18.9121 25.2344 18.6379 25.6964C18.3636 26.1584 17.917 26.4926 17.3964 26.6254ZM20.7864 20.5917C20.2658 20.7233 19.7142 20.6427 19.2529 20.3678C18.7916 20.0928 18.4584 19.646 18.3264 19.1254C18.0489 18.0417 18.7052 16.9429 19.7889 16.6654C20.0465 16.5995 20.3145 16.5851 20.5777 16.6229C20.8408 16.6608 21.0939 16.7502 21.3225 16.8861C21.551 17.0219 21.7505 17.2016 21.9095 17.4147C22.0684 17.6278 22.1838 17.8702 22.2489 18.1279C22.3816 18.6486 22.3021 19.2006 22.0279 19.6627C21.7536 20.1247 21.307 20.4589 20.7864 20.5917ZM27.7202 19.6167C27.4626 19.6826 27.1946 19.6971 26.9314 19.6592C26.6682 19.6213 26.4151 19.5319 26.1866 19.396C25.9581 19.2602 25.7586 19.0805 25.5996 18.8674C25.4406 18.6543 25.3253 18.412 25.2602 18.1542C25.1942 17.8966 25.1798 17.6286 25.2176 17.3654C25.2555 17.1022 25.3449 16.8491 25.4808 16.6206C25.6167 16.3921 25.7963 16.1926 26.0094 16.0336C26.2225 15.8747 26.4649 15.7593 26.7227 15.6942C26.9802 15.6283 27.2483 15.6138 27.5114 15.6517C27.7746 15.6895 28.0277 15.779 28.2562 15.9148C28.4848 16.0507 28.6842 16.2303 28.8432 16.4434C29.0022 16.6565 29.1175 16.8989 29.1827 17.1567C29.2486 17.4142 29.263 17.6823 29.2252 17.9455C29.1873 18.2086 29.0979 18.4617 28.962 18.6902C28.8262 18.9188 28.6465 19.1183 28.4334 19.2772C28.2203 19.4362 27.9779 19.5516 27.7202 19.6167Z" fill="#E7B144"/>
</g>
</g>
<defs>
<filter id="filter0_d_198_483" x="0" y="0" width="48" height="48" filterUnits="userSpaceOnUse" color-interpolation-filters="sRGB">
<feFlood flood-opacity="0" result="BackgroundImageFix"/>
<feColorMatrix in="SourceAlpha" type="matrix" values="0 0 0 0 0 0 0 0 0 0 0 0 0 0 0 0 0 0 127 0" result="hardAlpha"/>
<feMorphology radius="4" operator="dilate" in="SourceAlpha" result="effect1_dropShadow_198_483"/>
<feOffset/>
<feComposite in2="hardAlpha" operator="out"/>
<feColorMatrix type="matrix" values="0 0 0 0 0.760784 0 0 0 0 1 0 0 0 0 1 0 0 0 0.3 0"/>
<feBlend mode="normal" in2="BackgroundImageFix" result="effect1_dropShadow_198_483"/>
<feBlend mode="normal" in="SourceGraphic" in2="effect1_dropShadow_198_483" result="shape"/>
</filter>
<clipPath id="clip0_198_483">
<rect width="24" height="24" fill="white" transform="translate(12 12)"/>
</clipPath>
</defs>
</svg>
