<svg width="48" height="48" viewBox="0 0 48 48" fill="none" xmlns="http://www.w3.org/2000/svg">
<path d="M0 8C0 3.58172 3.58172 0 8 0H40C44.4183 0 48 3.58172 48 8V40C48 44.4183 44.4183 48 40 48H8C3.58172 48 0 44.4183 0 40V8Z" fill="#FDF7EC"/>
<g clip-path="url(#clip0_202_3096)">
<path d="M26.7367 14.4772L25.6582 15.5322L25.9132 17.0222C25.9544 17.2652 25.7683 17.4897 25.5187 17.4897C25.3833 17.4897 25.4536 17.5078 24.0002 16.7407L22.6682 17.4437C22.3757 17.5981 22.0318 17.3493 22.0872 17.0222L22.3422 15.5322L21.2637 14.4772C21.0263 14.2452 21.1593 13.8429 21.4857 13.7952L22.9747 13.5782L23.6412 12.2231C23.7877 11.9258 24.2125 11.9254 24.3592 12.2231L25.0257 13.5782L26.5147 13.7952C26.8417 13.843 26.9736 14.2457 26.7367 14.4772ZM19.8264 16.5243L19.7791 16.2488C19.9641 16.0685 20.1713 15.9232 20.0805 15.6436C19.9897 15.3642 19.7347 15.368 19.481 15.3311L19.3573 15.0805C19.2109 14.7838 18.7864 14.7836 18.6399 15.0805L18.5162 15.3311C18.2606 15.3683 18.0075 15.364 17.9167 15.6436C17.8259 15.923 18.0344 16.0698 18.218 16.2488L18.1708 16.5243C18.1149 16.8503 18.4581 17.1 18.7512 16.9459L18.9985 16.8158C19.2518 16.949 19.307 16.9919 19.432 16.9919C19.6788 16.9919 19.8685 16.7696 19.8264 16.5243ZM16.3263 18.5243L16.2791 18.2488C16.464 18.0685 16.6713 17.9232 16.5804 17.6436C16.4896 17.3642 16.2347 17.3681 15.9809 17.3312L15.8572 17.0805C15.7108 16.7838 15.2864 16.7836 15.1398 17.0805L15.0161 17.3312C14.7605 17.3683 14.5074 17.364 14.4166 17.6436C14.3258 17.923 14.5344 18.0698 14.718 18.2488L14.6707 18.5243C14.6148 18.8503 14.958 19.1 15.2511 18.9459L15.4985 18.8158C15.7517 18.949 15.807 18.9919 15.9319 18.9919C16.1787 18.9919 16.3684 18.7696 16.3263 18.5243ZM29.8295 16.5243L29.7822 16.2488C29.9672 16.0685 30.1744 15.9232 30.0836 15.6436C29.9928 15.3642 29.7378 15.368 29.4841 15.3311C29.3697 15.0994 29.2957 14.8575 29.0017 14.8575C28.708 14.8575 28.6328 15.1012 28.5193 15.3311L28.2427 15.3713C27.9153 15.4189 27.784 15.8225 28.021 16.0537L28.2212 16.2488C28.1775 16.5035 28.0952 16.7427 28.3331 16.9155C28.5707 17.0882 28.7747 16.9352 29.0017 16.8158C29.255 16.949 29.3102 16.9919 29.4352 16.9919C29.6819 16.9919 29.8715 16.7696 29.8295 16.5243ZM33.3295 18.5243L33.2823 18.2488C33.4672 18.0685 33.6745 17.9232 33.5836 17.6436C33.4928 17.3642 33.2379 17.3681 32.9841 17.3312C32.8698 17.0994 32.7957 16.8576 32.5018 16.8576C32.208 16.8576 32.1329 17.1012 32.0194 17.3312L31.7428 17.3714C31.4154 17.419 31.284 17.8226 31.5211 18.0537L31.7212 18.2488C31.6775 18.5035 31.5953 18.7427 31.8331 18.9155C32.0708 19.0882 32.2748 18.9352 32.5018 18.8158C32.755 18.949 32.8103 18.9919 32.9352 18.9919C33.1819 18.9919 33.3716 18.7696 33.3295 18.5243ZM18.1081 35.5886C18.1149 35.8139 17.9337 36 17.7082 36H15.6C14.7164 36 14 35.2836 14 34.4V26.3999C14 25.5162 14.7164 24.7998 15.6 24.7998H17.7001C17.921 24.7998 18.1001 24.9793 18.1001 25.2002C18.0996 32.7333 18.087 34.8984 18.1081 35.5886ZM16.75 28.7999C16.75 28.6938 16.7079 28.5921 16.6329 28.517C16.5579 28.442 16.4561 28.3999 16.35 28.3999C16.2439 28.3999 16.1422 28.442 16.0672 28.517C15.9922 28.5921 15.95 28.6938 15.95 28.7999V30.4999C15.95 30.606 15.9922 30.7077 16.0672 30.7828C16.1422 30.8578 16.2439 30.8999 16.35 30.8999C16.4561 30.8999 16.5579 30.8578 16.6329 30.7828C16.7079 30.7077 16.75 30.606 16.75 30.4999V28.7999ZM34.0003 26.3999V34.4C34.0003 35.2836 33.2839 36 32.4003 36H30.2924C30.067 36 29.8857 35.8138 29.8926 35.5885C29.9137 34.8996 29.9007 32.7377 29.9002 25.2002C29.9002 24.9793 30.0793 24.7998 30.3002 24.7998H32.4003C33.284 24.7998 34.0003 25.5162 34.0003 26.3999ZM32.0503 28.7999C32.0503 28.6938 32.0081 28.5921 31.9331 28.517C31.8581 28.442 31.7563 28.3999 31.6503 28.3999C31.5442 28.3999 31.4424 28.442 31.3674 28.517C31.2924 28.5921 31.2503 28.6938 31.2503 28.7999V30.4999C31.2503 30.606 31.2924 30.7077 31.3674 30.7828C31.4424 30.8578 31.5442 30.8999 31.6503 30.8999C31.7563 30.8999 31.8581 30.8578 31.9331 30.7828C32.0081 30.7077 32.0503 30.606 32.0503 30.4999V28.7999ZM23.0001 36H25.0002C25.1062 36 25.208 35.9578 25.283 35.8828C25.358 35.8078 25.4002 35.7061 25.4002 35.6V31.8499C25.4002 31.7438 25.358 31.6421 25.283 31.5671C25.208 31.4921 25.1062 31.4499 25.0002 31.4499H23.0001C22.894 31.4499 22.7923 31.4921 22.7173 31.5671C22.6423 31.6421 22.6001 31.7438 22.6001 31.8499V35.6C22.6001 35.7061 22.6423 35.8078 22.7173 35.8828C22.7923 35.9578 22.894 36 23.0001 36ZM29.1002 20.6998V35.6C29.1002 35.7061 29.0581 35.8078 28.9831 35.8828C28.908 35.9578 28.8063 36 28.7002 36H26.6002C26.4941 36 26.3924 35.9578 26.3173 35.8828C26.2423 35.8078 26.2002 35.7061 26.2002 35.6V31.0499C26.2002 30.9438 26.158 30.8421 26.083 30.7671C26.008 30.6921 25.9063 30.6499 25.8002 30.6499H22.2001C22.094 30.6499 21.9923 30.6921 21.9173 30.7671C21.8423 30.8421 21.8001 30.9438 21.8001 31.0499V35.6C21.8001 35.7061 21.758 35.8078 21.683 35.8828C21.6079 35.9578 21.5062 36 21.4001 36H19.3001C19.194 36 19.0922 35.9578 19.0172 35.8828C18.9422 35.8078 18.9001 35.7061 18.9001 35.6V20.6998C18.9001 19.8161 19.6164 19.0997 20.5001 19.0997H27.5002C28.3839 19.0997 29.1002 19.8161 29.1002 20.6998ZM26.0002 27.3999C26.0002 27.2938 25.958 27.192 25.883 27.117C25.808 27.042 25.7063 26.9999 25.6002 26.9999H22.4001C22.294 26.9999 22.1923 27.042 22.1173 27.117C22.0423 27.192 22.0001 27.2938 22.0001 27.3999C22.0001 27.506 22.0423 27.6077 22.1173 27.6827C22.1923 27.7577 22.294 27.7999 22.4001 27.7999H25.6002C25.7063 27.7999 25.808 27.7577 25.883 27.6827C25.958 27.6077 26.0002 27.506 26.0002 27.3999ZM26.7002 23.5498C26.7002 23.4437 26.658 23.342 26.583 23.267C26.508 23.1919 26.4063 23.1498 26.3002 23.1498H21.7001C21.594 23.1498 21.4923 23.1919 21.4173 23.267C21.3422 23.342 21.3001 23.4437 21.3001 23.5498C21.3001 23.6559 21.3422 23.7576 21.4173 23.8327C21.4923 23.9077 21.594 23.9498 21.7001 23.9498H26.3002C26.4063 23.9498 26.508 23.9077 26.583 23.8327C26.658 23.7576 26.7002 23.6559 26.7002 23.5498Z" fill="#E7B144"/>
</g>
<defs>
<clipPath id="clip0_202_3096">
<rect width="24" height="24" fill="white" transform="translate(12 12)"/>
</clipPath>
</defs>
</svg>
