<svg width="48" height="48" viewBox="0 0 48 48" fill="none" xmlns="http://www.w3.org/2000/svg">
<path d="M0 8C0 3.58172 3.58172 0 8 0H40C44.4183 0 48 3.58172 48 8V40C48 44.4183 44.4183 48 40 48H8C3.58172 48 0 44.4183 0 40V8Z" fill="#FDF7EC"/>
<g clip-path="url(#clip0_203_16653)">
<path fill-rule="evenodd" clip-rule="evenodd" d="M26.7114 14.0387C26.6591 13.5027 26.4167 13.0032 26.0281 12.6304C25.6395 12.2576 25.1303 12.0362 24.5927 12.0062L24.5739 12.0054C24.1865 11.9934 23.7987 11.9961 23.4114 12.0137L23.4077 12.014C22.8722 12.0435 22.365 12.264 21.9783 12.6356C21.5916 13.0072 21.351 13.5051 21.3002 14.039C21.2814 14.2048 21.2627 14.3732 21.2477 14.522C20.5531 14.7239 19.8829 15.0014 19.2489 15.3497L18.8739 15.0403C18.4582 14.6975 17.9335 14.515 17.3948 14.5259C16.8561 14.5369 16.3391 14.7405 15.9377 15.0999C15.9336 15.1053 15.9285 15.1099 15.9227 15.1134C15.6414 15.3797 15.3677 15.6534 15.1089 15.9403C15.1089 15.941 15.1089 15.9422 15.1052 15.9433C14.7475 16.343 14.5447 16.8576 14.5337 17.3939C14.5227 17.9302 14.7042 18.4527 15.0452 18.8668C15.1502 18.9969 15.2589 19.1289 15.3527 19.2448C15.004 19.8788 14.7261 20.5492 14.5239 21.2439L14.0402 21.29C13.504 21.3407 13.0038 21.5822 12.6307 21.9707C12.2577 22.3592 12.0366 22.8687 12.0077 23.4065V23.4272C11.9964 23.8138 11.9964 24.2012 12.0152 24.5874V24.5919C12.0446 25.1276 12.2651 25.635 12.6366 26.022C13.0081 26.4091 13.5061 26.6501 14.0402 26.7013C14.2052 26.7197 14.3739 26.7373 14.5239 26.7527C14.7264 27.4475 15.0039 28.1177 15.3489 28.7518L15.0414 29.1272C14.6986 29.5424 14.5162 30.0668 14.5272 30.6051C14.5382 31.1434 14.742 31.6599 15.1014 32.0608L15.1127 32.0758C15.3791 32.3593 15.6568 32.6321 15.9452 32.8933C16.3443 33.2513 16.8587 33.4542 17.3947 33.4651C17.9308 33.4761 18.453 33.2943 18.8664 32.9529C18.9977 32.8487 19.1289 32.7422 19.2452 32.6477C19.8789 32.9964 20.5502 33.2739 21.2439 33.476L21.2927 33.9602C21.3436 34.496 21.585 34.9958 21.9731 35.3688C22.3612 35.7418 22.8702 35.9631 23.4077 35.9927L23.4264 35.9934C23.8164 36.0043 24.2027 36.0039 24.5889 35.9852L24.5927 35.9848C25.1284 35.9548 25.6357 35.7342 26.0229 35.3628C26.4101 34.9914 26.6517 34.4938 26.7039 33.9598C26.7189 33.794 26.7377 33.6257 26.7527 33.4768C27.4475 33.2756 28.1178 32.998 28.7514 32.6492L29.1264 32.9585C29.5421 33.3013 30.0669 33.4838 30.6056 33.4729C31.1443 33.462 31.6612 33.2583 32.0627 32.8989C32.0668 32.8935 32.0719 32.8889 32.0777 32.8854C32.3589 32.6192 32.6327 32.3454 32.8914 32.0585C32.8914 32.0578 32.8914 32.0567 32.8952 32.0555C33.2529 31.6558 33.4556 31.1412 33.4666 30.6049C33.4776 30.0686 33.2962 29.5461 32.9552 29.132C32.8502 29.0019 32.7414 28.8699 32.6477 28.754C32.9964 28.1203 33.2739 27.4498 33.4764 26.7549L33.9602 26.7088C34.4964 26.6581 34.9966 26.4166 35.3696 26.0281C35.7427 25.6397 35.9638 25.1301 35.9927 24.5923V24.5717C36.0039 24.185 36.0039 23.7977 35.9852 23.4114V23.4069C35.9558 22.8712 35.7353 22.3638 35.3638 21.9768C34.9922 21.5898 34.4942 21.3488 33.9602 21.2975C33.7952 21.2792 33.6264 21.2615 33.4764 21.2462C33.2755 20.5516 32.9988 19.8812 32.6514 19.247L32.9589 18.8717C33.3017 18.4564 33.4842 17.932 33.4732 17.3937C33.4622 16.8554 33.2584 16.3389 32.8989 15.938L32.8877 15.923C32.6214 15.6418 32.3477 15.3684 32.0589 15.1085C32.0589 15.1074 32.0589 15.1067 32.0552 15.1055C31.656 14.7475 31.1417 14.5446 30.6056 14.5337C30.0696 14.5228 29.5474 14.7045 29.1339 15.0459C29.0027 15.1502 28.8714 15.2567 28.7552 15.3512C28.1214 15.0024 27.4502 14.7249 26.7564 14.5228L26.7114 14.0387ZM25.2152 14.1815L25.3127 15.1873C25.3427 15.5083 25.5752 15.7734 25.8902 15.8465C26.7864 16.0547 27.6452 16.4102 28.4289 16.898C28.7027 17.0687 29.0552 17.0454 29.3027 16.8403C29.3027 16.8403 29.6777 16.5317 30.0789 16.2099C30.0827 16.2077 30.0827 16.2054 30.0864 16.2032C30.2233 16.0901 30.3962 16.0298 30.5737 16.0333C30.7511 16.0367 30.9215 16.1036 31.0539 16.2219C31.3089 16.451 31.5489 16.6925 31.7852 16.9404C32.0289 17.2217 32.0364 17.633 31.8039 17.9169L31.1589 18.6965C31.0585 18.8176 30.9989 18.9674 30.9888 19.1245C30.9787 19.2815 31.0186 19.4377 31.1027 19.5707C31.5908 20.3531 31.9456 21.2111 32.1527 22.1098C32.2277 22.4237 32.4902 22.6562 32.8127 22.6869C32.8127 22.6869 33.2964 22.733 33.8064 22.7897L33.8177 22.7908C34.1814 22.8257 34.4664 23.1219 34.4889 23.4875C34.5039 23.8299 34.5039 24.1727 34.4964 24.5154C34.4848 24.6937 34.4101 24.862 34.2858 24.9903C34.1614 25.1185 33.9955 25.1984 33.8177 25.2155L32.8127 25.3119C32.4902 25.3427 32.2277 25.5752 32.1527 25.889C31.9456 26.7877 31.5908 27.6457 31.1027 28.4282C30.9302 28.7019 30.9527 29.0537 31.1589 29.3023C31.1589 29.3023 31.4664 29.6765 31.7889 30.0782C31.7927 30.0808 31.7927 30.0838 31.7964 30.0868C32.0289 30.3695 32.0214 30.7802 31.7777 31.0535C31.5489 31.3063 31.3089 31.5478 31.0577 31.7825C30.7764 32.0297 30.3677 32.036 30.0827 31.8017L29.3027 31.1585C29.1815 31.0585 29.0319 30.9991 28.8751 30.9887C28.7183 30.9784 28.5622 31.0176 28.4289 31.1008C27.6461 31.5882 26.7884 31.9434 25.8902 32.1523C25.5752 32.2254 25.3427 32.4905 25.3127 32.8115C25.3127 32.8115 25.2677 33.2942 25.2114 33.8057C25.2114 33.8094 25.2077 33.8128 25.2077 33.8165C25.1913 33.9928 25.1123 34.1573 24.985 34.2803C24.8578 34.4033 24.6906 34.4767 24.5139 34.487C24.1689 34.5035 23.8277 34.5035 23.4827 34.4945C23.3049 34.4831 23.1369 34.4086 23.0091 34.2845C22.8812 34.1604 22.8019 33.9947 22.7852 33.8173L22.6877 32.8115C22.6729 32.6549 22.6091 32.5069 22.5054 32.3886C22.4018 32.2703 22.2635 32.1876 22.1102 32.1523C21.212 31.9434 20.3543 31.5882 19.5714 31.1008C19.4381 31.0176 19.282 30.9784 19.1252 30.9887C18.9684 30.9991 18.8189 31.0585 18.6977 31.1585C18.6977 31.1585 18.3227 31.4672 17.9214 31.7889C17.9177 31.7912 17.9177 31.7934 17.9139 31.7957C17.7771 31.9087 17.6042 31.969 17.4267 31.9655C17.2492 31.9621 17.0788 31.8952 16.9464 31.7769C16.6947 31.5469 16.452 31.3073 16.2189 31.0584C16.0997 30.9249 16.0319 30.7533 16.0278 30.5743C16.0236 30.3953 16.0834 30.2208 16.1964 30.0819L16.8414 29.3023C17.0477 29.0537 17.0702 28.7019 16.8977 28.4282C16.4095 27.6457 16.0547 26.7877 15.8477 25.889C15.7727 25.5752 15.5102 25.3427 15.1877 25.3119C15.1877 25.3119 14.7039 25.2658 14.1939 25.2092L14.1827 25.208C14.0062 25.1907 13.8417 25.111 13.7187 24.9833C13.5957 24.8556 13.5222 24.6883 13.5114 24.5113C13.4964 24.1689 13.4964 23.8262 13.5039 23.4834C13.5302 23.1137 13.8152 22.8182 14.1827 22.7833L15.1877 22.6869C15.3442 22.6718 15.4921 22.608 15.6105 22.5045C15.7289 22.401 15.8118 22.2629 15.8477 22.1098C16.0539 21.2113 16.4102 20.3533 16.8977 19.5707C17.0702 19.2969 17.0477 18.9452 16.8414 18.6965C16.8414 18.6965 16.5339 18.3223 16.2114 17.9207C16.2077 17.918 16.2077 17.915 16.2039 17.912C15.9714 17.6293 15.9789 17.2187 16.2227 16.9453C16.4533 16.6932 16.6935 16.4501 16.9427 16.2163C17.0761 16.0971 17.2478 16.0297 17.4266 16.0262C17.6055 16.0226 17.7797 16.0833 17.9177 16.1972L18.6977 16.8403C18.9452 17.0454 19.2977 17.0687 19.5714 16.898C20.3543 16.4106 21.212 16.0554 22.1102 15.8465C22.2635 15.8112 22.4018 15.7286 22.5054 15.6102C22.6091 15.4919 22.6729 15.3439 22.6877 15.1873C22.6877 15.1873 22.7327 14.7047 22.7889 14.1932C22.7927 14.1894 22.7927 14.186 22.7927 14.1823C22.8264 13.8174 23.1227 13.5328 23.4864 13.5118C23.8314 13.4953 24.1727 13.4953 24.5177 13.5043C24.8852 13.5287 25.1814 13.8152 25.2152 14.1815ZM29.1564 23.0143C29.2202 23.3334 29.2502 23.6627 29.2502 23.9994C29.2502 26.6747 27.2439 28.8853 24.6564 29.2085C24.4594 29.2336 24.2804 29.3359 24.1587 29.4929C24.037 29.6499 23.9827 29.8489 24.0077 30.0459C24.0195 30.1437 24.0506 30.2382 24.0991 30.3239C24.1476 30.4097 24.2126 30.485 24.2903 30.5455C24.3681 30.606 24.457 30.6506 24.552 30.6767C24.647 30.7027 24.7462 30.7097 24.8439 30.6973C28.1702 30.2814 30.7502 27.4393 30.7502 23.9994C30.7502 23.567 30.7089 23.144 30.6302 22.7345C30.6122 22.6379 30.5752 22.5457 30.5215 22.4634C30.4678 22.381 30.3984 22.3101 30.3172 22.2546C30.2361 22.1992 30.1447 22.1603 30.0485 22.1402C29.9523 22.1201 29.853 22.1192 29.7564 22.1375C29.5608 22.1746 29.3878 22.2876 29.2753 22.452C29.1629 22.6163 29.1201 22.8185 29.1564 23.0143ZM23.4002 20.7677C23.3516 20.6169 23.2565 20.4854 23.1285 20.3921C23.0004 20.2988 22.8461 20.2485 22.6877 20.2485C22.5293 20.2485 22.3749 20.2988 22.2469 20.3921C22.1189 20.4854 22.0237 20.6169 21.9752 20.7677L21.0339 23.6585L18.1427 24.5987C17.8352 24.6992 17.6252 24.9872 17.6252 25.3119C17.6252 25.6367 17.8352 25.9247 18.1427 26.0252L21.0339 26.9653L21.9752 29.8562C22.0237 30.007 22.1189 30.1385 22.2469 30.2318C22.3749 30.3251 22.5293 30.3753 22.6877 30.3753C22.8461 30.3753 23.0004 30.3251 23.1285 30.2318C23.2565 30.1385 23.3516 30.007 23.4002 29.8562L24.3414 26.9653L27.2327 26.0252C27.5402 25.9247 27.7502 25.6367 27.7502 25.3119C27.7502 24.9872 27.5402 24.6992 27.2327 24.5987L24.3414 23.6585L23.4002 20.7677ZM20.7264 28.1012C20.4872 27.9106 20.265 27.6994 20.0627 27.47C20.0064 27.4082 19.9539 27.3448 19.9014 27.2803C19.8398 27.2035 19.7637 27.1395 19.6774 27.0921C19.5911 27.0447 19.4962 27.0148 19.3984 27.004C19.3005 26.9933 19.2014 27.0019 19.1069 27.0294C19.0123 27.0569 18.9241 27.1028 18.8473 27.1644C18.7705 27.226 18.7065 27.3022 18.6591 27.3885C18.6117 27.4748 18.5818 27.5696 18.571 27.6675C18.5603 27.7654 18.5689 27.8644 18.5964 27.959C18.6239 28.0535 18.6698 28.1417 18.7314 28.2185C19.0437 28.6081 19.3983 28.9617 19.7889 29.2727C19.9443 29.397 20.1427 29.4545 20.3404 29.4326C20.5382 29.4106 20.7191 29.311 20.8434 29.1557C20.9677 29.0003 21.0253 28.8019 21.0033 28.6042C20.9814 28.4064 20.8818 28.2255 20.7264 28.1012ZM18.7914 23.3424C19.1139 20.7542 21.3264 18.7494 24.0002 18.7494C24.3377 18.7494 24.6677 18.7809 24.9864 18.8417C25.1818 18.8783 25.3838 18.8361 25.5482 18.7243C25.7126 18.6125 25.8261 18.4402 25.8639 18.245C25.9389 17.8382 25.6727 17.4455 25.2639 17.3679C24.8552 17.2903 24.4314 17.2494 24.0002 17.2494C20.5614 17.2494 17.7189 19.8283 17.3027 23.1564C17.2904 23.2543 17.2975 23.3536 17.3237 23.4486C17.3499 23.5437 17.3946 23.6327 17.4552 23.7105C17.5158 23.7883 17.5911 23.8534 17.6769 23.902C17.7627 23.9506 17.8573 23.9818 17.9552 23.9938C18.1524 24.0178 18.351 23.9627 18.5077 23.8407C18.6644 23.7186 18.7664 23.5395 18.7914 23.3424ZM27.7127 18.8927C27.6641 18.7419 27.569 18.6104 27.441 18.5171C27.3129 18.4238 27.1586 18.3735 27.0002 18.3735C26.8418 18.3735 26.6874 18.4238 26.5594 18.5171C26.4314 18.6104 26.3362 18.7419 26.2877 18.8927L25.9464 19.9442L24.8927 20.2862C24.5852 20.3867 24.3752 20.6747 24.3752 20.9994C24.3752 21.3242 24.5852 21.6122 24.8927 21.7127L25.9464 22.0547L26.2877 23.1062C26.3362 23.257 26.4314 23.3885 26.5594 23.4818C26.6874 23.5751 26.8418 23.6253 27.0002 23.6253C27.1586 23.6253 27.3129 23.5751 27.441 23.4818C27.569 23.3885 27.6641 23.257 27.7127 23.1062L28.0539 22.0547L29.1077 21.7127C29.4152 21.6122 29.6252 21.3242 29.6252 20.9994C29.6252 20.6747 29.4152 20.3867 29.1077 20.2862L28.0539 19.9442L27.7127 18.8927Z" fill="#E7B144"/>
</g>
<defs>
<clipPath id="clip0_203_16653">
<rect width="24" height="24" fill="white" transform="translate(12 12)"/>
</clipPath>
</defs>
</svg>
