<svg width="48" height="48" viewBox="0 0 48 48" fill="none" xmlns="http://www.w3.org/2000/svg">
<path d="M0 8C0 3.58172 3.58172 0 8 0H40C44.4183 0 48 3.58172 48 8V40C48 44.4183 44.4183 48 40 48H8C3.58172 48 0 44.4183 0 40V8Z" fill="#FDF7EC"/>
<g clip-path="url(#clip0_202_3106)">
<path fill-rule="evenodd" clip-rule="evenodd" d="M28.996 26.6647L27.6422 30.2919C27.4558 30.7913 27.1646 31.2506 26.8073 30.8722C26.701 30.7596 26.6107 30.6086 26.6275 30.4426L26.926 27.499C26.9267 27.4906 26.9297 27.4827 26.9347 27.4759C26.9396 27.4692 26.9463 27.464 26.954 27.4607L28.9336 26.6054C28.942 26.6016 28.9513 26.6005 28.9604 26.6021C28.9694 26.6037 28.9778 26.608 28.9844 26.6144C28.9983 26.6276 29.0026 26.6467 28.996 26.6647ZM26.4289 34.1099V35.1183C26.4291 35.1424 26.4388 35.1654 26.4559 35.1824C26.4729 35.1995 26.4959 35.2092 26.52 35.2094H27.6444C27.6685 35.2091 27.6915 35.1994 27.7086 35.1824C27.7256 35.1654 27.7353 35.1424 27.7356 35.1183V34.1099C27.7356 34.0976 27.7306 34.0857 27.7219 34.0769C27.7131 34.0681 27.7012 34.0632 27.6888 34.0632H26.4757C26.4633 34.0632 26.4514 34.0681 26.4426 34.0769C26.4338 34.0857 26.4289 34.0975 26.4289 34.1099ZM20.264 34.1099V35.1183C20.264 35.1678 20.3057 35.2094 20.3552 35.2094H21.4796C21.5037 35.2091 21.5267 35.1994 21.5437 35.1824C21.5608 35.1654 21.5705 35.1424 21.5707 35.1183V34.1099C21.5707 34.0976 21.5658 34.0857 21.557 34.0769C21.5483 34.0681 21.5364 34.0632 21.524 34.0632H20.3108C20.2984 34.0632 20.2866 34.0681 20.2778 34.0769C20.269 34.0857 20.2641 34.0975 20.264 34.1099ZM35.4413 19.0792C34.8115 17.5617 31.3401 18.0765 29.6171 18.4277C29.6077 18.4295 29.5991 18.4342 29.5925 18.4411C29.5859 18.448 29.5816 18.4568 29.5803 18.4663C29.5787 18.4757 29.5801 18.4854 29.5843 18.494C29.5884 18.5026 29.5952 18.5097 29.6036 18.5143C29.7919 18.6201 29.9587 18.7604 30.0952 18.9278C30.1004 18.9344 30.1074 18.9394 30.1153 18.9423C30.1232 18.9452 30.1317 18.9459 30.14 18.9442C31.2475 18.7371 32.2202 18.6393 33.005 18.6585C35.1785 18.7115 35.5023 19.5492 34.0009 21.1199C33.5903 21.5494 33.0585 22.0071 32.4235 22.4791C32.4169 22.4839 32.4116 22.4905 32.4083 22.4981C32.4051 22.5057 32.4039 22.514 32.405 22.5222C32.4059 22.5304 32.409 22.5383 32.4139 22.5449C32.4189 22.5515 32.4256 22.5566 32.4332 22.5597L32.9787 22.7902C32.9947 22.7969 33.0117 22.7948 33.0254 22.7842C33.5844 22.3543 34.0604 21.9356 34.4404 21.538C35.3358 20.6014 35.7181 19.7462 35.4413 19.0792ZM31.8913 22.8594C31.6765 22.795 31.4592 22.7659 31.242 22.7722C30.7362 22.7866 30.4109 22.9708 29.9859 23.1848C29.9788 23.1885 29.9708 23.1903 29.9628 23.1899C29.9548 23.1896 29.9471 23.1871 29.9403 23.1828C29.9334 23.1787 29.9278 23.1729 29.9239 23.1659C29.92 23.1589 29.918 23.151 29.9181 23.143V20.4254C29.9181 19.4855 29.1503 18.7177 28.2104 18.7177H19.7892C18.8494 18.7177 18.0816 19.4855 18.0816 20.4254V28.6306C18.0816 28.6415 18.0779 28.6521 18.071 28.6605C18.0641 28.6689 18.0544 28.6746 18.0438 28.6766C17.3085 28.8198 16.6288 28.9163 16.0194 28.9641C14.4177 29.0895 13.3483 28.896 13.119 28.3434C12.9287 27.885 13.3363 27.1777 14.1943 26.3378C14.9772 25.5712 16.1208 24.7263 17.5285 23.8761C17.5355 23.872 17.5413 23.8662 17.5452 23.8591C17.5492 23.8521 17.5512 23.8441 17.5511 23.8361V23.239C17.5511 23.2217 17.5425 23.2069 17.5276 23.1984C17.5126 23.1898 17.4955 23.19 17.4806 23.1988C15.9103 24.1268 14.6334 25.0592 13.769 25.9054C12.7261 26.9266 12.2617 27.8616 12.5583 28.5763C12.9014 29.4029 14.1895 29.7167 16.0645 29.5699C17.5052 29.457 19.5113 28.9484 21.3842 28.3666C21.422 28.3548 21.4607 28.3453 21.4976 28.3312C22.0959 28.1022 20.8509 26.518 20.5389 26.0129C20.5307 25.9995 20.5295 25.9845 20.5357 25.9701C20.5418 25.9557 20.5534 25.946 20.5687 25.9426C20.5844 25.9392 20.6011 25.9407 20.6208 25.951L22.4545 26.9101C22.862 27.1232 23.2815 27.2593 23.6915 27.052L30.6332 23.5408C31.0404 23.3349 31.4675 23.3228 31.8929 23.5044L32.9915 23.9737C33.0881 24.015 33.0875 24.15 32.992 24.1899C28.1742 26.2716 23.3097 28.8338 18.1195 29.824C18.1088 29.826 18.0992 29.8317 18.0922 29.8401C18.0853 29.8484 18.0815 29.859 18.0815 29.8699V31.9065C18.0815 32.8462 18.8493 33.6141 19.7891 33.6141H28.2103C29.1501 33.6141 29.918 32.8463 29.918 31.9065V26.2108C29.918 26.1917 29.9287 26.1754 29.9462 26.1679L33.2319 24.7482C33.8151 24.4968 33.8139 23.6653 33.229 23.4155L32.5615 23.1304L32.5607 23.1301L31.8954 22.8609C31.894 22.8603 31.8927 22.8598 31.8913 22.8594ZM25.9544 18.1438V15.0758C25.9544 15.0629 25.9591 15.0518 25.9682 15.0427C25.9725 15.0382 25.9777 15.0348 25.9834 15.0324C25.9891 15.0301 25.9952 15.0289 26.0014 15.029C26.2187 15.0298 26.3998 15.0292 26.5845 14.8445C26.643 14.7862 26.6894 14.717 26.721 14.6407C26.7527 14.5645 26.7689 14.4828 26.7689 14.4002V13.4178C26.7689 13.0714 26.4866 12.7891 26.1403 12.7891H21.8595C21.5131 12.7891 21.2308 13.0714 21.2308 13.4178V14.4002C21.2308 14.7466 21.5131 15.0289 21.8595 15.0289H21.9985C22.0243 15.0289 22.0452 15.0499 22.0452 15.0756V18.1438C22.0452 18.1696 22.0663 18.1906 22.092 18.1906H22.6066C22.619 18.1905 22.6309 18.1856 22.6396 18.1768C22.6484 18.1681 22.6533 18.1562 22.6533 18.1438V15.0756C22.6533 15.0499 22.6744 15.0289 22.7001 15.0289H25.2994C25.3252 15.0289 25.3462 15.0499 25.3462 15.0756V18.1438C25.3462 18.1696 25.3672 18.1906 25.3929 18.1906H25.9075C25.9137 18.1906 25.9198 18.1894 25.9255 18.187C25.9311 18.1847 25.9363 18.1812 25.9407 18.1769C25.945 18.1726 25.9485 18.1674 25.9508 18.1617C25.9532 18.1561 25.9544 18.15 25.9544 18.1438ZM22.6916 23.9044C22.691 23.9039 22.6903 23.9035 22.6896 23.9031C22.2571 23.6282 22.4419 23.3082 22.9513 23.4509L22.9531 23.4513L27.2106 24.4718C27.23 24.4765 27.2439 24.4921 27.2461 24.5121C27.2484 24.532 27.2384 24.5503 27.2204 24.5592L25.1232 25.6015C25.1157 25.6053 25.1072 25.607 25.0987 25.6064C25.0903 25.6057 25.0822 25.6027 25.0753 25.5977L22.6916 23.9044Z" fill="#E7B144"/>
</g>
<defs>
<clipPath id="clip0_202_3106">
<rect width="24" height="24" fill="white" transform="translate(12 12)"/>
</clipPath>
</defs>
</svg>
