<svg width="48" height="48" viewBox="0 0 48 48" fill="none" xmlns="http://www.w3.org/2000/svg">
<path d="M0 8C0 3.58172 3.58172 0 8 0H40C44.4183 0 48 3.58172 48 8V40C48 44.4183 44.4183 48 40 48H8C3.58172 48 0 44.4183 0 40V8Z" fill="#FDF7EC"/>
<g clip-path="url(#clip0_202_3117)">
<path d="M12.0938 12.375V34.125C12.0938 34.1996 12.1234 34.2711 12.1761 34.3239C12.2289 34.3766 12.3004 34.4062 12.375 34.4062H14.3438V12.0938H12.375C12.3004 12.0938 12.2289 12.1234 12.1761 12.1761C12.1234 12.2289 12.0938 12.3004 12.0938 12.375ZM23.8556 21.5186C24.1682 21.6452 24.4693 21.7984 24.7556 21.9765C25.4069 21.2713 25.7967 20.3641 25.86 19.4062H24.1804C24.1643 20.1215 24.0552 20.8316 23.8556 21.5186ZM20.175 16.3837C20.5661 16.4957 20.9687 16.5627 21.375 16.5833V14.9565C20.9032 15.1091 20.4806 15.633 20.175 16.3837ZM19.9916 21.3337C20.442 21.2024 20.9064 21.1254 21.375 21.1042V19.4062H19.6943C19.7122 20.0587 19.8121 20.7063 19.9916 21.3337ZM21.375 23.2935V21.6667C20.9687 21.6873 20.5661 21.7543 20.175 21.8663C20.4806 22.617 20.9032 23.1409 21.375 23.2935ZM19.6943 18.8438H21.375V17.1458C20.9064 17.1246 20.442 17.0476 19.9916 16.9162C19.8121 17.5437 19.7122 18.1913 19.6943 18.8438ZM19.1321 19.4062H17.4517C17.5154 20.3636 17.9052 21.2702 18.5561 21.975C18.8425 21.7969 19.1436 21.6437 19.4561 21.5171C19.257 20.8305 19.148 20.121 19.1321 19.4062ZM23.1375 21.8663C22.7464 21.7543 22.3438 21.6873 21.9375 21.6667V23.2935C22.4093 23.1409 22.8319 22.617 23.1375 21.8663ZM19.4569 16.7314C19.1443 16.6048 18.8432 16.4516 18.5569 16.2735C17.9056 16.9787 17.5158 17.8859 17.4525 18.8438H19.1329C19.1487 18.1285 19.2576 17.4184 19.4569 16.7314ZM18.975 22.3789C19.3476 22.6847 19.7698 22.9244 20.2234 23.0876C19.9833 22.7701 19.7883 22.4209 19.644 22.05C19.4136 22.1438 19.19 22.2537 18.975 22.3789ZM23.0903 23.0876C23.5438 22.9244 23.966 22.6847 24.3386 22.3789C24.1232 22.2538 23.8993 22.144 23.6685 22.0504C23.5245 22.4211 23.3299 22.7702 23.0903 23.0876ZM24.1804 18.8438H25.8608C25.7971 17.8864 25.4073 16.9798 24.7564 16.275C24.47 16.4531 24.1689 16.6063 23.8564 16.7329C24.0555 17.4195 24.1645 18.129 24.1804 18.8438ZM23.6182 19.4062H21.9375V21.1042C22.4061 21.1254 22.8705 21.2024 23.3209 21.3337C23.5004 20.7063 23.6003 20.0587 23.6182 19.4062ZM20.2222 15.1624C19.7687 15.3256 19.3465 15.5653 18.9739 15.8711C19.1893 15.9962 19.4132 16.106 19.644 16.1996C19.788 15.8289 19.9826 15.4798 20.2222 15.1624ZM23.3209 16.9162C22.8705 17.0476 22.4061 17.1246 21.9375 17.1458V18.8438H23.6182C23.6003 18.1913 23.5004 17.5437 23.3209 16.9162ZM21.9375 14.9565V16.5833C22.3438 16.5627 22.7464 16.4957 23.1375 16.3837C22.8319 15.633 22.4093 15.1091 21.9375 14.9565ZM24.3375 15.8711C23.9649 15.5653 23.5427 15.3256 23.0891 15.1624C23.3292 15.4799 23.5242 15.8291 23.6685 16.2C23.8989 16.1062 24.1225 15.9963 24.3375 15.8711Z" fill="#E7B144"/>
<path d="M28.4062 26.3438V14.25C28.4057 13.6783 28.1783 13.1302 27.774 12.726C27.3698 12.3217 26.8217 12.0943 26.25 12.0938H14.9062V34.4062H17.3438V27.6562C17.3438 27.3082 17.482 26.9743 17.7282 26.7282C17.9743 26.482 18.3082 26.3438 18.6562 26.3438H28.4062ZM16.875 19.125C16.875 18.1794 17.1554 17.255 17.6808 16.4687C18.2062 15.6824 18.9529 15.0696 19.8265 14.7077C20.7002 14.3458 21.6616 14.2511 22.589 14.4356C23.5165 14.6201 24.3684 15.0755 25.0371 15.7441C25.7058 16.4128 26.1611 17.2648 26.3456 18.1922C26.5301 19.1197 26.4354 20.081 26.0735 20.9547C25.7117 21.8284 25.0988 22.5751 24.3126 23.1005C23.5263 23.6258 22.6019 23.9062 21.6562 23.9062C20.3886 23.9048 19.1734 23.4005 18.277 22.5042C17.3807 21.6079 16.8765 20.3926 16.875 19.125Z" fill="#E7B144"/>
<path d="M25.9215 29.4999L21.375 32.1249C21.3348 32.148 21.2896 32.1609 21.2433 32.1624C21.197 32.1639 21.151 32.154 21.1095 32.1335L20.0325 31.601L19.7568 31.76L20.3662 32.8153C20.4784 33.0089 20.6627 33.1501 20.8787 33.208C21.0948 33.2659 21.325 33.2358 21.519 33.1243L23.1348 32.1913L23.1393 31.9134C23.1406 31.8388 23.1715 31.7677 23.2251 31.7158C23.2788 31.6639 23.3508 31.6355 23.4255 31.6367C23.5 31.638 23.571 31.6689 23.6228 31.7226C23.6746 31.7762 23.703 31.8482 23.7018 31.9228L23.6733 33.6125L24.1166 33.3564L24.7728 30.9077C24.7891 30.846 24.8259 30.7917 24.8772 30.7539C24.9285 30.716 24.9912 30.6968 25.0549 30.6994C25.1186 30.702 25.1795 30.7263 25.2275 30.7683C25.2755 30.8103 25.3077 30.8674 25.3188 30.9302L26.3902 30.3118C26.444 30.2812 26.4911 30.2404 26.529 30.1915C26.5669 30.1426 26.5947 30.0868 26.6109 30.0271C26.6271 29.9675 26.6313 29.9052 26.6234 29.8439C26.6154 29.7826 26.5954 29.7235 26.5645 29.6699C26.5336 29.6164 26.4924 29.5695 26.4433 29.5319C26.3942 29.4944 26.3381 29.4669 26.2783 29.4511C26.2186 29.4353 26.1563 29.4315 26.095 29.4399C26.0338 29.4482 25.9748 29.4686 25.9215 29.4999Z" fill="#E7B144"/>
<path d="M23.7532 30.1034L21.9603 29.623L21.5171 29.8792L22.8555 30.6217L23.7532 30.1034Z" fill="#E7B144"/>
<path d="M35.1562 26.9062H28.6875V27.6562C28.6875 27.7308 28.6579 27.8024 28.6051 27.8551C28.5524 27.9079 28.4808 27.9375 28.4062 27.9375C28.3317 27.9375 28.2601 27.9079 28.2074 27.8551C28.1546 27.8024 28.125 27.7308 28.125 27.6562V26.9062H18.6562C18.4573 26.9062 18.2666 26.9853 18.1259 27.1259C17.9853 27.2666 17.9062 27.4573 17.9062 27.6562V35.1562C17.9062 35.3552 17.9853 35.5459 18.1259 35.6866C18.2666 35.8272 18.4573 35.9062 18.6562 35.9062H28.125V35.1562C28.125 35.0817 28.1546 35.0101 28.2074 34.9574C28.2601 34.9046 28.3317 34.875 28.4062 34.875C28.4808 34.875 28.5524 34.9046 28.6051 34.9574C28.6579 35.0101 28.6875 35.0817 28.6875 35.1562V35.9062H35.1562C35.3552 35.9062 35.5459 35.8272 35.6866 35.6866C35.8272 35.5459 35.9062 35.3552 35.9062 35.1562V27.6562C35.9062 27.4573 35.8272 27.2666 35.6866 27.1259C35.5459 26.9853 35.3552 26.9062 35.1562 26.9062ZM26.6715 30.7995L25.1486 31.6789L24.6296 33.6154C24.6201 33.651 24.6037 33.6845 24.5812 33.7137C24.5588 33.743 24.5307 33.7676 24.4988 33.786L23.5237 34.3485C23.4806 34.3734 23.4317 34.3864 23.3819 34.3862C23.3322 34.386 23.2833 34.3726 23.2404 34.3474C23.1976 34.3221 23.1621 34.2859 23.1378 34.2425C23.1134 34.1991 23.101 34.15 23.1019 34.1002L23.1229 32.8478L21.7995 33.612C21.4764 33.7981 21.0926 33.8484 20.7325 33.7519C20.3723 33.6554 20.0651 33.4199 19.8784 33.0971L19.1284 31.7981C19.0912 31.7335 19.0811 31.6568 19.1004 31.5848C19.1198 31.5128 19.1669 31.4514 19.2315 31.4141L19.881 31.0391C19.921 31.0158 19.9662 31.0028 20.0125 31.0013C20.0588 30.9998 20.1047 31.0099 20.1461 31.0305L21.2231 31.563L22.2866 30.9491L20.8091 30.129C20.7661 30.1047 20.7302 30.0695 20.7051 30.0269C20.68 29.9843 20.6665 29.9359 20.6661 29.8864C20.6657 29.837 20.6783 29.7883 20.7027 29.7453C20.7271 29.7023 20.7624 29.6665 20.805 29.6415L21.78 29.079C21.8119 29.0604 21.8472 29.0484 21.8839 29.0436C21.9205 29.0387 21.9577 29.0412 21.9934 29.0509L24.4421 29.7071L25.6421 29.0153C25.7595 28.9465 25.8892 28.9016 26.024 28.8831C26.1587 28.8647 26.2958 28.8731 26.4273 28.9079C26.5587 28.9427 26.6821 29.0031 26.7901 29.0857C26.8981 29.1683 26.9888 29.2715 27.0568 29.3893C27.1248 29.507 27.1688 29.6371 27.1863 29.772C27.2039 29.9068 27.1945 30.0438 27.1589 30.1751C27.1233 30.3063 27.062 30.4292 26.9787 30.5367C26.8954 30.6442 26.7916 30.7342 26.6734 30.8014L26.6715 30.7995ZM28.6875 33.8438C28.6875 33.9183 28.6579 33.9899 28.6051 34.0426C28.5524 34.0954 28.4808 34.125 28.4062 34.125C28.3317 34.125 28.2601 34.0954 28.2074 34.0426C28.1546 33.9899 28.125 33.9183 28.125 33.8438V33.0938C28.125 33.0192 28.1546 32.9476 28.2074 32.8949C28.2601 32.8421 28.3317 32.8125 28.4062 32.8125C28.4808 32.8125 28.5524 32.8421 28.6051 32.8949C28.6579 32.9476 28.6875 33.0192 28.6875 33.0938V33.8438ZM28.6875 31.7812C28.6875 31.8558 28.6579 31.9274 28.6051 31.9801C28.5524 32.0329 28.4808 32.0625 28.4062 32.0625C28.3317 32.0625 28.2601 32.0329 28.2074 31.9801C28.1546 31.9274 28.125 31.8558 28.125 31.7812V31.0312C28.125 30.9567 28.1546 30.8851 28.2074 30.8324C28.2601 30.7796 28.3317 30.75 28.4062 30.75C28.4808 30.75 28.5524 30.7796 28.6051 30.8324C28.6579 30.8851 28.6875 30.9567 28.6875 31.0312V31.7812ZM28.6875 29.7188C28.6875 29.7933 28.6579 29.8649 28.6051 29.9176C28.5524 29.9704 28.4808 30 28.4062 30C28.3317 30 28.2601 29.9704 28.2074 29.9176C28.1546 29.8649 28.125 29.7933 28.125 29.7188V28.9688C28.125 28.8942 28.1546 28.8226 28.2074 28.7699C28.2601 28.7171 28.3317 28.6875 28.4062 28.6875C28.4808 28.6875 28.5524 28.7171 28.6051 28.7699C28.6579 28.8226 28.6875 28.8942 28.6875 28.9688V29.7188ZM30.6562 34.6875H29.9062C29.8317 34.6875 29.7601 34.6579 29.7074 34.6051C29.6546 34.5524 29.625 34.4808 29.625 34.4062C29.625 34.3317 29.6546 34.2601 29.7074 34.2074C29.7601 34.1546 29.8317 34.125 29.9062 34.125H30.6562C30.7308 34.125 30.8024 34.1546 30.8551 34.2074C30.9079 34.2601 30.9375 34.3317 30.9375 34.4062C30.9375 34.4808 30.9079 34.5524 30.8551 34.6051C30.8024 34.6579 30.7308 34.6875 30.6562 34.6875ZM30.6562 33.1875H29.9062C29.8317 33.1875 29.7601 33.1579 29.7074 33.1051C29.6546 33.0524 29.625 32.9808 29.625 32.9062C29.625 32.8317 29.6546 32.7601 29.7074 32.7074C29.7601 32.6546 29.8317 32.625 29.9062 32.625H30.6562C30.7308 32.625 30.8024 32.6546 30.8551 32.7074C30.9079 32.7601 30.9375 32.8317 30.9375 32.9062C30.9375 32.9808 30.9079 33.0524 30.8551 33.1051C30.8024 33.1579 30.7308 33.1875 30.6562 33.1875ZM30.6562 31.6875H29.9062C29.8317 31.6875 29.7601 31.6579 29.7074 31.6051C29.6546 31.5524 29.625 31.4808 29.625 31.4062C29.625 31.3317 29.6546 31.2601 29.7074 31.2074C29.7601 31.1546 29.8317 31.125 29.9062 31.125H30.6562C30.7308 31.125 30.8024 31.1546 30.8551 31.2074C30.9079 31.2601 30.9375 31.3317 30.9375 31.4062C30.9375 31.4808 30.9079 31.5524 30.8551 31.6051C30.8024 31.6579 30.7308 31.6875 30.6562 31.6875ZM30.6562 30.1875H29.9062C29.8317 30.1875 29.7601 30.1579 29.7074 30.1051C29.6546 30.0524 29.625 29.9808 29.625 29.9062C29.625 29.8317 29.6546 29.7601 29.7074 29.7074C29.7601 29.6546 29.8317 29.625 29.9062 29.625H30.6562C30.7308 29.625 30.8024 29.6546 30.8551 29.7074C30.9079 29.7601 30.9375 29.8317 30.9375 29.9062C30.9375 29.9808 30.9079 30.0524 30.8551 30.1051C30.8024 30.1579 30.7308 30.1875 30.6562 30.1875ZM30.6562 28.6875H29.9062C29.8317 28.6875 29.7601 28.6579 29.7074 28.6051C29.6546 28.5524 29.625 28.4808 29.625 28.4062C29.625 28.3317 29.6546 28.2601 29.7074 28.2074C29.7601 28.1546 29.8317 28.125 29.9062 28.125H30.6562C30.7308 28.125 30.8024 28.1546 30.8551 28.2074C30.9079 28.2601 30.9375 28.3317 30.9375 28.4062C30.9375 28.4808 30.9079 28.5524 30.8551 28.6051C30.8024 28.6579 30.7308 28.6875 30.6562 28.6875ZM34.4062 34.6875H32.1562C32.0817 34.6875 32.0101 34.6579 31.9574 34.6051C31.9046 34.5524 31.875 34.4808 31.875 34.4062C31.875 34.3317 31.9046 34.2601 31.9574 34.2074C32.0101 34.1546 32.0817 34.125 32.1562 34.125H34.4062C34.4808 34.125 34.5524 34.1546 34.6051 34.2074C34.6579 34.2601 34.6875 34.3317 34.6875 34.4062C34.6875 34.4808 34.6579 34.5524 34.6051 34.6051C34.5524 34.6579 34.4808 34.6875 34.4062 34.6875ZM34.4062 33.1875H32.1562C32.0817 33.1875 32.0101 33.1579 31.9574 33.1051C31.9046 33.0524 31.875 32.9808 31.875 32.9062C31.875 32.8317 31.9046 32.7601 31.9574 32.7074C32.0101 32.6546 32.0817 32.625 32.1562 32.625H34.4062C34.4808 32.625 34.5524 32.6546 34.6051 32.7074C34.6579 32.7601 34.6875 32.8317 34.6875 32.9062C34.6875 32.9808 34.6579 33.0524 34.6051 33.1051C34.5524 33.1579 34.4808 33.1875 34.4062 33.1875ZM34.4062 31.6875H32.1562C32.0817 31.6875 32.0101 31.6579 31.9574 31.6051C31.9046 31.5524 31.875 31.4808 31.875 31.4062C31.875 31.3317 31.9046 31.2601 31.9574 31.2074C32.0101 31.1546 32.0817 31.125 32.1562 31.125H34.4062C34.4808 31.125 34.5524 31.1546 34.6051 31.2074C34.6579 31.2601 34.6875 31.3317 34.6875 31.4062C34.6875 31.4808 34.6579 31.5524 34.6051 31.6051C34.5524 31.6579 34.4808 31.6875 34.4062 31.6875ZM34.4062 30.1875H32.1562C32.0817 30.1875 32.0101 30.1579 31.9574 30.1051C31.9046 30.0524 31.875 29.9808 31.875 29.9062C31.875 29.8317 31.9046 29.7601 31.9574 29.7074C32.0101 29.6546 32.0817 29.625 32.1562 29.625H34.4062C34.4808 29.625 34.5524 29.6546 34.6051 29.7074C34.6579 29.7601 34.6875 29.8317 34.6875 29.9062C34.6875 29.9808 34.6579 30.0524 34.6051 30.1051C34.5524 30.1579 34.4808 30.1875 34.4062 30.1875ZM34.4062 28.6875H32.1562C32.0817 28.6875 32.0101 28.6579 31.9574 28.6051C31.9046 28.5524 31.875 28.4808 31.875 28.4062C31.875 28.3317 31.9046 28.2601 31.9574 28.2074C32.0101 28.1546 32.0817 28.125 32.1562 28.125H34.4062C34.4808 28.125 34.5524 28.1546 34.6051 28.2074C34.6579 28.2601 34.6875 28.3317 34.6875 28.4062C34.6875 28.4808 34.6579 28.5524 34.6051 28.6051C34.5524 28.6579 34.4808 28.6875 34.4062 28.6875Z" fill="#E7B144"/>
</g>
<defs>
<clipPath id="clip0_202_3117">
<rect width="24" height="24" fill="white" transform="translate(12 12)"/>
</clipPath>
</defs>
</svg>
