<svg width="48" height="48" viewBox="0 0 48 48" fill="none" xmlns="http://www.w3.org/2000/svg">
<path d="M0 8C0 3.58172 3.58172 0 8 0H40C44.4183 0 48 3.58172 48 8V40C48 44.4183 44.4183 48 40 48H8C3.58172 48 0 44.4183 0 40V8Z" fill="#FDF7EC"/>
<g clip-path="url(#clip0_203_14948)">
<path d="M30.7742 27.5097C29.8237 28.8151 28.2841 29.6653 26.5494 29.6653H24.1154C23.2746 29.6653 22.5586 29.1315 22.2874 28.3843C21.9492 28.2832 21.6203 28.1532 21.3043 27.9958C20.6261 27.6588 20.0102 27.2023 19.4681 26.6367C15.9517 27.4092 13.3198 30.5426 13.3198 34.2911V34.781C13.3198 35.4546 13.8659 36.0006 14.5394 36.0006H33.461C34.1346 36.0006 34.6806 35.4546 34.6806 34.781V34.2911C34.6805 31.3953 33.1098 28.8666 30.7742 27.5097Z" fill="#E7B144"/>
<path d="M18.1719 24.1224C18.696 24.1224 19.1523 23.8319 19.3886 23.4032C19.3948 23.4201 19.4011 23.437 19.4075 23.4539L19.4132 23.4691C19.9676 24.9286 21.0465 26.1521 22.4692 26.6867C22.8133 26.14 23.4217 25.7764 24.1154 25.7764H26.5494C26.7922 25.7764 27.0182 25.7079 27.2163 25.5972C27.549 25.4111 27.8481 24.9392 28.0026 24.689C28.2499 24.2887 28.4414 23.8647 28.6113 23.4024C28.7065 23.5754 28.8374 23.7261 28.9952 23.8447V24.4416C28.9952 25.7902 27.8981 26.8874 26.5494 26.8874H24.1154C23.6552 26.8874 23.2822 27.2605 23.2822 27.7206C23.2822 28.1808 23.6552 28.5538 24.1154 28.5538H26.5494C28.8169 28.5538 30.6616 26.7091 30.6616 24.4416V23.8447C30.9989 23.5913 31.2171 23.1881 31.2171 22.7338V19.258C31.2171 18.7943 30.9897 18.3841 30.6406 18.1319C30.3698 14.7054 27.495 12 24.0002 12C20.5052 12 17.6305 14.7054 17.3597 18.1318C17.0106 18.3841 16.7832 18.7943 16.7832 19.2579V22.7337C16.7832 23.5028 17.408 24.1224 18.1719 24.1224ZM24.0002 13.6664C26.5873 13.6664 28.7213 15.6436 28.9707 18.1663C28.806 18.2957 28.6726 18.4606 28.5804 18.6486C27.7942 16.5974 26.0392 15.1693 24.0001 15.1693C21.9171 15.1693 20.1902 16.6465 19.4229 18.6404L19.4198 18.6487C19.3276 18.4606 19.1942 18.2958 19.0295 18.1663C19.2791 15.6436 21.413 13.6664 24.0002 13.6664Z" fill="#E7B144"/>
</g>
<defs>
<clipPath id="clip0_203_14948">
<rect width="24" height="24" fill="white" transform="translate(12 12)"/>
</clipPath>
</defs>
</svg>
