<svg width="48" height="48" viewBox="0 0 48 48" fill="none" xmlns="http://www.w3.org/2000/svg">
<path d="M0 8C0 3.58172 3.58172 0 8 0H40C44.4183 0 48 3.58172 48 8V40C48 44.4183 44.4183 48 40 48H8C3.58172 48 0 44.4183 0 40V8Z" fill="#FDF7EC"/>
<path d="M23.8117 20.9717C23.2062 20.9717 22.6349 20.8106 22.2101 20.5225C21.9806 20.3662 21.7999 20.1807 21.673 19.9707C21.546 20.1807 21.3653 20.3662 21.1358 20.5225C20.711 20.8106 20.1397 20.9717 19.5342 20.9717C19.2168 20.9717 18.9092 20.9278 18.6309 20.8448V24.551C19.6514 24.8781 20.3643 25.7864 20.3643 26.9729V27.8177H20.7061C20.7354 27.8177 20.7599 27.8177 20.7892 27.8226V22.7296C20.7892 22.5978 20.8917 22.4952 21.0235 22.4952H25.1985C25.3255 22.4952 25.4329 22.6026 25.4329 22.7296V28.2035H33.2994V20.8399C33.0113 20.9278 32.6939 20.9766 32.3668 20.9766C31.7613 20.9766 31.19 20.8155 30.7651 20.5274C30.5356 20.3711 30.355 20.1856 30.228 19.9756C30.1011 20.1856 29.9204 20.3711 29.6909 20.5274C29.2661 20.8155 28.6947 20.9766 28.0893 20.9766C27.4838 20.9766 26.9124 20.8155 26.4876 20.5274C26.2581 20.3711 26.0775 20.1856 25.9505 19.9756C25.8235 20.1856 25.6429 20.3711 25.4134 20.5274C24.9837 20.8155 24.4172 20.9717 23.8117 20.9717ZM27.098 22.7296C27.098 22.5978 27.2005 22.4952 27.3324 22.4952H30.8823C31.0142 22.4952 31.1167 22.5978 31.1167 22.7296V26.2796C31.1167 26.4114 31.0093 26.5139 30.8823 26.5139H27.3324C27.2005 26.5139 27.098 26.4114 27.098 26.2796V22.7296Z" fill="#E7B144"/>
<path d="M27.5669 22.9633H30.6481V26.0444H27.5669V22.9633ZM30.4576 19.1106C30.4576 20.0676 31.444 20.5071 32.362 20.5071C32.7233 20.5071 33.0993 20.4387 33.4167 20.2971L33.446 20.2825C33.9197 20.0628 34.2615 19.677 34.2615 19.1106V18.3342H30.4527L30.4576 19.1106ZM28.0894 20.5022C29.0074 20.5022 29.9937 20.0676 29.9937 19.1057V18.3293H26.185V19.1057C26.185 20.0676 27.1714 20.5022 28.0894 20.5022ZM34.115 17.8654L31.986 13.7344H29.3394L30.4088 17.8654H34.115ZM21.4192 28.2027H24.9594V22.9633H21.2531V28.0172C21.3166 28.0709 21.3752 28.1344 21.4192 28.2027ZM29.9205 17.8654L28.856 13.7344H26.185V17.8654H29.9205ZM23.8118 20.5022C24.7299 20.5022 25.7162 20.0676 25.7162 19.1057V18.3293H21.9075V19.1057C21.9075 20.0676 22.8938 20.5022 23.8118 20.5022ZM21.7805 33.8328C21.5559 32.114 21.3362 30.3952 21.1115 28.6715C21.0822 28.4469 20.9113 28.2857 20.7014 28.2857H20.3596V29.2233C20.3596 29.609 20.0422 29.9264 19.6564 29.9264C19.2706 29.9264 18.9532 29.609 18.9532 29.2233V28.2857H16.5606V29.2233C16.5606 29.609 16.2432 29.9264 15.8574 29.9264C15.4717 29.9264 15.1543 29.609 15.1543 29.2233V28.2857H14.8173C14.6074 28.2857 14.4365 28.4469 14.4072 28.6715L13.7382 33.8328C13.7235 33.9403 13.7577 34.0428 13.831 34.1258C13.9091 34.2186 14.0263 34.2674 14.1484 34.2674H21.3703C21.4924 34.2674 21.6096 34.2137 21.6877 34.1258C21.761 34.0428 21.7952 33.9403 21.7805 33.8328ZM34.0222 28.6715H21.5803L21.8147 30.4685H23.3138L23.3431 30.2292C23.3919 29.863 23.6849 29.5944 24.0413 29.5944H28.3091C28.6656 29.5944 28.9585 29.8581 29.0074 30.2292L29.0367 30.4685H34.0222C34.1541 30.4685 34.2664 30.361 34.2664 30.2243V28.9108C34.2664 28.7789 34.1589 28.6715 34.0222 28.6715Z" fill="#E7B144"/>
<path d="M15.8574 29.4577C15.9893 29.4577 16.0918 29.3502 16.0918 29.2233V26.9722C16.0918 25.8589 16.9561 25.3559 17.7569 25.3559C18.1964 25.3559 18.6066 25.4975 18.9093 25.7612C19.2462 26.0542 19.422 26.4693 19.422 26.9722V29.2233C19.422 29.3551 19.5295 29.4577 19.6564 29.4577C19.7883 29.4577 19.8908 29.3551 19.8908 29.2233V26.9722C19.8908 25.605 18.8165 24.8872 17.7569 24.8872C16.6973 24.8872 15.623 25.605 15.623 26.9722V29.2233C15.623 29.3551 15.7305 29.4577 15.8574 29.4577ZM28.5435 30.2878C28.524 30.1559 28.4312 30.0632 28.3091 30.0632H24.0462C23.9242 30.0632 23.8314 30.1559 23.8119 30.2878C23.6507 31.533 23.4896 32.7781 23.3284 34.0282C23.3187 34.1063 23.3529 34.16 23.3773 34.1893C23.4212 34.243 23.4896 34.2723 23.5579 34.2723H28.7925C28.8609 34.2723 28.9293 34.243 28.9732 34.1893C28.9976 34.1649 29.0318 34.1063 29.022 34.0282C28.8658 32.7781 28.7046 31.533 28.5435 30.2878ZM27.479 31.6697C27.479 32.4412 26.8247 32.8465 26.1752 32.8465C25.5258 32.8465 24.8715 32.4412 24.8715 31.6697V30.737C24.8715 30.6052 24.974 30.5026 25.1059 30.5026C25.2377 30.5026 25.3402 30.6052 25.3402 30.737V31.6697C25.3402 32.2312 25.8676 32.3777 26.1752 32.3777C26.4877 32.3777 27.0102 32.2263 27.0102 31.6697V30.737C27.0102 30.6052 27.1128 30.5026 27.2446 30.5026C27.3765 30.5026 27.479 30.6052 27.479 30.737V31.6697ZM25.7162 17.8654V13.7344H23.0403L21.9758 17.8654H25.7162ZM22.5569 13.7344H19.9152L17.7813 17.8654H21.4924L22.5569 13.7344ZM18.4698 20.2923C18.4796 20.2971 18.4943 20.302 18.504 20.3069C18.8165 20.4387 19.1779 20.5071 19.5343 20.5071C20.4523 20.5071 21.4387 20.0725 21.4387 19.1106V18.3342H17.63V19.1106C17.63 19.6868 17.9864 20.0725 18.4698 20.2923Z" fill="#E7B144"/>
</svg>
