<svg width="48" height="48" viewBox="0 0 48 48" fill="none" xmlns="http://www.w3.org/2000/svg">
<path d="M0 8C0 3.58172 3.58172 0 8 0H40C44.4183 0 48 3.58172 48 8V40C48 44.4183 44.4183 48 40 48H8C3.58172 48 0 44.4183 0 40V8Z" fill="#FDF7EC"/>
<g clip-path="url(#clip0_203_14969)">
<path d="M34.3998 24.8008H33.9998V23.6008C33.9998 23.4947 33.9577 23.393 33.8827 23.3179C33.8076 23.2429 33.7059 23.2008 33.5998 23.2008C33.4937 23.2008 33.392 23.2429 33.317 23.3179C33.2419 23.393 33.1998 23.4947 33.1998 23.6008V24.8008H26.7998V23.6008C26.7998 23.4947 26.7577 23.393 26.6826 23.3179C26.6076 23.2429 26.5059 23.2008 26.3998 23.2008C26.2937 23.2008 26.192 23.2429 26.117 23.3179C26.0419 23.393 25.9998 23.4947 25.9998 23.6008V24.8008H25.5998C25.3876 24.8008 25.1841 24.8851 25.0341 25.0351C24.8841 25.1851 24.7998 25.3886 24.7998 25.6008V26.4008H35.1998V25.6008C35.1998 25.3886 35.1155 25.1851 34.9655 25.0351C34.8155 24.8851 34.612 24.8008 34.3998 24.8008ZM24.7998 34.4008C24.7998 34.613 24.8841 34.8164 25.0341 34.9665C25.1841 35.1165 25.3876 35.2008 25.5998 35.2008H34.3998C34.612 35.2008 34.8155 35.1165 34.9655 34.9665C35.1155 34.8164 35.1998 34.613 35.1998 34.4008V27.2008H24.7998V34.4008ZM27.2334 30.344C27.2706 30.2274 27.3368 30.1223 27.4258 30.0383C27.5148 29.9543 27.6237 29.8944 27.7422 29.864L28.793 29.5872L29.3962 28.7152C29.4641 28.618 29.5544 28.5386 29.6595 28.4838C29.7647 28.429 29.8815 28.4003 30 28.4003C30.1186 28.4003 30.2354 28.429 30.3405 28.4838C30.4456 28.5386 30.5359 28.618 30.6038 28.7152L31.2066 29.5872L32.2578 29.864C32.3762 29.8944 32.485 29.9544 32.5739 30.0384C32.6629 30.1223 32.729 30.2275 32.7662 30.344C32.8029 30.4584 32.8099 30.5803 32.7865 30.6982C32.7631 30.8161 32.7102 30.9262 32.6326 31.018L31.963 31.82L32.0114 32.8468C32.0167 32.9646 31.9929 33.0819 31.942 33.1883C31.8911 33.2947 31.8148 33.3869 31.7198 33.4568C31.6223 33.529 31.5083 33.576 31.3882 33.5935C31.2681 33.611 31.1455 33.5985 31.0314 33.5572L29.9998 33.1876L28.9678 33.5572C28.8537 33.5982 28.7312 33.6105 28.6112 33.593C28.4913 33.5755 28.3774 33.5287 28.2798 33.4568C28.1848 33.387 28.1085 33.2948 28.0577 33.1885C28.0068 33.0822 27.9829 32.9649 27.9882 32.8472L28.0366 31.82L27.3666 31.0176C27.2892 30.9258 27.2363 30.8158 27.2131 30.698C27.1898 30.5802 27.1968 30.4584 27.2334 30.344ZM13.1998 34.0008H23.9998V27.2248C23.867 27.2095 23.7335 27.2015 23.5998 27.2008H23.5442C23.2482 28.3208 21.781 28.7644 21.7118 28.7848C21.6218 28.8111 21.5255 28.8049 21.4396 28.7674C21.3537 28.7299 21.2837 28.6634 21.2418 28.5796C20.9401 28.1385 20.5058 27.8051 20.0018 27.6276C19.4972 27.8054 19.0621 28.1387 18.759 28.5796C18.7171 28.6634 18.6471 28.7299 18.5612 28.7674C18.4753 28.8049 18.379 28.8111 18.289 28.7848C18.2198 28.7644 16.7526 28.3196 16.4566 27.2008H16.3998C15.4454 27.2018 14.5303 27.5815 13.8554 28.2564C13.1805 28.9313 12.8009 29.8463 12.7998 30.8008V33.6008C12.7998 33.7069 12.8419 33.8086 12.917 33.8836C12.992 33.9586 13.0937 34.0008 13.1998 34.0008ZM20.7998 14.0008H22.2074L22.6474 13.4508C22.6945 13.3919 22.724 13.321 22.7326 13.2461C22.7411 13.1712 22.7283 13.0954 22.6957 13.0275C22.663 12.9596 22.6118 12.9022 22.548 12.8621C22.4842 12.822 22.4104 12.8008 22.335 12.8008H18.3998C17.5511 12.8008 16.7372 13.1379 16.1371 13.738C15.5369 14.3382 15.1998 15.1521 15.1998 16.0008V17.2716C15.2659 17.2476 15.334 17.2296 15.4034 17.218C15.7175 17.1671 16.039 17.2416 16.2986 17.4256C16.3352 17.3722 16.3746 17.3208 16.4166 17.2716C16.6819 16.9565 17.0505 16.746 17.4566 16.6776C18.2007 16.5491 18.9022 16.2413 19.5006 15.7808C19.6404 15.6656 19.8158 15.6023 19.9969 15.6016C20.178 15.6009 20.3539 15.6627 20.4946 15.7768C21.0953 16.2402 21.8002 16.5497 22.5478 16.6784C22.7811 16.7172 23.004 16.8033 23.2028 16.9315C23.4016 17.0596 23.5721 17.2271 23.7038 17.4236C23.9618 17.2398 24.2822 17.1659 24.5946 17.218C24.6645 17.2296 24.7332 17.2476 24.7998 17.272V16.0008C24.7998 15.6825 24.6734 15.3773 24.4483 15.1523C24.2233 14.9272 23.9181 14.8008 23.5998 14.8008H20.7998C20.6937 14.8008 20.592 14.7586 20.517 14.6836C20.4419 14.6086 20.3998 14.5069 20.3998 14.4008C20.3998 14.2947 20.4419 14.193 20.517 14.1179C20.592 14.0429 20.6937 14.0008 20.7998 14.0008ZM21.5998 25.8836V25.358C21.0831 25.5248 20.5428 25.6068 19.9998 25.6008C19.4568 25.6063 18.9165 25.5239 18.3998 25.3568V25.8832C18.417 25.9328 18.7414 26.8008 19.9998 26.8008C21.2582 26.8008 21.583 25.9324 21.5998 25.8836Z" fill="#E7B144"/>
<path d="M28.8432 31.7021L28.7928 32.7701L29.8652 32.3861C29.9524 32.3549 30.0477 32.3549 30.1348 32.3861L31.2072 32.7701L31.1568 31.7021C31.1521 31.602 31.185 31.5038 31.2492 31.4269L31.9344 30.6069L30.8596 30.3237C30.7673 30.2991 30.6869 30.2424 30.6328 30.1637L30 29.2493L29.3672 30.1641C29.3131 30.2428 29.2327 30.2995 29.1404 30.3241L28.0656 30.6073L28.7508 31.4273C28.8149 31.5041 28.8479 31.6022 28.8432 31.7021ZM17.8188 26.4961C17.5869 26.5876 17.3784 26.7297 17.2084 26.9121C17.286 27.4201 17.8796 27.7521 18.2392 27.9121C18.4054 27.7038 18.6007 27.5206 18.8192 27.3681C18.406 27.1841 18.0574 26.8804 17.8188 26.4961ZM21.76 27.9113C22.12 27.7541 22.7132 27.4201 22.7908 26.9113C22.6209 26.7289 22.4123 26.5868 22.1804 26.4953C21.9418 26.8792 21.5934 27.1827 21.1804 27.3665C21.3988 27.5192 21.594 27.7027 21.76 27.9113ZM15.2 20.0009C15.2 20.2131 15.2843 20.4165 15.4343 20.5666C15.5844 20.7166 15.7878 20.8009 16 20.8009C16.1061 20.8009 16.2078 20.843 16.2829 20.918C16.3579 20.9931 16.4 21.0948 16.4 21.2009C16.4 21.3469 16.4564 24.8009 20 24.8009C21.4948 24.8009 22.552 24.2009 23.142 23.0221C23.4178 22.4528 23.5737 21.8329 23.6 21.2009C23.6 21.0948 23.6422 20.9931 23.7172 20.918C23.7922 20.843 23.8939 20.8009 24 20.8009C24.2122 20.8009 24.4157 20.7166 24.5657 20.5666C24.7157 20.4165 24.8 20.2131 24.8 20.0009V18.4449C24.8033 18.3449 24.7721 18.2469 24.7115 18.1673C24.651 18.0878 24.5648 18.0315 24.4676 18.0081C24.4103 17.9983 24.3516 18.001 24.2955 18.0162C24.2394 18.0314 24.1872 18.0587 24.1427 18.0961C24.0982 18.1334 24.0624 18.1801 24.0377 18.2327C24.0131 18.2854 24.0002 18.3428 24 18.4009C24 18.507 23.9579 18.6087 23.8829 18.6837C23.8078 18.7587 23.7061 18.8009 23.6 18.8009C23.4939 18.8009 23.3922 18.7587 23.3172 18.6837C23.2422 18.6087 23.2 18.507 23.2 18.4009C23.2011 18.1772 23.1226 17.9605 22.9785 17.7895C22.8344 17.6184 22.6342 17.5042 22.4136 17.4673C21.5289 17.3179 20.6955 16.9499 19.9892 16.3965C19.2941 16.953 18.4677 17.3216 17.5892 17.4669C17.3688 17.5047 17.1692 17.6199 17.026 17.7917C16.8799 17.961 16.7997 18.1773 16.8 18.4009C16.8 18.507 16.7579 18.6087 16.6829 18.6837C16.6078 18.7587 16.5061 18.8009 16.4 18.8009C16.2939 18.8009 16.1922 18.7587 16.1172 18.6837C16.0422 18.6087 16 18.507 16 18.4009C16.0004 18.3483 15.9903 18.2961 15.9703 18.2474C15.9504 18.1987 15.9209 18.1544 15.8837 18.1172C15.8465 18.08 15.8022 18.0505 15.7535 18.0306C15.7048 18.0106 15.6526 18.0005 15.6 18.0009C15.5766 18.001 15.5532 18.0028 15.53 18.0065C15.433 18.0305 15.3472 18.0872 15.2871 18.1671C15.227 18.2469 15.1963 18.345 15.2 18.4449V20.0009Z" fill="#E7B144"/>
</g>
<defs>
<clipPath id="clip0_203_14969">
<rect width="24" height="24" fill="white" transform="translate(12 12)"/>
</clipPath>
</defs>
</svg>
