<svg width="48" height="48" viewBox="0 0 48 48" fill="none" xmlns="http://www.w3.org/2000/svg">
<path d="M0 8C0 3.58172 3.58172 0 8 0H40C44.4183 0 48 3.58172 48 8V40C48 44.4183 44.4183 48 40 48H8C3.58172 48 0 44.4183 0 40V8Z" fill="#FDF7EC"/>
<path fill-rule="evenodd" clip-rule="evenodd" d="M31.4744 15.2831C30.6843 14.894 29.7866 14.8365 28.9526 15.1214C28.1909 15.381 27.5654 15.8972 27.166 16.5853L33.0789 19.4906C33.7263 17.9 33.0394 16.0513 31.4744 15.2831ZM27.4732 26.0225C27.4732 25.0111 28.2963 24.1885 29.3059 24.1885C30.3177 24.1885 31.1408 25.0111 31.1408 26.0225V26.5673H31.6105V26.0225C31.6105 24.7528 30.5767 23.7197 29.3059 23.7197C28.0372 23.7197 27.0035 24.7528 27.0035 26.0225V26.5673H27.4731V26.0225H27.4732ZM27.4732 27.0361V28.4068C27.4732 28.4691 27.4484 28.5288 27.4044 28.5728C27.3604 28.6169 27.3006 28.6416 27.2383 28.6416C27.1761 28.6416 27.1163 28.6169 27.0723 28.5728C27.0282 28.5288 27.0035 28.4691 27.0035 28.4068V27.0361H26.0707C25.7261 27.0361 25.4451 27.2826 25.3991 27.6234L24.6638 33.0759C24.6096 33.4846 24.9219 33.8443 25.3354 33.8443H33.2786C33.6914 33.8443 34.0043 33.4845 33.9502 33.0759L33.2149 27.6234C33.1688 27.2826 32.8857 27.0361 32.5433 27.0361H31.6105V28.4068C31.6105 28.536 31.5051 28.6412 31.3756 28.6412C31.2462 28.6412 31.1408 28.536 31.1408 28.4068V27.0361H27.4732ZM21.9992 23.4993H25.0215L25.4847 26.7253C25.1906 26.8973 24.9821 27.1974 24.9338 27.5606L24.407 31.4666H17.4164L17.9826 27.5189C18.7359 27.8668 19.6399 27.5863 20.059 26.8602L21.9992 23.4993ZM18.5138 24.1538C18.0481 24.1538 17.8854 24.7704 18.2855 25.0008C18.3896 25.0608 18.5133 25.077 18.6294 25.0459C18.7454 25.0148 18.8444 24.9389 18.9045 24.8348C19.0791 24.5324 18.8595 24.1538 18.5138 24.1538ZM17.671 21.8387C17.8738 21.4875 17.5451 21.069 17.1596 21.1734C16.7688 21.2793 16.7036 21.8063 17.0498 22.0051C17.2673 22.1299 17.5428 22.0576 17.671 21.8387ZM20.476 18.6384C20.8887 18.8765 21.0313 19.4063 20.7921 19.8192C20.4072 20.4841 19.4066 20.3524 19.2096 19.6107C19.012 18.8668 19.8131 18.255 20.476 18.6384ZM22.2648 21.2241L21.2552 18.705C21.0519 18.1962 20.5566 17.923 20.0283 17.9961L17.3418 18.3815C16.9818 18.4331 16.6943 18.6276 16.5121 18.9429L13.9705 23.3452C13.654 23.8953 13.8449 24.5963 14.3897 24.9112L18.0858 27.0455C18.6338 27.3613 19.3377 27.1741 19.6529 26.6258L22.1946 22.2238C22.3767 21.9085 22.4009 21.5625 22.2648 21.2241ZM17.739 20.8126C18.4554 21.2257 18.2995 22.2957 17.5174 22.5033C16.7223 22.7143 16.0697 21.8609 16.4792 21.1504C16.7345 20.7074 17.299 20.5585 17.739 20.8126ZM17.7127 24.1463C17.4581 24.5869 17.6095 25.1522 18.0507 25.4066C18.4858 25.6583 19.0528 25.5145 19.3106 25.0693C19.5652 24.6285 19.4137 24.0627 18.9725 23.8088C18.5336 23.5542 17.9673 23.7056 17.7127 24.1463ZM19.3698 21.9877L16.1851 23.8261C16.0731 23.8908 16.0336 24.0342 16.0995 24.1463C16.1307 24.2001 16.1819 24.2393 16.242 24.2554C16.3021 24.2714 16.3661 24.263 16.4199 24.2319L19.6047 22.3935C19.7166 22.329 19.7539 22.1854 19.6902 22.0733C19.6244 21.9614 19.4817 21.9225 19.3698 21.9877ZM20.386 19.5848C20.5656 19.2758 20.2741 18.9147 19.9427 19.0045C19.5965 19.0982 19.5463 19.5572 19.8461 19.7297C20.0348 19.8385 20.2785 19.7737 20.386 19.5848ZM23.573 17.1165L25.2147 17.1994L25.2323 16.7038C24.6858 16.0236 24.3653 15.111 24.3368 14.1562H23.5203C23.3315 14.9451 22.6204 15.517 21.7908 15.517C20.9611 15.517 20.25 14.9451 20.0612 14.1562H19.247C19.2162 15.111 18.898 16.0236 18.3492 16.7038L18.3888 17.7582L19.9625 17.5322C20.3209 17.4803 20.6864 17.5504 21.0002 17.7315C21.3139 17.9125 21.5576 18.1938 21.692 18.5302L22.7016 21.0496C22.8926 21.5264 22.8575 22.0139 22.6007 22.4583L22.2693 23.0305H24.9975L25.1182 19.761C24.2381 19.2905 23.5928 18.5835 23.3316 17.4009C23.2986 17.2505 23.4196 17.1085 23.573 17.1165ZM34.1829 22.7452C32.6333 21.6881 30.9213 21.2382 29.3279 20.9067C30.9454 22.6664 32.5433 23.271 34.1829 22.7452ZM32.6509 20.8049L33.4871 21.7814C31.8585 20.9258 30.1444 20.5869 28.5926 20.2803C26.2902 19.8258 24.4466 19.4618 23.8693 17.6006L26.3868 17.7275L32.6509 20.8049ZM32.8813 19.9153L32.6903 20.3025L26.7598 17.3893L26.9508 17.0021L32.8813 19.9153Z" fill="#E7B144"/>
</svg>
