<svg width="48" height="48" viewBox="0 0 48 48" fill="none" xmlns="http://www.w3.org/2000/svg">
<path d="M0 8C0 3.58172 3.58172 0 8 0H40C44.4183 0 48 3.58172 48 8V40C48 44.4183 44.4183 48 40 48H8C3.58172 48 0 44.4183 0 40V8Z" fill="#FDF7EC"/>
<g clip-path="url(#clip0_203_15102)">
<path d="M21.8885 12H35.8881V13.8308H21.8885V12ZM13.543 27.3596H25.3171L25.688 24.0309C25.6973 23.9176 25.6836 23.8035 25.6476 23.6956C25.6116 23.5878 25.5542 23.4883 25.4788 23.4032C25.26 23.1607 24.9272 23.0228 24.5658 23.0228H14.2943C13.9329 23.0228 13.6 23.1607 13.386 23.4032C13.2291 23.5744 13.1483 23.8026 13.1721 24.0309L13.543 27.3596Z" fill="#E7B144"/>
<path d="M25.9017 23.0229C26.168 23.313 26.2964 23.7029 26.2536 24.0928L25.9635 26.7225H28.6027V14.4016H21.8882V22.4523H24.5654C25.0885 22.4523 25.5783 22.6615 25.9017 23.0229ZM26.8289 18.8763H27.3996V20.9449H26.8289V18.8763ZM29.1733 26.7225H35.8878V14.4016H29.1733V26.7225ZM30.5143 18.8763H31.0849V20.9449H30.5143V18.8763ZM18.2314 13.9355H14.7505L14.2607 17.2975H18.7212L18.2314 13.9355ZM13.2288 35.4295H13.9754L14.3415 34.2597H13.2288V35.4295ZM25.8827 27.4548C26.401 27.6165 26.8432 27.9732 27.1143 28.444V28.1919H30.3859V28.7626H27.2617C27.3527 29.001 27.3994 29.254 27.3996 29.5092V30.1987C27.3996 30.4269 27.3092 30.6457 27.1523 30.8121C27.2712 30.9405 27.352 31.1022 27.3853 31.2734H35.8878V27.2932H25.9017L25.8827 27.4548ZM26.8289 33.3609V31.4255C26.8289 31.2448 26.6815 31.0974 26.5008 31.0974H12.4394C12.2587 31.0974 12.1113 31.2448 12.1113 31.4255V33.3609C12.1113 33.5416 12.2587 33.689 12.4394 33.689H26.4961C26.6768 33.6938 26.8242 33.5464 26.8289 33.3656V33.3609Z" fill="#E7B144"/>
<path d="M27.3996 33.0653H30.386V33.6359H27.3568C27.2332 34.0069 26.8861 34.2589 26.4961 34.2589H26.4723V35.4905H35.8878V31.8432H27.3996V33.0653ZM21.8882 34.2589V35.4905H24.5798L24.1946 34.2589H21.8882ZM25.1599 35.4287H25.9017V34.2589H24.789L25.1599 35.4287ZM12.4395 30.526H26.5009C26.6816 30.526 26.829 30.3786 26.829 30.1979V29.5084C26.829 28.6381 26.1205 27.9296 25.2502 27.9296H13.6901C12.8199 27.9296 12.1113 28.6381 12.1113 29.5084V30.1979C12.1114 30.3786 12.2588 30.526 12.4395 30.526ZM16.2056 17.582H16.7763V22.4514H16.2056V17.582ZM16.7763 34.2589H16.2056V35.4287H15.3021V35.9993H17.7892V35.4287H16.7763V34.2589Z" fill="#E7B144"/>
</g>
<defs>
<clipPath id="clip0_203_15102">
<rect width="24" height="24" fill="white" transform="translate(12 12)"/>
</clipPath>
</defs>
</svg>
