<svg width="48" height="48" viewBox="0 0 48 48" fill="none" xmlns="http://www.w3.org/2000/svg">
<path d="M0 8C0 3.58172 3.58172 0 8 0H40C44.4183 0 48 3.58172 48 8V40C48 44.4183 44.4183 48 40 48H8C3.58172 48 0 44.4183 0 40V8Z" fill="#FDF7EC"/>
<path d="M31.0781 14.8594H20.5312V17.5013L21.3196 18.2897C21.718 18.688 21.9375 19.2178 21.9375 19.7812V24C21.9375 25.1631 20.9912 26.1094 19.8281 26.1094H17.0156C15.8525 26.1094 14.9062 25.1631 14.9062 24V19.7812C14.9062 19.2178 15.1257 18.688 15.5242 18.2896L16.3125 17.5013V14.8594H14.1094C12.9463 14.8594 12 15.8056 12 16.9688V28.2188C12 29.3819 12.9463 30.3281 14.1094 30.3281H26.1562V24C26.1562 22.0615 27.7334 20.4844 29.6719 20.4844H33.1875V16.9688C33.1875 15.8056 32.2412 14.8594 31.0781 14.8594ZM25.4531 33.1406H24.75V31.7344H20.5312V33.1406H19.8281C19.4398 33.1406 19.125 33.4554 19.125 33.8438C19.125 34.2321 19.4398 34.5469 19.8281 34.5469H25.4531C25.8414 34.5469 26.1562 34.2321 26.1562 33.8438C26.1562 33.4554 25.8414 33.1406 25.4531 33.1406Z" fill="#E7B144"/>
<path d="M33.8906 21.8906H29.6719C28.5088 21.8906 27.5625 22.8369 27.5625 24V32.4375C27.5625 33.6006 28.5088 34.5469 29.6719 34.5469H33.8906C35.0537 34.5469 36 33.6006 36 32.4375V24C36 22.8369 35.0537 21.8906 33.8906 21.8906ZM32.4844 31.7344H31.0781C30.6898 31.7344 30.375 31.4196 30.375 31.0312C30.375 30.6429 30.6898 30.3281 31.0781 30.3281H32.4844C32.8727 30.3281 33.1875 30.6429 33.1875 31.0312C33.1875 31.4196 32.8727 31.7344 32.4844 31.7344ZM32.4844 26.1094H31.0781C30.6898 26.1094 30.375 25.7946 30.375 25.4062C30.375 25.0179 30.6898 24.7031 31.0781 24.7031H32.4844C32.8727 24.7031 33.1875 25.0179 33.1875 25.4062C33.1875 25.7946 32.8727 26.1094 32.4844 26.1094ZM20.3253 19.284L19.125 18.0838V14.1562C19.125 13.7679 18.8102 13.4531 18.4219 13.4531C18.0336 13.4531 17.7188 13.7679 17.7188 14.1562V18.0838L16.5185 19.284C16.4532 19.3493 16.4014 19.4268 16.366 19.5122C16.3307 19.5975 16.3125 19.6889 16.3125 19.7812V24C16.3125 24.3883 16.6273 24.7031 17.0156 24.7031H19.8281C20.2164 24.7031 20.5312 24.3883 20.5312 24V19.7812C20.5312 19.5948 20.4572 19.4159 20.3253 19.284Z" fill="#E7B144"/>
</svg>
