<svg width="48" height="48" viewBox="0 0 48 48" fill="none" xmlns="http://www.w3.org/2000/svg">
<path d="M0 8C0 3.58172 3.58172 0 8 0H40C44.4183 0 48 3.58172 48 8V40C48 44.4183 44.4183 48 40 48H8C3.58172 48 0 44.4183 0 40V8Z" fill="#FDF7EC"/>
<path d="M31.2842 20.1133C31.6217 20.1133 31.8936 20.3852 31.8936 20.7227C31.8936 21.0602 31.6217 21.332 31.2842 21.332C30.9467 21.332 30.6748 21.0602 30.6748 20.7227V20.718C30.6748 20.3805 30.9467 20.1133 31.2842 20.1133Z" fill="#E7B144"/>
<path d="M31.2842 27.7441C31.6207 27.7441 31.8936 27.4713 31.8936 27.1348C31.8936 26.7982 31.6207 26.5254 31.2842 26.5254C30.9476 26.5254 30.6748 26.7982 30.6748 27.1348C30.6748 27.4713 30.9476 27.7441 31.2842 27.7441Z" fill="#E7B144"/>
<path d="M30.2068 23.8878C30.2208 24.0472 30.1693 24.2066 30.0615 24.3284C29.9536 24.4503 29.8083 24.5253 29.6443 24.5347C29.4849 24.5487 29.3255 24.4972 29.2036 24.3894C29.0818 24.2816 29.0068 24.1362 28.9974 23.9722C28.9833 23.8128 29.0349 23.6534 29.1427 23.5316C29.2505 23.405 29.3958 23.33 29.5599 23.3206C29.724 23.3066 29.8833 23.3581 30.0005 23.4706C30.1177 23.5831 30.1927 23.7238 30.2068 23.8878Z" fill="#E7B144"/>
<path d="M29.5078 17.0332C29.8444 17.0332 30.1172 16.7604 30.1172 16.4238C30.1172 16.0873 29.8444 15.8145 29.5078 15.8145C29.1713 15.8145 28.8984 16.0873 28.8984 16.4238C28.8984 16.7604 29.1713 17.0332 29.5078 17.0332Z" fill="#E7B144"/>
<path d="M29.5078 32.1836C29.8444 32.1836 30.1172 31.9108 30.1172 31.5742C30.1172 31.2377 29.8444 30.9648 29.5078 30.9648C29.1713 30.9648 28.8984 31.2377 28.8984 31.5742C28.8984 31.9108 29.1713 32.1836 29.5078 32.1836Z" fill="#E7B144"/>
<path d="M25.383 29.2262V32.8074C25.383 33.248 25.0174 33.6184 24.5908 33.623H24.5768C24.1361 33.623 23.8314 33.4637 23.4846 33.0605C23.4424 33.009 23.3768 32.9809 23.3111 32.9809C23.2455 32.9809 23.1846 33.009 23.1283 33.0605C22.8189 33.4168 22.3689 33.623 21.8955 33.623C20.9908 33.623 20.2549 32.8871 20.2549 31.9824C20.2549 31.9355 20.2596 31.8887 20.2643 31.8371C20.2689 31.7574 20.2314 31.6777 20.1658 31.6309C20.0955 31.584 20.0111 31.5793 19.9361 31.6121C19.7111 31.7199 19.4533 31.7715 19.1955 31.7574C18.3752 31.7293 17.7049 31.0871 17.6299 30.2715C17.6018 29.9902 17.6533 29.6996 17.7705 29.4371C17.8033 29.3621 17.7986 29.2824 17.7564 29.2168C17.7143 29.1559 17.6439 29.1137 17.5643 29.1137C16.7627 29.109 16.1064 28.4527 16.1064 27.6512C16.1064 27.1309 16.3877 26.648 16.8377 26.3855C16.9033 26.348 16.9455 26.2777 16.9502 26.198C16.9549 26.1184 16.9174 26.0434 16.8518 26.0012C16.5002 25.7621 16.2939 25.3684 16.2939 24.9465C16.2939 24.5621 16.4627 24.2012 16.758 23.9574C16.8143 23.9105 16.8471 23.8402 16.8424 23.7699C16.8424 23.6996 16.8049 23.634 16.7439 23.5918C16.3455 23.3199 16.1064 22.8652 16.1064 22.3824C16.1064 21.684 16.6033 21.0793 17.2877 20.948C17.3627 20.934 17.4283 20.8777 17.4564 20.8027C17.4846 20.7277 17.4705 20.6434 17.4236 20.5824C17.2268 20.3293 17.1189 20.0105 17.1189 19.6871C17.1189 18.8809 17.7799 18.2246 18.5861 18.2246H18.6799C18.7549 18.2246 18.8252 18.1918 18.8674 18.1309C18.9096 18.0699 18.9236 17.9949 18.9002 17.9246C18.8486 17.7605 18.8205 17.5871 18.8205 17.409C18.8205 16.4902 19.5705 15.7262 20.4893 15.7121C20.5689 15.7121 20.6393 15.6699 20.6814 15.6043C21.1502 14.8402 21.9611 14.3809 22.8518 14.3809H22.8611C23.5314 14.3809 24.1596 14.6434 24.6377 15.1168C25.1205 15.5949 25.383 16.2324 25.383 16.9121V26.3059C25.3783 26.3199 25.3783 26.334 25.3783 26.3527C25.3783 26.3715 25.3783 26.3855 25.383 26.3996V29.2262ZM24.2111 26.2777C24.3189 26.2496 24.3893 26.1418 24.3752 26.0293C24.3611 25.9168 24.2627 25.8324 24.1502 25.8324H24.1221C24.0471 25.8418 23.4471 25.8887 23.3018 25.1762C23.2736 25.0543 23.1518 24.9746 23.0299 24.998C22.908 25.0262 22.8283 25.148 22.8518 25.2699C22.9314 25.673 23.1283 25.9309 23.3533 26.0855C23.1893 26.184 23.0486 26.3152 22.9361 26.4746C22.4486 27.1496 22.6361 28.0918 22.6455 28.1293C22.6689 28.2371 22.7627 28.3121 22.8705 28.3121C22.8893 28.3121 22.9033 28.3074 22.9127 28.3027C23.0346 28.2746 23.1143 28.1527 23.0908 28.0309C23.0908 28.0215 22.9361 27.2434 23.3064 26.7324C23.4893 26.484 23.7799 26.3293 24.1643 26.2824H24.1783C24.1877 26.2871 24.2064 26.2871 24.2111 26.2777ZM24.0377 30.5996C24.0424 30.473 23.9486 30.3652 23.8221 30.3559C23.8174 30.3512 23.3205 30.3184 22.9361 30.0137C22.8377 29.934 22.6924 29.9527 22.6127 30.0512C22.533 30.1496 22.5518 30.2949 22.6502 30.3746C23.1518 30.773 23.7705 30.8152 23.7986 30.8152H23.8127C23.9346 30.8152 24.0283 30.7215 24.0377 30.5996ZM23.8783 23.8215C23.883 23.8074 24.3424 22.0309 22.608 21.2809C22.4908 21.234 22.3596 21.2855 22.308 21.4027C22.2611 21.5199 22.3127 21.6512 22.4299 21.7027C23.7986 22.2887 23.4564 23.648 23.4424 23.7043C23.4096 23.8262 23.4799 23.9527 23.6018 23.9855C23.6205 23.9902 23.6439 23.9949 23.6627 23.9949C23.7611 23.9949 23.8549 23.934 23.8783 23.8215ZM23.6346 19.9496C23.6486 19.9402 24.7174 19.059 23.7752 17.6574C23.7049 17.5543 23.5596 17.5262 23.4564 17.5965C23.3533 17.6668 23.3252 17.8121 23.3955 17.9152C23.6908 18.3605 23.7752 18.773 23.6439 19.148C23.5455 19.4293 23.3533 19.5887 23.3486 19.5934C23.2502 19.673 23.2361 19.8184 23.3158 19.9168C23.358 19.973 23.4283 20.0012 23.4939 20.0012C23.5408 19.9965 23.5971 19.9777 23.6346 19.9496ZM21.933 23.3152C22.0361 23.2449 22.0643 23.0996 21.9939 22.9965C21.9236 22.8934 21.7783 22.8652 21.6752 22.9355C21.3752 23.1418 20.8549 22.9262 20.5408 22.4668C20.2268 22.0027 20.2174 21.4402 20.5174 21.234C20.6252 21.1637 20.6486 21.0184 20.5783 20.9152C20.508 20.8074 20.3627 20.784 20.2596 20.8543C19.7346 21.2105 19.6924 22.0309 20.1611 22.7199C20.4799 23.1934 20.9674 23.4652 21.408 23.4652C21.6002 23.4652 21.7783 23.409 21.933 23.3152ZM21.4174 17.7371C21.5439 17.7324 21.6424 17.6246 21.6377 17.498C21.633 17.3715 21.5252 17.273 21.3986 17.2777C21.3705 17.2777 20.6252 17.3152 20.1564 17.8402C19.8893 18.1449 19.7674 18.5434 19.8002 19.0215C19.8096 19.1387 19.9127 19.2324 20.0299 19.2324H20.0439C20.1705 19.223 20.2643 19.1152 20.2549 18.9887C20.2268 18.6418 20.3111 18.3559 20.4939 18.1496C20.8314 17.7746 21.4174 17.7371 21.4174 17.7371ZM21.1596 29.7605C21.2768 29.7137 21.333 29.5777 21.2861 29.4605C21.1783 29.198 21.1549 28.898 21.2111 28.5324C21.2299 28.4246 21.1736 28.3262 21.0752 28.284C20.9768 28.2418 20.8643 28.2746 20.8033 28.359C20.7986 28.3637 20.4236 28.8371 19.4908 28.7105C19.3643 28.6965 19.2518 28.7809 19.233 28.9074C19.2143 29.034 19.3033 29.1465 19.4299 29.1652C20.0205 29.2449 20.4424 29.1277 20.7236 28.9824C20.733 29.2168 20.7799 29.4324 20.8596 29.634C20.8924 29.723 20.9814 29.7746 21.0705 29.7746C21.1033 29.7699 21.1361 29.7652 21.1596 29.7605ZM20.0908 27.2387C20.4471 26.9762 21.0377 26.2074 20.7236 25.1949C20.6861 25.073 20.5596 25.0074 20.4377 25.0449C20.3158 25.0824 20.2502 25.209 20.2877 25.3309C20.583 26.2824 19.8518 26.8496 19.8189 26.873C19.7205 26.948 19.6971 27.0887 19.7721 27.1918C19.8143 27.2527 19.8846 27.2855 19.9549 27.2855C20.0064 27.2855 20.0533 27.2762 20.0908 27.2387ZM28.8096 20.4887H30.2393C30.2205 20.5637 30.2111 20.6434 30.2111 20.723C30.2111 20.798 30.2205 20.873 30.2346 20.948H28.8096C28.7533 20.948 28.7064 20.9715 28.6736 21.009C28.6736 21.009 28.6736 21.0137 28.6689 21.0137L28.2283 21.5105L28.2236 21.5152C28.0924 21.6559 27.9236 21.7309 27.7455 21.7309H25.8424V21.2715H27.7502C27.8158 21.2715 27.8674 21.2293 27.8955 21.2012L28.3314 20.709C28.4533 20.5684 28.6221 20.4887 28.8096 20.4887ZM30.2393 27.3652H28.7955C28.6174 27.3652 28.4486 27.2902 28.3174 27.1496L28.3127 27.1402L27.8721 26.6434C27.8346 26.6012 27.783 26.5777 27.7314 26.5777H25.8424V26.1184H27.7314C27.9143 26.1184 28.0877 26.198 28.2143 26.3387L28.6502 26.8309C28.6736 26.859 28.7252 26.9012 28.7955 26.9012H30.2346C30.2205 26.9715 30.2111 27.0465 30.2111 27.1262C30.2111 27.2105 30.2205 27.2855 30.2393 27.3652ZM29.7424 29.8543V30.534C29.6674 30.5152 29.5924 30.5105 29.5127 30.5105C29.433 30.5105 29.358 30.5199 29.283 30.534V29.8543C29.283 29.634 29.1049 29.4559 28.8846 29.4559H25.8471V28.9965H28.8846C29.3533 28.9918 29.7424 29.3809 29.7424 29.8543ZM29.7424 17.4699V18.1449C29.7424 18.6184 29.358 19.0027 28.8846 19.0027H25.8471V18.5434H28.8846C29.1049 18.5434 29.283 18.3652 29.283 18.1449V17.4699C29.358 17.484 29.433 17.4934 29.5127 17.4934C29.5877 17.4934 29.6674 17.4887 29.7424 17.4699ZM25.8471 23.6902H28.5611C28.5377 23.7887 28.533 23.8918 28.5377 23.9996C28.5424 24.0512 28.5471 24.1027 28.5564 24.1496H25.8471V23.6902Z" fill="#E7B144"/>
</svg>
