<svg width="48" height="48" viewBox="0 0 48 48" fill="none" xmlns="http://www.w3.org/2000/svg">
<path d="M0 8C0 3.58172 3.58172 0 8 0H40C44.4183 0 48 3.58172 48 8V40C48 44.4183 44.4183 48 40 48H8C3.58172 48 0 44.4183 0 40V8Z" fill="#FDF7EC"/>
<g clip-path="url(#clip0_161_2507)">
<path d="M16.7637 13.3709V17.5152C16.7637 17.9782 16.387 18.3549 15.924 18.3549H13.2147C12.7517 18.3549 12.375 17.9782 12.375 17.5152V13.3709C12.375 12.9079 12.7517 12.5312 13.2147 12.5312H15.924C16.387 12.5312 16.7637 12.9079 16.7637 13.3709ZM15.924 29.644H13.2147C12.7517 29.644 12.375 30.0206 12.375 30.4837V34.628C12.375 35.091 12.7517 35.4677 13.2147 35.4677H15.924C16.387 35.4677 16.7637 35.091 16.7637 34.628V30.4837C16.7637 30.0207 16.387 29.644 15.924 29.644ZM15.924 21.0883H13.2147C12.7517 21.0883 12.375 21.4644 12.375 21.9266V26.0723C12.375 26.5345 12.7517 26.9106 13.2147 26.9106H15.924C16.387 26.9106 16.7637 26.5345 16.7637 26.0723V21.9266C16.7637 21.4644 16.387 21.0883 15.924 21.0883ZM34.7866 12.5312H32.076C31.613 12.5312 31.2363 12.9079 31.2363 13.3709V17.5152C31.2363 17.9782 31.613 18.3549 32.076 18.3549H34.7866C35.2489 18.3549 35.625 17.9782 35.625 17.5152V13.3709C35.625 12.9079 35.2489 12.5312 34.7866 12.5312ZM34.7866 29.644H32.076C31.613 29.644 31.2363 30.0206 31.2363 30.4837V34.628C31.2363 35.091 31.613 35.4677 32.076 35.4677H34.7866C35.2489 35.4677 35.625 35.091 35.625 34.628V30.4837C35.625 30.0207 35.2489 29.644 34.7866 29.644ZM34.7866 21.0883H32.076C31.613 21.0883 31.2363 21.4644 31.2363 21.9266V26.0723C31.2363 26.5345 31.613 26.9106 32.076 26.9106H34.7866C35.2489 26.9106 35.625 26.5345 35.625 26.0723V21.9266C35.625 21.4644 35.2489 21.0883 34.7866 21.0883ZM29.5418 15.8154L29.5927 15.7705H28.3847V23.6713H29.5927L29.5418 23.6265C29.5091 23.5981 29.4824 23.5636 29.4632 23.5248C29.4439 23.486 29.4325 23.4439 29.4297 23.4007C29.4268 23.3575 29.4325 23.3142 29.4464 23.2732C29.4604 23.2323 29.4823 23.1945 29.5109 23.162C29.5395 23.1295 29.5742 23.103 29.6131 23.084C29.652 23.065 29.6942 23.0539 29.7374 23.0513C29.7806 23.0488 29.8239 23.0547 29.8648 23.0689C29.9056 23.0831 29.9433 23.1053 29.9756 23.1341L30.6785 23.7532C30.7134 23.784 30.7414 23.8219 30.7606 23.8643C30.7798 23.9068 30.7897 23.9528 30.7897 23.9994C30.7897 24.046 30.7798 24.0921 30.7606 24.1345C30.7414 24.177 30.7134 24.2148 30.6785 24.2456L29.9756 24.8648C29.9158 24.9177 29.8387 24.9468 29.7588 24.9468C29.6922 24.9468 29.6271 24.9265 29.5722 24.8886C29.5174 24.8507 29.4754 24.797 29.4518 24.7346C29.4282 24.6723 29.4242 24.6042 29.4403 24.5395C29.4564 24.4748 29.4918 24.4165 29.5418 24.3724L29.5927 24.3276H28.3847V32.2284H29.5927L29.5418 32.1835C29.5095 32.1551 29.4831 32.1205 29.4641 32.0818C29.4451 32.0431 29.4339 32.0011 29.4312 31.9581C29.4257 31.8712 29.4549 31.7857 29.5125 31.7204C29.57 31.6551 29.6511 31.6153 29.7379 31.6098C29.8248 31.6043 29.9103 31.6336 29.9756 31.6911L30.6785 32.3102C30.7134 32.3411 30.7415 32.379 30.7606 32.4215C30.7798 32.4639 30.7897 32.51 30.7897 32.5566C30.7897 32.6033 30.7797 32.6493 30.7605 32.6918C30.7413 32.7343 30.7132 32.7721 30.6782 32.8029L29.9753 33.4208C29.9155 33.4735 29.8385 33.5025 29.7588 33.5025C29.6921 33.5025 29.627 33.4822 29.5721 33.4442C29.5173 33.4063 29.4753 33.3526 29.4517 33.2902C29.4282 33.2278 29.4242 33.1597 29.4404 33.0949C29.4565 33.0302 29.492 32.972 29.5421 32.9279L29.5913 32.8846H28.0566C27.9696 32.8846 27.8861 32.85 27.8246 32.7885C27.7631 32.727 27.7285 32.6435 27.7285 32.5565V24.3276H26.684V29.5748C26.684 30.1118 26.2471 30.5487 25.7101 30.5487H22.29C21.7537 30.5487 21.3174 30.1118 21.3174 29.5748V24.3276H20.2715V32.5565C20.2715 32.6435 20.2369 32.727 20.1754 32.7885C20.1139 32.85 20.0304 32.8846 19.9434 32.8846H18.4087L18.4579 32.9279C18.508 32.972 18.5435 33.0302 18.5596 33.0949C18.5758 33.1597 18.5718 33.2278 18.5483 33.2902C18.5247 33.3526 18.4827 33.4063 18.4279 33.4442C18.373 33.4822 18.3079 33.5025 18.2412 33.5025C18.1615 33.5026 18.0845 33.4735 18.0247 33.4208L17.3218 32.8029C17.2868 32.7722 17.2587 32.7343 17.2395 32.6918C17.2202 32.6493 17.2102 32.6033 17.2102 32.5566C17.2102 32.51 17.2201 32.4639 17.2393 32.4214C17.2585 32.379 17.2865 32.341 17.3215 32.3102L18.0244 31.6911C18.0568 31.6626 18.0944 31.6408 18.1352 31.6268C18.1759 31.6129 18.2191 31.6071 18.2621 31.6098C18.3051 31.6126 18.3471 31.6237 18.3858 31.6427C18.4245 31.6617 18.4591 31.6881 18.4875 31.7204C18.516 31.7528 18.5379 31.7904 18.5518 31.8312C18.5657 31.8719 18.5715 31.9151 18.5688 31.9581C18.5661 32.0011 18.5549 32.0431 18.5359 32.0818C18.5169 32.1205 18.4905 32.1551 18.4582 32.1835L18.4073 32.2284H19.6153V24.3276H18.4073L18.4582 24.3724C18.4911 24.4007 18.5181 24.4353 18.5376 24.4741C18.5571 24.5129 18.5687 24.5552 18.5717 24.5986C18.5747 24.6419 18.5691 24.6854 18.5551 24.7265C18.5412 24.7676 18.5192 24.8056 18.4905 24.8382C18.4618 24.8708 18.4269 24.8973 18.3879 24.9163C18.3488 24.9353 18.3064 24.9464 18.263 24.9489C18.2197 24.9514 18.1763 24.9452 18.1353 24.9308C18.0943 24.9163 18.0567 24.8939 18.0244 24.8648L17.3215 24.2456C17.2866 24.2149 17.2586 24.177 17.2394 24.1345C17.2202 24.0921 17.2103 24.046 17.2103 23.9994C17.2103 23.9528 17.2202 23.9068 17.2394 23.8643C17.2586 23.8219 17.2866 23.784 17.3215 23.7532L18.0244 23.1341C18.0567 23.1053 18.0944 23.0831 18.1352 23.0689C18.1761 23.0547 18.2194 23.0488 18.2626 23.0513C18.3058 23.0539 18.348 23.065 18.3869 23.084C18.4258 23.103 18.4605 23.1295 18.4891 23.162C18.5177 23.1945 18.5396 23.2323 18.5536 23.2732C18.5675 23.3142 18.5732 23.3575 18.5703 23.4007C18.5675 23.4439 18.5561 23.486 18.5368 23.5248C18.5176 23.5636 18.4909 23.5981 18.4582 23.6265L18.4073 23.6713H19.6153V15.7705H18.4073L18.4582 15.8154C18.4911 15.8437 18.5181 15.8783 18.5376 15.9171C18.5571 15.9559 18.5687 15.9982 18.5717 16.0415C18.5747 16.0849 18.5691 16.1283 18.5551 16.1695C18.5412 16.2106 18.5192 16.2486 18.4905 16.2812C18.4618 16.3137 18.4269 16.3403 18.3879 16.3593C18.3488 16.3783 18.3064 16.3894 18.263 16.3918C18.2197 16.3943 18.1763 16.3882 18.1353 16.3737C18.0943 16.3593 18.0567 16.3369 18.0244 16.3078L17.3215 15.6886C17.2866 15.6578 17.2586 15.6199 17.2394 15.5774C17.2202 15.5349 17.2103 15.4888 17.2103 15.4422C17.2104 15.3956 17.2203 15.3496 17.2395 15.3071C17.2588 15.2647 17.2868 15.2268 17.3218 15.196L18.0247 14.5781C18.057 14.5492 18.0947 14.5269 18.1356 14.5126C18.1766 14.4983 18.22 14.4923 18.2633 14.4948C18.3065 14.4974 18.3489 14.5085 18.3879 14.5276C18.4268 14.5466 18.4616 14.5732 18.4903 14.6058C18.5189 14.6383 18.5408 14.6763 18.5547 14.7174C18.5686 14.7584 18.5742 14.8019 18.5711 14.8451C18.5681 14.8884 18.5566 14.9307 18.5372 14.9694C18.5177 15.0082 18.4908 15.0427 18.4579 15.071L18.4087 15.1143H19.9434C20.0304 15.1143 20.1139 15.1489 20.1754 15.2104C20.2369 15.272 20.2715 15.3554 20.2715 15.4425V23.6714H21.3174V18.4241C21.3174 17.8871 21.7537 17.4503 22.29 17.4503H25.7101C26.2471 17.4503 26.684 17.8871 26.684 18.4241V23.6714H27.7285V15.4424C27.7285 15.3554 27.7631 15.2719 27.8246 15.2104C27.8861 15.1489 27.9696 15.1143 28.0566 15.1143H29.5913L29.5421 15.071C29.5092 15.0427 29.4823 15.0082 29.4629 14.9694C29.4434 14.9306 29.4319 14.8884 29.4289 14.8451C29.4258 14.8018 29.4314 14.7584 29.4453 14.7173C29.4592 14.6762 29.4811 14.6383 29.5097 14.6057C29.5384 14.5731 29.5732 14.5466 29.6121 14.5275C29.6511 14.5085 29.6935 14.4974 29.7367 14.4948C29.78 14.4922 29.8234 14.4983 29.8644 14.5126C29.9053 14.5269 29.943 14.5491 29.9753 14.5781L30.6782 15.196C30.7132 15.2267 30.7413 15.2646 30.7605 15.307C30.7798 15.3495 30.7897 15.3956 30.7898 15.4422C30.7898 15.4888 30.7799 15.5349 30.7607 15.5774C30.7415 15.6199 30.7135 15.6578 30.6785 15.6886L29.9756 16.3077C29.9158 16.3606 29.8387 16.3898 29.7588 16.3897C29.6922 16.3897 29.6271 16.3694 29.5722 16.3315C29.5174 16.2936 29.4754 16.2399 29.4518 16.1775C29.4282 16.1152 29.4242 16.0471 29.4403 15.9824C29.4564 15.9177 29.4918 15.8595 29.5418 15.8154ZM22.6102 19.2546C22.6102 19.3416 22.6448 19.4251 22.7063 19.4866C22.7678 19.5481 22.8513 19.5827 22.9383 19.5827H23.2732C23.3602 19.5827 23.4436 19.5481 23.5052 19.4866C23.5667 19.4251 23.6013 19.3416 23.6013 19.2546C23.6013 19.1676 23.5667 19.0841 23.5052 19.0226C23.4436 18.961 23.3602 18.9265 23.2732 18.9265H22.9383C22.8513 18.9265 22.7678 18.961 22.7063 19.0226C22.6448 19.0841 22.6102 19.1676 22.6102 19.2546ZM23.6013 28.7444C23.6013 28.6574 23.5667 28.5739 23.5052 28.5124C23.4436 28.4508 23.3602 28.4163 23.2732 28.4163H22.9383C22.8513 28.4163 22.7678 28.4508 22.7063 28.5124C22.6448 28.5739 22.6102 28.6574 22.6102 28.7444C22.6102 28.8314 22.6448 28.9149 22.7063 28.9764C22.7678 29.0379 22.8513 29.0725 22.9383 29.0725H23.2732C23.3602 29.0725 23.4436 29.0379 23.5052 28.9764C23.5667 28.9149 23.6013 28.8314 23.6013 28.7444ZM25.3898 28.7444C25.3898 28.6574 25.3552 28.5739 25.2936 28.5124C25.2321 28.4508 25.1486 28.4163 25.0616 28.4163H24.2312C24.1442 28.4163 24.0607 28.4508 23.9992 28.5124C23.9376 28.5739 23.9031 28.6574 23.9031 28.7444C23.9031 28.8314 23.9376 28.9149 23.9992 28.9764C24.0607 29.0379 24.1442 29.0725 24.2312 29.0725H25.0616C25.1486 29.0725 25.2321 29.0379 25.2936 28.9764C25.3552 28.9149 25.3898 28.8314 25.3898 28.7444ZM25.3898 27.3891C25.3898 27.3021 25.3552 27.2186 25.2936 27.1571C25.2321 27.0955 25.1486 27.061 25.0616 27.061H22.9383C22.8513 27.061 22.7678 27.0955 22.7063 27.1571C22.6448 27.2186 22.6102 27.3021 22.6102 27.3891C22.6102 27.4761 22.6448 27.5596 22.7063 27.6211C22.7678 27.6826 22.8513 27.7172 22.9383 27.7172H25.0616C25.1486 27.7172 25.2321 27.6826 25.2936 27.6211C25.3552 27.5596 25.3898 27.4761 25.3898 27.3891ZM22.9383 26.3606H23.2732C23.3602 26.3606 23.4436 26.326 23.5052 26.2645C23.5667 26.203 23.6013 26.1195 23.6013 26.0325C23.6013 25.9454 23.5667 25.862 23.5052 25.8004C23.4436 25.7389 23.3602 25.7043 23.2732 25.7043H22.9383C22.8513 25.7043 22.7678 25.7389 22.7063 25.8004C22.6448 25.862 22.6102 25.9454 22.6102 26.0325C22.6102 26.1195 22.6448 26.203 22.7063 26.2645C22.7678 26.326 22.8513 26.3606 22.9383 26.3606ZM25.3898 26.0325C25.3898 25.9454 25.3552 25.862 25.2936 25.8004C25.2321 25.7389 25.1486 25.7043 25.0616 25.7043H24.2312C24.1442 25.7043 24.0607 25.7389 23.9992 25.8004C23.9376 25.862 23.9031 25.9454 23.9031 26.0325C23.9031 26.1195 23.9376 26.203 23.9992 26.2645C24.0607 26.326 24.1442 26.3606 24.2312 26.3606H25.0616C25.1486 26.3606 25.2321 26.326 25.2936 26.2645C25.3552 26.203 25.3898 26.1195 25.3898 26.0325ZM25.3898 24.6771C25.3898 24.5901 25.3552 24.5066 25.2936 24.4451C25.2321 24.3836 25.1486 24.349 25.0616 24.349H22.9383C22.8513 24.349 22.7678 24.3836 22.7063 24.4451C22.6448 24.5066 22.6102 24.5901 22.6102 24.6771C22.6102 24.7641 22.6448 24.8476 22.7063 24.9091C22.7678 24.9707 22.8513 25.0052 22.9383 25.0052H25.0616C25.1486 25.0052 25.2321 24.9707 25.2936 24.9091C25.3552 24.8476 25.3898 24.7641 25.3898 24.6771ZM22.9383 23.65H23.2732C23.3602 23.65 23.4436 23.6154 23.5052 23.5538C23.5667 23.4923 23.6013 23.4089 23.6013 23.3218C23.6013 23.2348 23.5667 23.1513 23.5052 23.0898C23.4436 23.0283 23.3602 22.9937 23.2732 22.9937H22.9383C22.8513 22.9937 22.7678 23.0283 22.7063 23.0898C22.6448 23.1513 22.6102 23.2348 22.6102 23.3218C22.6102 23.4089 22.6448 23.4923 22.7063 23.5538C22.7678 23.6154 22.8513 23.65 22.9383 23.65ZM25.3898 23.3218C25.3898 23.2348 25.3552 23.1513 25.2936 23.0898C25.2321 23.0283 25.1486 22.9937 25.0616 22.9937H24.2312C24.1442 22.9937 24.0607 23.0283 23.9992 23.0898C23.9376 23.1513 23.9031 23.2348 23.9031 23.3218C23.9031 23.4089 23.9376 23.4923 23.9992 23.5538C24.0607 23.6154 24.1442 23.65 24.2312 23.65H25.0616C25.1486 23.65 25.2321 23.6154 25.2936 23.5538C25.3552 23.4923 25.3898 23.4089 25.3898 23.3218ZM25.3898 21.9665C25.3898 21.8795 25.3552 21.796 25.2936 21.7345C25.2321 21.673 25.1486 21.6384 25.0616 21.6384H22.9383C22.8513 21.6384 22.7678 21.673 22.7063 21.7345C22.6448 21.796 22.6102 21.8795 22.6102 21.9665C22.6102 22.0536 22.6448 22.137 22.7063 22.1986C22.7678 22.2601 22.8513 22.2947 22.9383 22.2947H25.0616C25.1486 22.2947 25.2321 22.2601 25.2936 22.1986C25.3552 22.137 25.3898 22.0536 25.3898 21.9665ZM25.3898 20.6099C25.3898 20.5229 25.3552 20.4394 25.2936 20.3779C25.2321 20.3164 25.1486 20.2818 25.0616 20.2818H22.9383C22.8513 20.2818 22.7678 20.3164 22.7063 20.3779C22.6448 20.4394 22.6102 20.5229 22.6102 20.6099C22.6102 20.6969 22.6448 20.7804 22.7063 20.8419C22.7678 20.9035 22.8513 20.938 22.9383 20.938H25.0616C25.1486 20.938 25.2321 20.9035 25.2936 20.8419C25.3552 20.7804 25.3898 20.6969 25.3898 20.6099ZM25.3898 19.2546C25.3898 19.1676 25.3552 19.0841 25.2936 19.0226C25.2321 18.9611 25.1486 18.9265 25.0616 18.9265H24.2312C24.1442 18.9265 24.0607 18.9611 23.9992 19.0226C23.9376 19.0841 23.9031 19.1676 23.9031 19.2546C23.9031 19.3416 23.9376 19.4251 23.9992 19.4866C24.0607 19.5482 24.1442 19.5827 24.2312 19.5827H25.0616C25.1486 19.5827 25.2321 19.5482 25.2936 19.4866C25.3552 19.4251 25.3898 19.3416 25.3898 19.2546Z" fill="#E7B144"/>
</g>
<defs>
<clipPath id="clip0_161_2507">
<rect width="24" height="24" fill="white" transform="translate(12 12)"/>
</clipPath>
</defs>
</svg>
