<svg width="48" height="48" viewBox="0 0 48 48" fill="none" xmlns="http://www.w3.org/2000/svg">
<path d="M0 8C0 3.58172 3.58172 0 8 0H40C44.4183 0 48 3.58172 48 8V40C48 44.4183 44.4183 48 40 48H8C3.58172 48 0 44.4183 0 40V8Z" fill="#FDF7EC"/>
<g clip-path="url(#clip0_161_2516)">
<path fill-rule="evenodd" clip-rule="evenodd" d="M25.673 28.545C25.8989 28.545 26.1206 28.5277 26.3386 28.4958V27.8114C26.8804 27.7148 27.3947 27.5012 27.8456 27.1857L28.3294 27.6694C28.6879 27.4048 29.005 27.0882 29.2702 26.73L28.7864 26.2463C29.102 25.7952 29.3151 25.2805 29.4108 24.7383H30.0952C30.127 24.5218 30.1444 24.3 30.1444 24.0741C30.1444 23.8482 30.127 23.6264 30.0952 23.4099H29.4108C29.3146 22.8678 29.1016 22.3533 28.7864 21.9019L29.2702 21.4182C29.0044 21.0605 28.688 20.7432 28.3294 20.4788L27.8456 20.9625C27.4031 20.6532 26.8917 20.4352 26.3386 20.3382V19.6538C26.1206 19.6205 25.8989 19.6046 25.673 19.6046C25.447 19.6046 25.2253 19.6205 25.0087 19.6538V20.3382C24.4561 20.4352 23.9442 20.6532 23.5022 20.9625L23.017 20.4788C22.6592 20.7438 22.3427 21.0603 22.0777 21.4182L22.5614 21.9019C22.2457 22.3529 22.0325 22.8677 21.937 23.4099H21.2527C21.2208 23.6264 21.2034 23.8482 21.2034 24.0741C21.2034 24.3 21.2208 24.5218 21.2527 24.7383H21.937C22.0341 25.2924 22.252 25.8038 22.5614 26.2463L22.0777 26.73C22.342 27.0886 22.6598 27.405 23.017 27.6694L23.5022 27.1857C23.9529 27.5012 24.4671 27.7148 25.0087 27.8114V28.4958C25.2253 28.5277 25.447 28.545 25.673 28.545ZM23.6255 24.0736C23.6255 22.943 24.5423 22.0261 25.673 22.0261C26.8036 22.0261 27.7205 22.943 27.7205 24.0736C27.7205 25.2042 26.8036 26.1211 25.673 26.1211C24.5423 26.1211 23.6255 25.2042 23.6255 24.0736ZM35.4141 24.0736C35.4141 24.7472 34.868 25.2933 34.1944 25.2933C33.6333 25.2933 33.1617 24.916 33.0183 24.4017H30.7903C30.7969 24.293 30.8011 24.1838 30.8011 24.0736C30.8011 23.9635 30.7973 23.8542 30.7903 23.7455H33.0183C33.1617 23.2313 33.6333 22.8539 34.1944 22.8539C34.868 22.8539 35.4141 23.4 35.4141 24.0736ZM35.4141 30.5564C35.4141 31.23 34.868 31.7775 34.1944 31.7775C33.6333 31.7775 33.1617 31.3993 33.0183 30.8846H31.193V30.8832C31.0894 30.8832 30.9872 30.8339 30.9234 30.7425L29.0086 27.9666C29.1773 27.8232 29.3353 27.6675 29.4844 27.5044L31.3631 30.2283H33.0187C33.1622 29.7141 33.6337 29.3368 34.1948 29.3368C34.8684 29.3368 35.4145 29.8828 35.4145 30.5564H35.4141ZM25.673 18.9474C25.5642 18.9474 25.455 18.9502 25.3448 18.9582V16.5239C25.3448 16.343 25.4925 16.1958 25.673 16.1958H27.105C27.2484 15.6816 27.72 15.3042 28.2797 15.3042C28.9533 15.3042 29.4994 15.8503 29.4994 16.5239C29.4994 17.1975 28.9533 17.745 28.2797 17.745C27.7195 17.745 27.248 17.3672 27.105 16.8521H26.0011V18.9582C25.8919 18.9506 25.7824 18.947 25.673 18.9474ZM29.0081 20.1807L30.923 17.4047C30.9867 17.3128 31.0889 17.2641 31.1925 17.2641V17.2627H33.0178C33.1613 16.7485 33.6328 16.3711 34.1939 16.3711C34.8675 16.3711 35.4136 16.9172 35.4136 17.5908C35.4136 18.2644 34.8675 18.8105 34.1939 18.8105C33.6328 18.8105 33.1613 18.4332 33.0178 17.9189H31.3622L29.4834 20.6442C29.3348 20.4792 29.1764 20.3241 29.0077 20.1807H29.0081ZM29.4998 31.4761C29.4998 32.1497 28.9538 32.6972 28.2802 32.6972C27.72 32.6972 27.2489 32.3189 27.1055 31.8043H25.6734C25.493 31.8043 25.3453 31.658 25.3453 31.4761V29.1905C25.4555 29.1971 25.5647 29.1999 25.6734 29.1999C25.7822 29.1999 25.8928 29.1971 26.0016 29.1905V31.1475H27.1055C27.2489 30.6333 27.7205 30.256 28.2802 30.256C28.9538 30.256 29.4998 30.8021 29.4998 31.4757V31.4761ZM18.4261 24.9811C18.2812 25.7968 17.9611 26.5519 17.5041 27.2039L18.2175 27.9174C17.827 28.446 17.3598 28.9135 16.8314 29.3044L16.118 28.591C15.6637 28.9074 15.1613 29.1596 14.6217 29.3325V30.5935H12.9145V27.1918C14.6766 27.1918 16.1062 25.7621 16.1062 24C16.1062 22.238 14.6766 20.8083 12.9145 20.8083V17.4052H14.6222V18.6675C15.1553 18.8383 15.6597 19.0883 16.1184 19.4091L16.8319 18.6957C17.3598 19.0867 17.8269 19.5538 18.218 20.0817L17.5045 20.7966C17.9703 21.4614 18.285 22.2201 18.4266 23.0194H19.4362C19.4827 23.3396 19.508 23.6667 19.508 24C19.508 24.3333 19.4827 24.6605 19.4362 24.9807H18.4266L18.4261 24.9811ZM12.5859 14.0728C12.5859 13.8924 12.7322 13.7447 12.9141 13.7447H22.2722L22.1859 13.6955L21.0408 13.0336C20.8837 12.9432 20.8308 12.7425 20.9213 12.5874C21.0117 12.4308 21.2123 12.3774 21.3689 12.4678L22.5141 13.1297L23.6555 13.7888C23.7047 13.8169 23.7473 13.8567 23.7778 13.9097C23.8683 14.0667 23.8148 14.266 23.6583 14.3574L22.5141 15.0178L21.3689 15.6797C21.2123 15.7702 21.0113 15.7167 20.9213 15.5602C20.8778 15.485 20.866 15.3956 20.8884 15.3116C20.9108 15.2277 20.9656 15.1561 21.0408 15.1125L22.1859 14.4521L22.2722 14.4014H12.9145C12.7327 14.4014 12.5864 14.2552 12.5864 14.0733L12.5859 14.0728ZM23.7778 33.7646C23.8683 33.9216 23.8148 34.1208 23.6583 34.2108L22.5141 34.8727L21.3689 35.5346C21.2123 35.625 21.0113 35.5716 20.9213 35.415C20.8308 35.2585 20.8842 35.0578 21.0408 34.9674L22.1859 34.3069L22.2722 34.2563H12.9145C12.7327 34.2563 12.5864 34.11 12.5864 33.9282C12.5864 33.7463 12.7327 33.6 12.9145 33.6H22.2727L22.1864 33.5508L21.0413 32.8889C20.8842 32.7985 20.8313 32.5978 20.9217 32.4427C21.0122 32.2861 21.2128 32.2327 21.3694 32.3232L22.5145 32.9836L23.6559 33.6427C23.7052 33.6708 23.7478 33.7116 23.7783 33.765L23.7778 33.7646ZM14.3067 24.001C14.3067 24.7702 13.6823 25.3936 12.9141 25.3936V22.6088C13.6819 22.6088 14.3067 23.2318 14.3067 24.0014V24.001Z" fill="#E7B144"/>
</g>
<defs>
<clipPath id="clip0_161_2516">
<rect width="24" height="24" fill="white" transform="translate(12 12)"/>
</clipPath>
</defs>
</svg>
