<svg width="48" height="48" viewBox="0 0 48 48" fill="none" xmlns="http://www.w3.org/2000/svg">
<path d="M0 8C0 3.58172 3.58172 0 8 0H40C44.4183 0 48 3.58172 48 8V40C48 44.4183 44.4183 48 40 48H8C3.58172 48 0 44.4183 0 40V8Z" fill="#FDF7EC"/>
<g clip-path="url(#clip0_161_2525)">
<path d="M15.5156 17.7188C16.5512 17.7188 17.3906 16.8793 17.3906 15.8438C17.3906 14.8082 16.5512 13.9688 15.5156 13.9688C14.4801 13.9688 13.6406 14.8082 13.6406 15.8438C13.6406 16.8793 14.4801 17.7188 15.5156 17.7188Z" fill="#E7B144"/>
<path d="M19.0312 21.7026V20.7651C19.0312 19.7236 18.5756 18.7869 17.8536 18.1426C17.258 18.7481 16.4301 19.1245 15.5156 19.1245C14.6012 19.1245 13.7733 18.7481 13.1776 18.1426C12.4557 18.7869 12 19.7236 12 20.7651V21.7026C12 22.091 12.3148 22.4058 12.7031 22.4058H18.3281C18.7164 22.4058 19.0312 22.091 19.0312 21.7026Z" fill="#E7B144"/>
<path d="M24 15.75C25.0355 15.75 25.875 14.9105 25.875 13.875C25.875 12.8395 25.0355 12 24 12C22.9645 12 22.125 12.8395 22.125 13.875C22.125 14.9105 22.9645 15.75 24 15.75Z" fill="#E7B144"/>
<path d="M21.1875 20.437H26.8125C27.2008 20.437 27.5156 20.1222 27.5156 19.7339V18.7964C27.5156 17.7549 27.06 16.8181 26.338 16.1738C25.7423 16.7794 24.9144 17.1558 24 17.1558C23.0856 17.1558 22.2577 16.7794 21.662 16.1738C20.94 16.8181 20.4844 17.7549 20.4844 18.7964V19.7339C20.4844 20.1222 20.7992 20.437 21.1875 20.437Z" fill="#E7B144"/>
<path d="M32.4844 17.7188C33.5199 17.7188 34.3594 16.8793 34.3594 15.8438C34.3594 14.8082 33.5199 13.9688 32.4844 13.9688C31.4488 13.9688 30.6094 14.8082 30.6094 15.8438C30.6094 16.8793 31.4488 17.7188 32.4844 17.7188Z" fill="#E7B144"/>
<path d="M34.8224 18.1426C34.2267 18.7481 33.3988 19.1245 32.4844 19.1245C31.5699 19.1245 30.742 18.7481 30.1464 18.1426C29.4244 18.7869 28.9688 19.7236 28.9688 20.7651V21.7026C28.9688 22.091 29.2836 22.4058 29.6719 22.4058H35.2969C35.6852 22.4058 36 22.091 36 21.7026V20.7651C36 19.7236 35.5443 18.7869 34.8224 18.1426ZM17.2031 24.0464V26.1558H20.9531V24.0464C20.9531 23.6581 20.6383 23.3433 20.25 23.3433H17.9062C17.5179 23.3433 17.2031 23.6581 17.2031 24.0464ZM30.0938 23.3433H27.75C27.3617 23.3433 27.0469 23.6581 27.0469 24.0464V26.1558H30.7969V24.0464C30.7969 23.6581 30.4821 23.3433 30.0938 23.3433ZM27.0469 29.2026C27.0469 30.8854 25.6827 32.2495 24 32.2495C22.3172 32.2495 20.9531 30.8854 20.9531 29.2026V27.562H17.2031V29.2026C17.2031 32.9564 20.2462 35.9995 24 35.9995C27.7538 35.9995 30.7969 32.9564 30.7969 29.2026V27.562H27.0469V29.2026Z" fill="#E7B144"/>
</g>
<defs>
<clipPath id="clip0_161_2525">
<rect width="24" height="24" fill="white" transform="translate(12 12)"/>
</clipPath>
</defs>
</svg>
