<svg width="48" height="48" viewBox="0 0 48 48" fill="none" xmlns="http://www.w3.org/2000/svg">
<path d="M0 8C0 3.58172 3.58172 0 8 0H40C44.4183 0 48 3.58172 48 8V40C48 44.4183 44.4183 48 40 48H8C3.58172 48 0 44.4183 0 40V8Z" fill="#FDF7EC"/>
<path d="M23.8127 20.9717C23.2072 20.9717 22.6359 20.8106 22.2111 20.5225C21.9816 20.3662 21.8009 20.1807 21.674 19.9707C21.547 20.1807 21.3663 20.3662 21.1368 20.5225C20.712 20.8106 20.1407 20.9717 19.5352 20.9717C19.2178 20.9717 18.9102 20.9278 18.6318 20.8448V24.551C19.6524 24.8781 20.3653 25.7864 20.3653 26.9729V27.8177H20.7071C20.7364 27.8177 20.7608 27.8177 20.7901 27.8226V22.7296C20.7901 22.5978 20.8927 22.4952 21.0245 22.4952H25.1995C25.3264 22.4952 25.4339 22.6026 25.4339 22.7296V28.2035H33.3004V20.8399C33.0123 20.9278 32.6949 20.9766 32.3677 20.9766C31.7623 20.9766 31.1909 20.8155 30.7661 20.5274C30.5366 20.3711 30.3559 20.1856 30.229 19.9756C30.102 20.1856 29.9214 20.3711 29.6919 20.5274C29.267 20.8155 28.6957 20.9766 28.0902 20.9766C27.4847 20.9766 26.9134 20.8155 26.4886 20.5274C26.2591 20.3711 26.0784 20.1856 25.9515 19.9756C25.8245 20.1856 25.6438 20.3711 25.4143 20.5274C24.9846 20.8155 24.4182 20.9717 23.8127 20.9717ZM27.099 22.7296C27.099 22.5978 27.2015 22.4952 27.3334 22.4952H30.8833C31.0152 22.4952 31.1177 22.5978 31.1177 22.7296V26.2796C31.1177 26.4114 31.0103 26.5139 30.8833 26.5139H27.3334C27.2015 26.5139 27.099 26.4114 27.099 26.2796V22.7296Z" fill="#E7B144"/>
<path d="M27.5674 22.9633H30.6485V26.0444H27.5674V22.9633ZM30.4581 19.1106C30.4581 20.0676 31.4445 20.5071 32.3625 20.5071C32.7238 20.5071 33.0998 20.4387 33.4172 20.2971L33.4465 20.2825C33.9202 20.0628 34.262 19.677 34.262 19.1106V18.3342H30.4532L30.4581 19.1106ZM28.0899 20.5022C29.0079 20.5022 29.9942 20.0676 29.9942 19.1057V18.3293H26.1855V19.1057C26.1855 20.0676 27.1718 20.5022 28.0899 20.5022ZM34.1155 17.8654L31.9865 13.7344H29.3399L30.4093 17.8654H34.1155ZM21.4197 28.2027H24.9598V22.9633H21.2536V28.0172C21.3171 28.0709 21.3757 28.1344 21.4197 28.2027ZM29.921 17.8654L28.8565 13.7344H26.1855V17.8654H29.921ZM23.8123 20.5022C24.7303 20.5022 25.7167 20.0676 25.7167 19.1057V18.3293H21.908V19.1057C21.908 20.0676 22.8943 20.5022 23.8123 20.5022ZM21.781 33.8328C21.5564 32.114 21.3366 30.3952 21.112 28.6715C21.0827 28.4469 20.9118 28.2857 20.7019 28.2857H20.36V29.2233C20.36 29.609 20.0426 29.9264 19.6569 29.9264C19.2711 29.9264 18.9537 29.609 18.9537 29.2233V28.2857H16.5611V29.2233C16.5611 29.609 16.2437 29.9264 15.8579 29.9264C15.4722 29.9264 15.1548 29.609 15.1548 29.2233V28.2857H14.8178C14.6079 28.2857 14.437 28.4469 14.4077 28.6715L13.7387 33.8328C13.724 33.9403 13.7582 34.0428 13.8315 34.1258C13.9096 34.2186 14.0268 34.2674 14.1489 34.2674H21.3708C21.4929 34.2674 21.6101 34.2137 21.6882 34.1258C21.7615 34.0428 21.7956 33.9403 21.781 33.8328ZM34.0227 28.6715H21.5808L21.8152 30.4685H23.3143L23.3436 30.2292C23.3924 29.863 23.6854 29.5944 24.0418 29.5944H28.3096C28.666 29.5944 28.959 29.8581 29.0079 30.2292L29.0372 30.4685H34.0227C34.1546 30.4685 34.2669 30.361 34.2669 30.2243V28.9108C34.2669 28.7789 34.1594 28.6715 34.0227 28.6715Z" fill="#E7B144"/>
<path d="M15.8574 29.4577C15.9893 29.4577 16.0918 29.3502 16.0918 29.2233V26.9722C16.0918 25.8589 16.9561 25.3559 17.7569 25.3559C18.1964 25.3559 18.6066 25.4975 18.9093 25.7612C19.2462 26.0542 19.422 26.4693 19.422 26.9722V29.2233C19.422 29.3551 19.5295 29.4577 19.6564 29.4577C19.7883 29.4577 19.8908 29.3551 19.8908 29.2233V26.9722C19.8908 25.605 18.8165 24.8872 17.7569 24.8872C16.6973 24.8872 15.623 25.605 15.623 26.9722V29.2233C15.623 29.3551 15.7305 29.4577 15.8574 29.4577ZM28.5435 30.2878C28.524 30.1559 28.4312 30.0632 28.3091 30.0632H24.0462C23.9242 30.0632 23.8314 30.1559 23.8119 30.2878C23.6507 31.533 23.4896 32.7781 23.3284 34.0282C23.3187 34.1063 23.3529 34.16 23.3773 34.1893C23.4212 34.243 23.4896 34.2723 23.5579 34.2723H28.7925C28.8609 34.2723 28.9293 34.243 28.9732 34.1893C28.9976 34.1649 29.0318 34.1063 29.022 34.0282C28.8658 32.7781 28.7046 31.533 28.5435 30.2878ZM27.479 31.6697C27.479 32.4412 26.8247 32.8465 26.1752 32.8465C25.5258 32.8465 24.8715 32.4412 24.8715 31.6697V30.737C24.8715 30.6052 24.974 30.5026 25.1059 30.5026C25.2377 30.5026 25.3402 30.6052 25.3402 30.737V31.6697C25.3402 32.2312 25.8676 32.3777 26.1752 32.3777C26.4877 32.3777 27.0102 32.2263 27.0102 31.6697V30.737C27.0102 30.6052 27.1128 30.5026 27.2446 30.5026C27.3765 30.5026 27.479 30.6052 27.479 30.737V31.6697ZM25.7162 17.8654V13.7344H23.0403L21.9758 17.8654H25.7162ZM22.5569 13.7344H19.9152L17.7813 17.8654H21.4924L22.5569 13.7344ZM18.4698 20.2923C18.4796 20.2971 18.4943 20.302 18.504 20.3069C18.8165 20.4387 19.1779 20.5071 19.5343 20.5071C20.4523 20.5071 21.4387 20.0725 21.4387 19.1106V18.3342H17.63V19.1106C17.63 19.6868 17.9864 20.0725 18.4698 20.2923Z" fill="#E7B144"/>
</svg>
