<svg width="48" height="48" viewBox="0 0 48 48" fill="none" xmlns="http://www.w3.org/2000/svg">
<path d="M0 8C0 3.58172 3.58172 0 8 0H40C44.4183 0 48 3.58172 48 8V40C48 44.4183 44.4183 48 40 48H8C3.58172 48 0 44.4183 0 40V8Z" fill="#FDF7EC"/>
<g clip-path="url(#clip0_161_2786)">
<path fill-rule="evenodd" clip-rule="evenodd" d="M12.6744 25.6468H35.3258V27.2557H12.6744V25.6468ZM24.0004 12L29.7295 15.1868L35.4592 18.3736H12.541L18.2707 15.1868L24.0004 12ZM28.4954 17.6455C28.4982 17.6979 28.5209 17.7473 28.559 17.7834C28.597 17.8196 28.6475 17.8397 28.7 17.8397C28.7525 17.8397 28.803 17.8196 28.841 17.7834C28.8791 17.7473 28.9018 17.6979 28.9046 17.6455V16.9446C28.945 17.0282 29.0784 17.5531 29.3253 17.5586H29.3348C29.5806 17.5531 29.7146 17.0282 29.755 16.9441V17.6455C29.755 17.6999 29.7766 17.752 29.815 17.7904C29.8534 17.8288 29.9055 17.8504 29.9598 17.8504C30.0142 17.8504 30.0663 17.8288 30.1047 17.7904C30.1431 17.752 30.1647 17.6999 30.1647 17.6455V16.0527C30.1647 16.0048 30.1478 15.9584 30.1172 15.9215C30.0865 15.8847 30.0438 15.8599 29.9967 15.8512C29.9495 15.8426 29.9009 15.8508 29.8591 15.8743C29.8174 15.8979 29.7852 15.9353 29.7683 15.9802L29.3298 16.8859L28.8913 15.9802C28.8741 15.9357 28.8419 15.8987 28.8003 15.8754C28.7587 15.8521 28.7102 15.8441 28.6634 15.8527C28.6165 15.8613 28.574 15.8859 28.5434 15.9225C28.5127 15.959 28.4958 16.005 28.4954 16.0527V17.6455ZM23.2768 16.4746C23.2779 16.5013 23.2842 16.5276 23.2955 16.5519C23.3067 16.5762 23.3226 16.5981 23.3423 16.6162C23.362 16.6343 23.3851 16.6484 23.4102 16.6577C23.4353 16.6669 23.4621 16.6711 23.4888 16.67C23.5156 16.6689 23.5418 16.6626 23.5661 16.6513C23.5904 16.6401 23.6123 16.6241 23.6304 16.6045C23.6486 16.5848 23.6627 16.5617 23.6719 16.5366C23.6811 16.5114 23.6853 16.4847 23.6842 16.458C23.6824 16.4011 23.6731 16.3447 23.6566 16.2902C23.5613 15.9868 23.2784 15.8478 22.9595 15.8478C22.6672 15.8478 22.3821 15.9774 22.2924 16.2736C22.2764 16.3256 22.2682 16.3797 22.268 16.4342C22.268 16.8516 22.5875 16.9407 22.9108 17.0321C23.0924 17.0819 23.2762 17.134 23.2762 17.2646C23.2762 17.3543 23.2231 17.382 23.1555 17.4158C23.1034 17.4337 23.0484 17.4423 22.9933 17.4412C22.923 17.4412 22.7979 17.418 22.7453 17.3759C22.7237 17.3569 22.7064 17.3336 22.6945 17.3074C22.6826 17.2813 22.6763 17.2529 22.6761 17.2242C22.6739 17.1702 22.6504 17.1192 22.6107 17.0825C22.571 17.0458 22.5183 17.0264 22.4643 17.0285C22.4103 17.0306 22.3593 17.0541 22.3226 17.0938C22.2859 17.1336 22.2664 17.1862 22.2686 17.2403C22.2758 17.4174 22.35 17.5819 22.49 17.6942C22.6307 17.8077 22.8156 17.8504 22.9933 17.8504C23.1561 17.8504 23.3454 17.8033 23.475 17.7003C23.6062 17.5957 23.6854 17.4329 23.6854 17.2641C23.6854 16.8245 23.351 16.7309 23.021 16.6384C22.8482 16.5897 22.6772 16.5421 22.6772 16.4342C22.6772 16.3279 22.7724 16.2819 22.8632 16.2653C22.895 16.2598 22.9272 16.2572 22.9595 16.2575C23.0791 16.2575 23.2253 16.2819 23.2662 16.412C23.2725 16.4323 23.276 16.4533 23.2768 16.4746ZM21.6889 16.0527C21.6889 15.9984 21.6673 15.9463 21.6289 15.9078C21.5905 15.8694 21.5384 15.8478 21.4841 15.8478C21.4297 15.8478 21.3776 15.8694 21.3392 15.9078C21.3008 15.9463 21.2792 15.9984 21.2792 16.0527V17.0481C21.2792 17.2641 21.102 17.4412 20.8867 17.4412C20.6708 17.4412 20.4936 17.2641 20.4936 17.0481V16.0527C20.4909 16.0003 20.4681 15.9509 20.43 15.9148C20.392 15.8786 20.3415 15.8585 20.289 15.8585C20.2365 15.8585 20.186 15.8786 20.148 15.9148C20.1099 15.9509 20.0872 16.0003 20.0844 16.0527V17.0481C20.0844 17.49 20.4454 17.8504 20.8867 17.8504C21.3279 17.8504 21.6889 17.49 21.6889 17.0481V16.0527ZM27.9158 16.0527C27.9158 15.9984 27.8942 15.9463 27.8558 15.9078C27.8173 15.8694 27.7652 15.8478 27.7109 15.8478C27.6566 15.8478 27.6045 15.8694 27.5661 15.9078C27.5276 15.9463 27.5061 15.9984 27.5061 16.0527V17.0481C27.5061 17.2641 27.3289 17.4412 27.1135 17.4412C26.8982 17.4412 26.7204 17.2641 26.7204 17.0481V16.0527C26.7166 16.0011 26.6935 15.9529 26.6556 15.9177C26.6177 15.8825 26.5679 15.8629 26.5161 15.8629C26.4644 15.8629 26.4146 15.8825 26.3767 15.9177C26.3388 15.9529 26.3157 16.0011 26.3119 16.0527V17.0481C26.3119 17.49 26.6717 17.8504 27.1135 17.8504C27.5553 17.8504 27.9158 17.49 27.9158 17.0481V16.0527ZM24.6731 17.0537H25.343C25.3954 17.051 25.4448 17.0282 25.4809 16.9901C25.517 16.9521 25.5372 16.9016 25.5372 16.8491C25.5372 16.7966 25.517 16.7461 25.4809 16.7081C25.4448 16.67 25.3954 16.6473 25.343 16.6445H24.6731V16.257H25.5273C25.5798 16.2543 25.6291 16.2315 25.6653 16.1934C25.7014 16.1554 25.7215 16.1049 25.7215 16.0524C25.7215 15.9999 25.7014 15.9494 25.6653 15.9114C25.6291 15.8733 25.5798 15.8506 25.5273 15.8478H24.4682C24.4413 15.8478 24.4147 15.8531 24.3898 15.8634C24.365 15.8737 24.3424 15.8888 24.3234 15.9078C24.3043 15.9269 24.2893 15.9494 24.279 15.9743C24.2687 15.9991 24.2634 16.0258 24.2634 16.0527V17.6455C24.2634 17.759 24.3553 17.8504 24.4682 17.8504H25.5273C25.5817 17.8504 25.6338 17.8288 25.6722 17.7904C25.7106 17.752 25.7322 17.6999 25.7322 17.6455C25.7322 17.5912 25.7106 17.5391 25.6722 17.5007C25.6338 17.4623 25.5817 17.4407 25.5273 17.4407H24.6731V17.0537ZM18.8537 17.444L19.0951 16.9446V17.6455C19.0951 17.6999 19.1167 17.752 19.1551 17.7904C19.1935 17.8288 19.2456 17.8504 19.2999 17.8504C19.3543 17.8504 19.4064 17.8288 19.4448 17.7904C19.4832 17.752 19.5048 17.6999 19.5048 17.6455V16.0527C19.5048 16.0048 19.4879 15.9584 19.4573 15.9215C19.4266 15.8847 19.3839 15.8599 19.3368 15.8512C19.2896 15.8426 19.241 15.8508 19.1992 15.8743C19.1575 15.8979 19.1253 15.9353 19.1084 15.9802L18.6699 16.8859L18.2314 15.9802C18.2142 15.9357 18.182 15.8987 18.1404 15.8754C18.0988 15.8521 18.0503 15.8441 18.0035 15.8527C17.9566 15.8613 17.9141 15.8859 17.8835 15.9225C17.8528 15.959 17.8359 16.005 17.8355 16.0527V17.6455C17.8355 17.6999 17.8571 17.752 17.8955 17.7904C17.9339 17.8288 17.9861 17.8504 18.0404 17.8504C18.0947 17.8504 18.1468 17.8288 18.1852 17.7904C18.2236 17.752 18.2452 17.6999 18.2452 17.6455V16.9446L18.4861 17.4429C18.5198 17.5127 18.5885 17.5569 18.6654 17.5586H18.6699C18.7081 17.5586 18.7455 17.5479 18.778 17.5276C18.8104 17.5073 18.837 17.4784 18.8537 17.444Z" fill="#E7B144"/>
<path d="M16.18 19.6823C16.18 19.6008 16.1476 19.5226 16.09 19.465C16.0324 19.4074 15.9542 19.375 15.8727 19.375C15.7912 19.375 15.7131 19.4074 15.6554 19.465C15.5978 19.5226 15.5654 19.6008 15.5654 19.6823V24.3384C15.5654 24.4199 15.5978 24.4981 15.6554 24.5557C15.7131 24.6133 15.7912 24.6457 15.8727 24.6457C15.9542 24.6457 16.0324 24.6133 16.09 24.5557C16.1476 24.4981 16.18 24.4199 16.18 24.3384V19.6823Z" fill="#E7B144"/>
<path d="M14.5997 20.6478C14.5183 20.6478 14.4403 20.6801 14.3828 20.7377C14.3253 20.7952 14.293 20.8732 14.293 20.9546C14.293 21.0359 14.3253 21.1139 14.3828 21.1714C14.4403 21.229 14.5183 21.2613 14.5997 21.2613H17.1454C17.2268 21.2613 17.3049 21.2289 17.3624 21.1714C17.42 21.1138 17.4523 21.0357 17.4523 20.9543C17.4523 20.8729 17.42 20.7948 17.3624 20.7372C17.3049 20.6796 17.2268 20.6473 17.1454 20.6473L14.5997 20.6478ZM21.5978 19.6817C21.5978 19.6004 21.5655 19.5224 21.5079 19.4648C21.4504 19.4073 21.3724 19.375 21.2911 19.375C21.2097 19.375 21.1317 19.4073 21.0742 19.4648C21.0166 19.5224 20.9843 19.6004 20.9843 19.6817V24.3379C20.9843 24.4192 21.0166 24.4972 21.0742 24.5548C21.1317 24.6123 21.2097 24.6446 21.2911 24.6446C21.3724 24.6446 21.4504 24.6123 21.5079 24.5548C21.5655 24.4972 21.5978 24.4192 21.5978 24.3379V19.6817Z" fill="#E7B144"/>
<path d="M20.0186 20.6478C19.9373 20.6478 19.8593 20.6801 19.8017 20.7377C19.7442 20.7952 19.7119 20.8732 19.7119 20.9546C19.7119 21.0359 19.7442 21.1139 19.8017 21.1714C19.8593 21.229 19.9373 21.2613 20.0186 21.2613H22.5643C22.6457 21.2613 22.7238 21.2289 22.7814 21.1714C22.8389 21.1138 22.8713 21.0357 22.8713 20.9543C22.8713 20.8729 22.8389 20.7948 22.7814 20.7372C22.7238 20.6796 22.6457 20.6473 22.5643 20.6473L20.0186 20.6478ZM27.0167 19.6817C27.0167 19.6004 26.9844 19.5224 26.9269 19.4648C26.8694 19.4073 26.7913 19.375 26.71 19.375C26.6287 19.375 26.5506 19.4073 26.4931 19.4648C26.4356 19.5224 26.4033 19.6004 26.4033 19.6817V24.3379C26.4033 24.4192 26.4356 24.4972 26.4931 24.5548C26.5506 24.6123 26.6287 24.6446 26.71 24.6446C26.7913 24.6446 26.8694 24.6123 26.9269 24.5548C26.9844 24.4972 27.0167 24.4192 27.0167 24.3379V19.6817Z" fill="#E7B144"/>
<path d="M25.4376 20.6484C25.3562 20.6484 25.2782 20.6807 25.2207 20.7382C25.1632 20.7957 25.1309 20.8738 25.1309 20.9551C25.1309 21.0365 25.1632 21.1145 25.2207 21.172C25.2782 21.2295 25.3562 21.2618 25.4376 21.2618H27.9827C28.0641 21.2618 28.1422 21.2295 28.1998 21.1719C28.2573 21.1143 28.2897 21.0362 28.2897 20.9548C28.2897 20.8734 28.2573 20.7953 28.1998 20.7377C28.1422 20.6802 28.0641 20.6478 27.9827 20.6478L25.4376 20.6484ZM32.4357 19.6823C32.4357 19.6008 32.4033 19.5226 32.3457 19.465C32.288 19.4074 32.2099 19.375 32.1284 19.375C32.0469 19.375 31.9687 19.4074 31.9111 19.465C31.8535 19.5226 31.8211 19.6008 31.8211 19.6823V24.3384C31.8211 24.4199 31.8535 24.4981 31.9111 24.5557C31.9687 24.6133 32.0469 24.6457 32.1284 24.6457C32.2099 24.6457 32.288 24.6133 32.3457 24.5557C32.4033 24.4981 32.4357 24.4199 32.4357 24.3384V19.6823Z" fill="#E7B144"/>
<path d="M30.8554 20.649C30.7741 20.649 30.6961 20.6813 30.6385 20.7388C30.581 20.7963 30.5487 20.8744 30.5487 20.9557C30.5487 21.0371 30.581 21.1151 30.6385 21.1726C30.6961 21.2301 30.7741 21.2624 30.8554 21.2624H33.4011C33.4825 21.2624 33.5606 21.2301 33.6182 21.1725C33.6757 21.1149 33.7081 21.0369 33.7081 20.9554C33.7081 20.874 33.6757 20.7959 33.6182 20.7384C33.5606 20.6808 33.4825 20.6484 33.4011 20.6484L30.8554 20.649ZM23.5689 31.5143V32.6238H23.1592V31.5143H23.5689ZM24.8417 31.5143V32.6238H24.432V31.5143H24.8417Z" fill="#E7B144"/>
<path fill-rule="evenodd" clip-rule="evenodd" d="M20.0177 20.9552C20.0185 20.6177 20.153 20.2943 20.3916 20.0557C20.6302 19.8171 20.9536 19.6826 21.291 19.6818C21.6283 19.6829 21.9514 19.8175 22.1898 20.0561C22.4282 20.2947 22.5624 20.6179 22.5633 20.9552V24.339H20.0177V20.9552ZM34.852 18.7832H13.1475V25.2382H34.852V18.7832ZM25.4367 20.9552C25.4376 20.6177 25.5721 20.2943 25.8107 20.0557C26.0493 19.8171 26.3727 19.6826 26.7101 19.6818C27.0474 19.6829 27.3705 19.8175 27.6089 20.0561C27.8472 20.2947 27.9815 20.6179 27.9824 20.9552V24.339H25.4367V20.9552ZM30.8553 24.339V20.9552C30.8562 20.6178 30.9905 20.2945 31.229 20.0559C31.4675 19.8173 31.7907 19.6828 32.1281 19.6818C32.4655 19.6828 32.7887 19.8173 33.0272 20.0559C33.2657 20.2945 33.4001 20.6178 33.4009 20.9552V24.339H32.1281H30.8553ZM15.872 19.6823C16.2093 19.6832 16.5326 19.8176 16.7712 20.0561C17.0098 20.2946 17.1443 20.6178 17.1453 20.9552V24.339H14.5986V20.9552C14.5994 20.6177 14.7339 20.2943 14.9725 20.0557C15.2111 19.8171 15.5345 19.6826 15.872 19.6818V19.6823Z" fill="#E7B144"/>
<path d="M24.205 28.5458C24.2023 28.4934 24.1796 28.444 24.1415 28.4078C24.1034 28.3717 24.053 28.3516 24.0005 28.3516C23.948 28.3516 23.8975 28.3717 23.8594 28.4078C23.8214 28.444 23.7986 28.4934 23.7959 28.5458V35.5915C23.7959 35.6458 23.8175 35.6979 23.8559 35.7363C23.8943 35.7747 23.9464 35.7963 24.0007 35.7963C24.0551 35.7963 24.1072 35.7747 24.1456 35.7363C24.184 35.6979 24.2056 35.6458 24.2056 35.5915L24.205 28.5458Z" fill="#E7B144"/>
<path fill-rule="evenodd" clip-rule="evenodd" d="M15.1854 34.6887V28.9934H14.7984C14.7441 28.9934 14.692 28.9718 14.6536 28.9334C14.6152 28.895 14.5936 28.8428 14.5936 28.7885V27.6646H13.1475V36.0003H14.5936V34.8941C14.5936 34.8398 14.6152 34.7877 14.6536 34.7493C14.692 34.7109 14.7441 34.6893 14.7984 34.6893L15.1854 34.6887ZM20.5923 35.5906V28.5449H27.4077V35.5906H24.0006H20.5923ZM30.0508 27.6646H17.9492V28.7885C17.9492 28.8428 17.9277 28.895 17.8892 28.9334C17.8508 28.9718 17.7987 28.9934 17.7444 28.9934H17.3574V34.6887H17.7444C17.7987 34.6887 17.8508 34.7103 17.8892 34.7487C17.9277 34.7871 17.9492 34.8392 17.9492 34.8936V35.9998H30.0508V34.8936C30.0508 34.8392 30.0724 34.7871 30.1108 34.7487C30.1492 34.7103 30.2013 34.6887 30.2557 34.6887H30.6421V28.9934H30.2551C30.2008 28.9934 30.1487 28.9718 30.1103 28.9334C30.0719 28.895 30.0503 28.8428 30.0503 28.7885L30.0508 27.6646ZM34.852 36.0003V27.6641H33.4059V28.788C33.4059 28.8423 33.3843 28.8944 33.3459 28.9328C33.3075 28.9712 33.2554 28.9928 33.2011 28.9928H32.8141V34.6882H33.2016C33.2559 34.6883 33.3078 34.71 33.3461 34.7484C33.3844 34.7868 33.4059 34.8388 33.4059 34.893V35.9992L34.852 36.0003ZM17.5395 28.5842V27.6652H15.0033V28.5842H17.5395ZM16.9482 34.6887V28.9934H15.5946V34.6887H16.9482ZM17.5395 35.0979H15.0033V36.0003H17.5395V35.0979Z" fill="#E7B144"/>
<path fill-rule="evenodd" clip-rule="evenodd" d="M32.9968 27.6641H30.46V28.5831H32.9968V27.6641ZM32.4049 34.6882V28.9928H31.0513V34.6882H32.4049ZM30.46 35.0973V35.9998H32.9968V35.0973H30.46Z" fill="#E7B144"/>
</g>
<defs>
<clipPath id="clip0_161_2786">
<rect width="24" height="24" fill="white" transform="translate(12 12)"/>
</clipPath>
</defs>
</svg>
