<svg width="48" height="48" viewBox="0 0 48 48" fill="none" xmlns="http://www.w3.org/2000/svg">
<path d="M0 8C0 3.58172 3.58172 0 8 0H40C44.4183 0 48 3.58172 48 8V40C48 44.4183 44.4183 48 40 48H8C3.58172 48 0 44.4183 0 40V8Z" fill="#FDF7EC"/>
<g clip-path="url(#clip0_161_2775)">
<path fill-rule="evenodd" clip-rule="evenodd" d="M28.9955 26.6647L27.6417 30.2919C27.4553 30.7913 27.1641 31.2506 26.8068 30.8722C26.7005 30.7596 26.6102 30.6086 26.627 30.4426L26.9255 27.499C26.9263 27.4906 26.9293 27.4827 26.9342 27.4759C26.9391 27.4692 26.9458 27.464 26.9535 27.4607L28.9331 26.6054C28.9415 26.6016 28.9508 26.6005 28.9599 26.6021C28.969 26.6037 28.9773 26.608 28.9839 26.6144C28.9978 26.6276 29.0021 26.6467 28.9955 26.6647ZM26.4284 34.1099V35.1183C26.4287 35.1424 26.4383 35.1654 26.4554 35.1824C26.4724 35.1995 26.4954 35.2092 26.5195 35.2094H27.6439C27.668 35.2091 27.691 35.1994 27.7081 35.1824C27.7251 35.1654 27.7348 35.1424 27.7351 35.1183V34.1099C27.7351 34.0976 27.7301 34.0857 27.7214 34.0769C27.7126 34.0681 27.7007 34.0632 27.6883 34.0632H26.4752C26.4628 34.0632 26.4509 34.0681 26.4421 34.0769C26.4334 34.0857 26.4284 34.0975 26.4284 34.1099ZM20.2636 34.1099V35.1183C20.2636 35.1678 20.3052 35.2094 20.3547 35.2094H21.4791C21.5032 35.2091 21.5262 35.1994 21.5432 35.1824C21.5603 35.1654 21.57 35.1424 21.5703 35.1183V34.1099C21.5702 34.0976 21.5653 34.0857 21.5565 34.0769C21.5478 34.0681 21.5359 34.0632 21.5235 34.0632H20.3104C20.298 34.0632 20.2861 34.0681 20.2773 34.0769C20.2685 34.0857 20.2636 34.0975 20.2636 34.1099ZM35.4408 19.0792C34.811 17.5617 31.3397 18.0765 29.6166 18.4277C29.6072 18.4295 29.5986 18.4342 29.592 18.4411C29.5854 18.448 29.5812 18.4568 29.5798 18.4663C29.5782 18.4757 29.5796 18.4854 29.5838 18.494C29.588 18.5026 29.5947 18.5097 29.6031 18.5143C29.7914 18.6201 29.9582 18.7604 30.0947 18.9278C30.0999 18.9344 30.1069 18.9394 30.1148 18.9423C30.1227 18.9452 30.1312 18.9459 30.1395 18.9442C31.2471 18.7371 32.2197 18.6393 33.0045 18.6585C35.178 18.7115 35.5018 19.5492 34.0004 21.1199C33.5898 21.5494 33.058 22.0071 32.4231 22.4791C32.4164 22.4839 32.4111 22.4905 32.4078 22.4981C32.4046 22.5057 32.4034 22.514 32.4045 22.5222C32.4054 22.5304 32.4085 22.5383 32.4135 22.5449C32.4184 22.5515 32.4251 22.5566 32.4328 22.5597L32.9782 22.7902C32.9942 22.7969 33.0112 22.7948 33.0249 22.7842C33.5839 22.3543 34.0599 21.9356 34.4399 21.538C35.3353 20.6014 35.7176 19.7462 35.4408 19.0792ZM31.8908 22.8594C31.676 22.795 31.4587 22.7659 31.2415 22.7722C30.7357 22.7866 30.4104 22.9708 29.9854 23.1848C29.9783 23.1885 29.9703 23.1903 29.9623 23.1899C29.9543 23.1896 29.9466 23.1871 29.9398 23.1828C29.933 23.1787 29.9273 23.1729 29.9234 23.1659C29.9195 23.1589 29.9175 23.151 29.9176 23.143V20.4254C29.9176 19.4855 29.1498 18.7177 28.21 18.7177H19.7887C18.8489 18.7177 18.0811 19.4855 18.0811 20.4254V28.6306C18.0812 28.6415 18.0774 28.6521 18.0705 28.6605C18.0636 28.6689 18.054 28.6746 18.0433 28.6766C17.308 28.8198 16.6283 28.9163 16.0189 28.9641C14.4173 29.0895 13.3478 28.896 13.1185 28.3434C12.9282 27.885 13.3358 27.1777 14.1938 26.3378C14.9767 25.5712 16.1203 24.7263 17.528 23.8761C17.535 23.872 17.5408 23.8662 17.5448 23.8591C17.5487 23.8521 17.5508 23.8441 17.5506 23.8361V23.239C17.5506 23.2217 17.5421 23.2069 17.5271 23.1984C17.5121 23.1898 17.495 23.19 17.4801 23.1988C15.9098 24.1268 14.6329 25.0592 13.7685 25.9054C12.7256 26.9266 12.2612 27.8616 12.5578 28.5763C12.9009 29.4029 14.1891 29.7167 16.064 29.5699C17.5047 29.457 19.5108 28.9484 21.3837 28.3666C21.4216 28.3548 21.4602 28.3453 21.4972 28.3312C22.0954 28.1022 20.8505 26.518 20.5384 26.0129C20.5302 25.9995 20.529 25.9845 20.5352 25.9701C20.5413 25.9557 20.5529 25.946 20.5683 25.9426C20.5839 25.9392 20.6006 25.9407 20.6203 25.951L22.454 26.9101C22.8615 27.1232 23.281 27.2593 23.691 27.052L30.6327 23.5408C31.0399 23.3349 31.467 23.3228 31.8924 23.5044L32.991 23.9737C33.0876 24.015 33.087 24.15 32.9915 24.1899C28.1737 26.2716 23.3093 28.8338 18.1191 29.824C18.1083 29.826 18.0987 29.8317 18.0917 29.8401C18.0848 29.8484 18.081 29.859 18.081 29.8699V31.9065C18.081 32.8462 18.8489 33.6141 19.7886 33.6141H28.2099C29.1497 33.6141 29.9175 32.8463 29.9175 31.9065V26.2108C29.9175 26.1917 29.9282 26.1754 29.9457 26.1679L33.2314 24.7482C33.8146 24.4968 33.8134 23.6653 33.2285 23.4155L32.561 23.1304L32.5602 23.1301L31.8949 22.8609C31.8936 22.8603 31.8922 22.8598 31.8908 22.8594ZM25.954 18.1438V15.0758C25.954 15.0629 25.9586 15.0518 25.9677 15.0427C25.972 15.0382 25.9772 15.0348 25.9829 15.0324C25.9886 15.0301 25.9947 15.0289 26.0009 15.029C26.2182 15.0298 26.3993 15.0292 26.584 14.8445C26.6425 14.7862 26.6889 14.717 26.7205 14.6407C26.7522 14.5645 26.7684 14.4828 26.7684 14.4002V13.4178C26.7684 13.0714 26.4861 12.7891 26.1398 12.7891H21.859C21.5126 12.7891 21.2303 13.0714 21.2303 13.4178V14.4002C21.2303 14.7466 21.5126 15.0289 21.859 15.0289H21.998C22.0238 15.0289 22.0447 15.0499 22.0447 15.0756V18.1438C22.0447 18.1696 22.0658 18.1906 22.0915 18.1906H22.6061C22.6185 18.1905 22.6304 18.1856 22.6391 18.1768C22.6479 18.1681 22.6528 18.1562 22.6529 18.1438V15.0756C22.6529 15.0499 22.6739 15.0289 22.6996 15.0289H25.2989C25.3247 15.0289 25.3457 15.0499 25.3457 15.0756V18.1438C25.3457 18.1696 25.3667 18.1906 25.3925 18.1906H25.9071C25.9132 18.1906 25.9193 18.1894 25.925 18.187C25.9307 18.1847 25.9358 18.1812 25.9402 18.1769C25.9445 18.1726 25.948 18.1674 25.9504 18.1617C25.9527 18.1561 25.9539 18.15 25.954 18.1438ZM22.6912 23.9044C22.6905 23.9039 22.6898 23.9035 22.6891 23.9031C22.2567 23.6282 22.4414 23.3082 22.9508 23.4509L22.9526 23.4513L27.2101 24.4718C27.2296 24.4765 27.2434 24.4921 27.2456 24.5121C27.2479 24.532 27.238 24.5503 27.22 24.5592L25.1227 25.6015C25.1152 25.6053 25.1067 25.607 25.0983 25.6064C25.0898 25.6057 25.0817 25.6027 25.0748 25.5977L22.6912 23.9044Z" fill="#E7B144"/>
</g>
<defs>
<clipPath id="clip0_161_2775">
<rect width="24" height="24" fill="white" transform="translate(12 12)"/>
</clipPath>
</defs>
</svg>
